<svg preserveAspectRatio="none" width="100%" height="100%" overflow="visible" style="display: block;" viewBox="0 0 13.8375 13.7602" fill="none" xmlns="http://www.w3.org/2000/svg">
<g id="justice-hammer--hammer-work-mallet-office-company-gavel-justice-judge-arbitration-court">
<path id="Union" fill-rule="evenodd" clip-rule="evenodd" d="M3.79587 6.14569C3.21009 5.55991 3.21009 4.61016 3.79587 4.02437L7.3809 0.43934C7.96669 -0.146447 8.91644 -0.146447 9.50223 0.43934L11.0861 2.02326C11.6719 2.60905 11.6719 3.5588 11.0861 4.14458L9.82919 5.40154L13.6178 9.19011C13.9107 9.483 13.9107 9.95783 13.6178 10.2507C13.3249 10.5436 12.85 10.5436 12.5571 10.2507L8.76853 6.4622L7.50111 7.72961C6.91533 8.3154 5.96558 8.3154 5.37979 7.72961L3.79587 6.14569ZM1.25 12.2602H0.75C0.335786 12.2602 0 12.596 0 13.0102C0 13.4244 0.335786 13.7602 0.75 13.7602H8.25C8.66421 13.7602 9 13.4244 9 13.0102C9 12.596 8.66421 12.2602 8.25 12.2602H7.75V10.5102C7.75 10.2341 7.52614 10.0102 7.25 10.0102H1.75C1.47386 10.0102 1.25 10.2341 1.25 10.5102V12.2602Z" fill="var(--fill-0, white)"/>
</g>
</svg>
