<svg preserveAspectRatio="none" width="100%" height="100%" overflow="visible" style="display: block;" viewBox="0 0 19.2263 21.4999" fill="none" xmlns="http://www.w3.org/2000/svg">
<path id="Vector 2" opacity="0.4" d="M4.71858 2.46099e-07H12.2814C12.9548 -7.98814e-06 13.5055 -1.47223e-05 13.9531 0.0365523C14.4163 0.0744022 14.8347 0.155138 15.2255 0.35423C15.837 0.665818 16.3342 1.16301 16.6458 1.77453C16.8449 2.16527 16.9256 2.58367 16.9634 3.04693C17 3.49449 17 4.04519 17 4.71856V19.25C17 20.4847 17.9946 21.4872 19.2263 21.4999H6.3173C5.3649 21.4999 4.60438 21.4999 3.99013 21.4497C3.36012 21.3982 2.81824 21.2902 2.32054 21.0367C1.52085 20.6292 0.870684 19.979 0.463223 19.1793C0.209634 18.6816 0.101651 18.1398 0.0501765 17.5097C-1.02744e-05 16.8955 -5.6039e-06 16.1349 2.46099e-07 15.1825V4.71857C-7.98814e-06 4.0452 -1.47223e-05 3.49449 0.0365523 3.04693C0.0744023 2.58367 0.155138 2.16527 0.35423 1.77453C0.665818 1.163 1.16301 0.665818 1.77453 0.35423C2.16527 0.155138 2.58367 0.0744022 3.04693 0.0365523C3.49449 -1.47223e-05 4.04521 -7.98814e-06 4.71858 2.46099e-07Z" fill="var(--fill-0, #9333EA)"/>
</svg>
