<svg preserveAspectRatio="none" width="100%" height="100%" overflow="visible" style="display: block;" viewBox="0 0 10.5 17.5" fill="none" xmlns="http://www.w3.org/2000/svg">
<g id="Vector 1">
<path d="M5.25 0C2.35051 0 0 2.35051 0 5.25V7.75C0 8.16421 0.335786 8.5 0.75 8.5C1.16421 8.5 1.5 8.16421 1.5 7.75V5.25C1.5 3.17893 3.17893 1.5 5.25 1.5C7.32107 1.5 9 3.17893 9 5.25V7.75C9 8.16421 9.33579 8.5 9.75 8.5C10.1642 8.5 10.5 8.16421 10.5 7.75V5.25C10.5 2.35051 8.14949 0 5.25 0Z" fill="var(--fill-0, #7E22CE)"/>
<path d="M4.5 15.1046C3.76704 14.8079 3.25 14.0893 3.25 13.25C3.25 12.1454 4.14543 11.25 5.25 11.25C6.35457 11.25 7.25 12.1454 7.25 13.25C7.25 14.0893 6.73296 14.8079 6 15.1046V16.75C6 17.1642 5.66421 17.5 5.25 17.5C4.83579 17.5 4.5 17.1642 4.5 16.75V15.1046Z" fill="var(--fill-0, #7E22CE)"/>
</g>
</svg>
