<svg preserveAspectRatio="none" width="100%" height="100%" overflow="visible" style="display: block;" viewBox="0 0 14.3333 14.3333" fill="none" xmlns="http://www.w3.org/2000/svg">
<g id="Group">
<path id="Vector" fill-rule="evenodd" clip-rule="evenodd" d="M0 7.16667C0 3.20867 3.20867 0 7.16667 0C11.1247 0 14.3333 3.20867 14.3333 7.16667C14.3333 11.1247 11.1247 14.3333 7.16667 14.3333C3.20867 14.3333 0 11.1247 0 7.16667ZM7.16667 1C5.53116 1 3.96265 1.6497 2.80617 2.80617C1.6497 3.96265 1 5.53116 1 7.16667C1 8.80217 1.6497 10.3707 2.80617 11.5272C3.96265 12.6836 5.53116 13.3333 7.16667 13.3333C8.80217 13.3333 10.3707 12.6836 11.5272 11.5272C12.6836 10.3707 13.3333 8.80217 13.3333 7.16667C13.3333 5.53116 12.6836 3.96265 11.5272 2.80617C10.3707 1.6497 8.80217 1 7.16667 1Z" fill="var(--fill-0, white)"/>
<path id="Vector_2" fill-rule="evenodd" clip-rule="evenodd" d="M7.35733 5C6.022 5 5 6.002 5 7.16667C5 8.33133 6.022 9.33333 7.35733 9.33333C7.698 9.33333 8.02067 9.26667 8.31067 9.14867C8.37147 9.12385 8.43656 9.11125 8.50224 9.11158C8.56791 9.11192 8.63287 9.12519 8.69341 9.15063C8.75396 9.17608 8.8089 9.2132 8.8551 9.25987C8.90129 9.30655 8.93785 9.36186 8.96267 9.42267C8.98749 9.48347 9.00009 9.54856 8.99975 9.61424C8.99941 9.67991 8.98614 9.74487 8.9607 9.80541C8.93526 9.86596 8.89814 9.9209 8.85146 9.9671C8.80479 10.0133 8.74947 10.0498 8.68867 10.0747C8.26576 10.246 7.81365 10.3339 7.35733 10.3333C5.536 10.3333 4 8.94733 4 7.16667C4 5.386 5.536 4 7.35733 4C7.81365 3.99944 8.26576 4.08728 8.68867 4.25867C8.81155 4.3087 8.90952 4.40551 8.96103 4.52778C9.01254 4.65005 9.01337 4.78778 8.96333 4.91067C8.9133 5.03355 8.81649 5.13152 8.69422 5.18303C8.57195 5.23454 8.43422 5.23537 8.31133 5.18533C8.00827 5.06257 7.68431 4.99963 7.35733 5Z" fill="var(--fill-0, white)"/>
</g>
</svg>
