<svg preserveAspectRatio="none" width="100%" height="100%" overflow="visible" style="display: block;" viewBox="0 0 18.9999 15.5" fill="none" xmlns="http://www.w3.org/2000/svg">
<g id="Vector 1">
<path d="M0 0.75C0 0.335786 0.335786 0 0.75 0H4.75C5.16421 0 5.5 0.335786 5.5 0.75C5.5 1.16421 5.16421 1.5 4.75 1.5H0.75C0.335786 1.5 0 1.16421 0 0.75Z" fill="var(--fill-0, #7E22CE)"/>
<path d="M0.75 4C0.335786 4 0 4.33579 0 4.75C0 5.16421 0.335786 5.5 0.75 5.5H6.67292C7.00388 4.94205 7.4144 4.43683 7.88886 4H0.75Z" fill="var(--fill-0, #7E22CE)"/>
<path d="M5.80727 8C5.76949 8.28631 5.75 8.57838 5.75 8.875C5.75 9.08578 5.75984 9.29426 5.7791 9.5H0.75C0.335786 9.5 0 9.16421 0 8.75C0 8.33579 0.335786 8 0.75 8H5.80727Z" fill="var(--fill-0, #7E22CE)"/>
<path fill-rule="evenodd" clip-rule="evenodd" d="M7.5 8.875C7.5 6.18261 9.68261 4 12.375 4C15.0674 4 17.25 6.18261 17.25 8.875C17.25 9.95058 16.9017 10.9448 16.3117 11.751L18.7803 14.2197C19.0732 14.5126 19.0732 14.9874 18.7803 15.2803C18.4874 15.5732 18.0125 15.5732 17.7196 15.2803L15.251 12.8117C14.4448 13.4017 13.4506 13.75 12.375 13.75C9.68261 13.75 7.5 11.5674 7.5 8.875ZM12.375 5.5C10.511 5.5 9 7.01104 9 8.875C9 10.739 10.511 12.25 12.375 12.25C14.239 12.25 15.75 10.739 15.75 8.875C15.75 7.01104 14.239 5.5 12.375 5.5Z" fill="var(--fill-0, #7E22CE)"/>
</g>
</svg>
