<svg preserveAspectRatio="none" width="100%" height="100%" overflow="visible" style="display: block;" viewBox="0 0 16 16" fill="none" xmlns="http://www.w3.org/2000/svg">
<g id="File-Download--Streamline-Solar">
<path id="Vector" d="M12.9011 5.07777L10.2619 2.7025C9.51007 2.02579 9.13413 1.68743 8.6728 1.51041L8.66667 3.33341C8.66667 4.90475 8.66667 5.69043 9.1548 6.17858C9.643 6.66673 10.4287 6.66673 12 6.66673H14.3867C14.145 6.19725 13.7123 5.80776 12.9011 5.07777Z" fill="var(--fill-0, white)"/>
<path id="Vector_2" fill-rule="evenodd" clip-rule="evenodd" d="M6.66667 14.6667H9.33333C11.8475 14.6667 13.1046 14.6667 13.8856 13.8856C14.6667 13.1046 14.6667 11.8475 14.6667 9.33333V9.04193C14.6667 8.46007 14.6667 8.02293 14.6383 7.66673H12H11.9367C11.2053 7.6668 10.559 7.66687 10.0379 7.5968C9.4732 7.52087 8.90853 7.34653 8.44773 6.88567C7.98687 6.42484 7.81253 5.86019 7.7366 5.29544C7.66653 4.77443 7.6666 4.12805 7.66667 3.39665L7.6728 1.50705C7.673 1.45209 7.67773 1.39773 7.68667 1.34444C7.41427 1.33333 7.09053 1.33333 6.68653 1.33333C4.15913 1.33333 2.89543 1.33333 2.11438 2.11438C1.33333 2.89543 1.33333 4.15251 1.33333 6.66667V9.33333C1.33333 11.8475 1.33333 13.1046 2.11438 13.8856C2.89543 14.6667 4.15251 14.6667 6.66667 14.6667ZM5.32469 12.6981C5.51703 12.8784 5.81631 12.8784 6.00864 12.6981L7.342 11.4481C7.5434 11.2593 7.55367 10.9428 7.3648 10.7413C7.17593 10.5399 6.85947 10.5297 6.65803 10.7185L6.16667 11.1792V9C6.16667 8.72387 5.94281 8.5 5.66667 8.5C5.39053 8.5 5.16667 8.72387 5.16667 9V11.1792L4.67531 10.7185C4.47385 10.5297 4.15743 10.5399 3.96857 10.7413C3.7797 10.9428 3.78991 11.2593 3.99136 11.4481L5.32469 12.6981Z" fill="var(--fill-0, white)"/>
</g>
</svg>
