<svg preserveAspectRatio="none" width="100%" height="100%" overflow="visible" style="display: block;" viewBox="0 0 21.5 21.5" fill="none" xmlns="http://www.w3.org/2000/svg">
<path id="Vector 2" opacity="0.4" d="M10.75 0C4.81294 0 0 4.81294 0 10.75C0 16.6871 4.81294 21.5 10.75 21.5C12.1011 21.5 13.3957 21.2504 14.5889 20.7941C14.7063 20.7492 14.8105 20.6755 14.892 20.5799C15.2844 20.1191 15.7588 19.7026 16.296 19.3161C16.4589 19.1989 16.568 19.0213 16.5989 18.823C16.6299 18.6247 16.5801 18.4222 16.4606 18.261L16.174 17.8739C15.7109 17.2488 15.4375 16.4769 15.4375 15.6375C15.4375 13.5595 17.1221 11.875 19.2 11.875C19.6491 11.875 20.0782 11.9534 20.4756 12.0965C20.6975 12.1765 20.9442 12.1474 21.1414 12.0179C21.3386 11.8884 21.4634 11.6737 21.4783 11.4383C21.4927 11.2106 21.5 10.9811 21.5 10.75C21.5 4.81294 16.6871 0 10.75 0Z" fill="var(--fill-0, #9333EA)"/>
</svg>
