<svg width="20" height="20" viewBox="0 0 19.586 19.5861" fill="none" xmlns="http://www.w3.org/2000/svg">
<path d="M8.95833 1.25C4.70114 1.25 1.25 4.70114 1.25 8.95833C1.25 13.2155 4.70114 16.6667 8.95833 16.6667C9.04075 16.6667 9.12284 16.6654 9.2046 16.6628C9.54961 16.652 9.83806 16.9229 9.84888 17.2679C9.85969 17.6129 9.58878 17.9014 9.24377 17.9122C9.14897 17.9152 9.05382 17.9167 8.95833 17.9167C4.01078 17.9167 0 13.9059 0 8.95833C0 4.01078 4.01078 0 8.95833 0C13.9059 0 17.9167 4.01078 17.9167 8.95833C17.9167 9.05381 17.9152 9.14896 17.9122 9.24377C17.9014 9.58878 17.6129 9.85969 17.2679 9.84888C16.9229 9.83806 16.652 9.54961 16.6628 9.2046C16.6654 9.12285 16.6667 9.04075 16.6667 8.95833C16.6667 4.70114 13.2155 1.25 8.95833 1.25Z" fill="#613EE8"/>
<path d="M8.95833 4.86112C9.30351 4.86112 9.58333 5.14094 9.58333 5.48612V5.77885C9.74252 5.80778 9.89849 5.85124 10.0568 5.91404C10.3991 6.04979 10.7147 6.26164 11.0717 6.53196C11.3469 6.74033 11.4011 7.13234 11.1927 7.40753C10.9843 7.68271 10.5923 7.73688 10.3172 7.5285C9.9797 7.27298 9.77452 7.1468 9.59596 7.07598C9.43201 7.01095 9.25608 6.97916 8.95833 6.97916C8.52626 6.97916 8.23327 7.0815 8.06625 7.20246C7.91796 7.30986 7.84722 7.44293 7.84722 7.62618C7.84722 7.84288 7.93341 7.96316 8.13515 8.07609C8.37638 8.21113 8.70989 8.2833 9.06108 8.34184C9.40434 8.39904 9.93888 8.49614 10.3921 8.74984C10.8848 9.02564 11.3194 9.51356 11.3194 10.2905C11.3194 10.891 11.043 11.3939 10.5836 11.7266C10.2977 11.9337 9.95517 12.0661 9.58333 12.1335V12.4306C9.58333 12.7757 9.30351 13.0556 8.95833 13.0556C8.61316 13.0556 8.33333 12.7757 8.33333 12.4306V12.1378C8.17414 12.1089 8.01817 12.0654 7.85984 12.0026C7.51756 11.8668 7.20192 11.655 6.84493 11.3847C6.56974 11.1763 6.51558 10.7843 6.72395 10.5091C6.93233 10.2339 7.32433 10.1798 7.59952 10.3881C7.93697 10.6437 8.14216 10.7698 8.32072 10.8407C8.48467 10.9057 8.6606 10.9375 8.95833 10.9375C9.39041 10.9375 9.68339 10.8352 9.85042 10.7142C9.99871 10.6068 10.0694 10.4737 10.0694 10.2905C10.0694 10.0738 9.98326 9.9535 9.78152 9.84057C9.54029 9.70553 9.20678 9.63336 8.85559 9.57483C8.51233 9.51762 7.97779 9.42053 7.52458 9.16683C7.03187 8.89102 6.59722 8.4031 6.59722 7.62618C6.59722 7.02569 6.8737 6.52276 7.33305 6.19008C7.61897 5.98301 7.96149 5.8506 8.33333 5.78314V5.48612C8.33333 5.14094 8.61316 4.86112 8.95833 4.86112Z" fill="#613EE8"/>
<path d="M17.0377 13.8185C17.2411 14.0219 17.2411 14.3517 17.0377 14.5551L15.1279 16.4648C15.03 16.5628 14.8971 16.6176 14.7586 16.6174C14.6201 16.6171 14.4874 16.5616 14.3899 16.4633L13.244 15.308C13.0415 15.1038 13.0428 14.774 13.247 14.5715C13.4513 14.3689 13.781 14.3703 13.9836 14.5745L14.7612 15.3584L16.3011 13.8185C16.5045 13.6151 16.8343 13.6151 17.0377 13.8185Z" fill="#613EE8"/>
<path fill-rule="evenodd" clip-rule="evenodd" d="M10.6971 15.1417C10.6971 12.6871 12.687 10.6972 15.1416 10.6972C17.5962 10.6972 19.586 12.6871 19.586 15.1417C19.586 17.5963 17.5962 19.5861 15.1416 19.5861C12.687 19.5861 10.6971 17.5963 10.6971 15.1417ZM15.1416 11.9472C13.3773 11.9472 11.9471 13.3774 11.9471 15.1417C11.9471 16.9059 13.3773 18.3361 15.1416 18.3361C16.9058 18.3361 18.336 16.9059 18.336 15.1417C18.336 13.3774 16.9058 11.9472 15.1416 11.9472Z" fill="#613EE8"/>
</svg>
