<svg preserveAspectRatio="none" width="100%" height="100%" overflow="visible" style="display: block;" viewBox="0 0 17.9167 17.9194" fill="none" xmlns="http://www.w3.org/2000/svg">
<path id="Vector 1" fill-rule="evenodd" clip-rule="evenodd" d="M8.1864 0.0968476C8.69294 -0.0322825 9.22378 -0.0322825 9.73032 0.0968476C10.3059 0.243586 10.8178 0.612473 11.5597 1.14717C11.5929 1.17112 11.6266 1.19541 11.6608 1.22002L15.4399 3.94096C15.4663 3.96002 15.4925 3.97883 15.5183 3.99742C16.2552 4.52777 16.7298 4.86934 17.0788 5.3164C17.3871 5.71149 17.6177 6.16155 17.7581 6.64265C17.917 7.18705 17.9169 7.77178 17.9167 8.67973C17.9167 8.71153 17.9167 8.74374 17.9167 8.77635V12.6549C17.9167 13.4486 17.9167 14.0824 17.8749 14.5943C17.832 15.1193 17.742 15.5709 17.5307 15.9856C17.1911 16.652 16.6493 17.1938 15.9829 17.5334C15.5682 17.7447 15.1166 17.8347 14.5916 17.8776C14.0797 17.9194 13.4459 17.9194 12.6522 17.9194H5.2645C4.4708 17.9194 3.83702 17.9194 3.32514 17.8776C2.80013 17.8347 2.34856 17.7447 1.93381 17.5334C1.2674 17.1938 0.725596 16.652 0.386045 15.9856C0.174721 15.5709 0.0847343 15.1193 0.0418393 14.5943C1.65124e-05 14.0824 2.08342e-05 13.4486 2.62483e-05 12.6549L2.63477e-05 8.77635C2.63477e-05 8.74373 1.95925e-05 8.71153 1.29366e-05 8.67972C-0.000177451 7.77178 -0.000300085 7.18705 0.158623 6.64265C0.299068 6.16155 0.5296 5.71149 0.837967 5.3164C1.1869 4.86934 1.66151 4.52777 2.39844 3.99741C2.42426 3.97883 2.4504 3.96002 2.47687 3.94096L6.25594 1.22002C6.29012 1.19541 6.32381 1.17112 6.35704 1.14717C7.09895 0.612474 7.61079 0.243586 8.1864 0.0968476ZM9.42153 1.30811C9.11761 1.23063 8.79911 1.23063 8.49519 1.30811C8.1788 1.38876 7.87007 1.59813 6.98632 2.23443L3.20725 4.95538C2.36499 5.56181 2.04867 5.79682 1.82335 6.0855C1.61237 6.35583 1.45463 6.66376 1.35854 6.99293C1.25592 7.34446 1.25003 7.73848 1.25003 8.77635V12.6277C1.25003 13.4548 1.25051 14.0375 1.28769 14.4925C1.32427 14.9402 1.39323 15.2089 1.4998 15.4181C1.71951 15.8493 2.07009 16.1999 2.5013 16.4196C2.71046 16.5262 2.97922 16.5951 3.42693 16.6317C3.88193 16.6689 4.46464 16.6694 5.29169 16.6694H12.625C13.4521 16.6694 14.0348 16.6689 14.4898 16.6317C14.9375 16.5951 15.2063 16.5262 15.4154 16.4196C15.8466 16.1999 16.1972 15.8493 16.4169 15.4181C16.5235 15.2089 16.5925 14.9402 16.629 14.4925C16.6662 14.0375 16.6667 13.4548 16.6667 12.6277V8.77635C16.6667 7.73848 16.6608 7.34446 16.5582 6.99293C16.4621 6.66376 16.3044 6.35583 16.0934 6.0855C15.8681 5.79682 15.5517 5.56181 14.7095 4.95538L10.9304 2.23443C10.0467 1.59813 9.73792 1.38876 9.42153 1.30811Z" fill="var(--fill-0, #E9D5FF)"/>
</svg>
