<svg preserveAspectRatio="none" width="100%" height="100%" overflow="visible" style="display: block;" viewBox="0 0 21.5 23.5005" fill="none" xmlns="http://www.w3.org/2000/svg">
<path id="Vector 1" fill-rule="evenodd" clip-rule="evenodd" d="M7.117 9.85046e-08H14.383C15.4751 -5.08275e-06 16.3407 -9.19029e-06 17.0383 0.0569883C17.7517 0.115275 18.3553 0.236883 18.9065 0.51772C19.8002 0.973118 20.5269 1.69978 20.9823 2.59355C21.2631 3.14472 21.3847 3.74834 21.443 4.46173C21.5 5.15935 21.5 6.02484 21.5 7.11698V13.383C21.5 14.4752 21.5 15.3406 21.443 16.0383C21.3847 16.7517 21.2631 17.3553 20.9823 17.9065C20.5269 18.8002 19.8002 19.5269 18.9065 19.9823C18.3553 20.2631 17.7517 20.3847 17.0383 20.443C16.3406 20.5 15.4752 20.5 14.383 20.5L13.6561 20.5L12.7001 21.9646C12.492 22.2834 12.3085 22.5645 12.1401 22.7775C11.9662 22.9973 11.7435 23.2315 11.4266 23.3644C10.9938 23.5459 10.5062 23.5459 10.0734 23.3644C9.75646 23.2315 9.53375 22.9973 9.35993 22.7775C9.19144 22.5645 9.00805 22.2835 8.79995 21.9646L7.84392 20.5L7.11698 20.5C6.02484 20.5 5.15935 20.5 4.46173 20.443C3.74835 20.3847 3.14472 20.2631 2.59355 19.9823C1.69978 19.5269 0.973118 18.8002 0.51772 17.9065C0.236883 17.3553 0.115275 16.7517 0.0569883 16.0383C-9.19029e-06 15.3407 -5.08275e-06 14.4752 9.85046e-08 13.383V7.117C-5.08275e-06 6.02486 -9.19029e-06 5.15935 0.0569883 4.46173C0.115275 3.74835 0.236882 3.14472 0.51772 2.59355C0.973118 1.69978 1.69978 0.973118 2.59355 0.51772C3.14472 0.236883 3.74834 0.115275 4.46173 0.0569883C5.15935 -9.19029e-06 6.02487 -5.08275e-06 7.117 9.85046e-08ZM7.33972 4.64823L9.34432 7.33897C9.42776 7.45097 9.46948 7.50697 9.4837 7.56784C9.49624 7.62153 9.49374 7.67763 9.47649 7.72999C9.45693 7.78936 9.4104 7.84143 9.31735 7.94559L8.17217 9.22743C8.95224 10.8476 10.1523 12.0477 11.7725 12.8277L12.9662 11.6309C13.0707 11.5262 13.1229 11.4739 13.1841 11.451C13.2381 11.4308 13.2968 11.4266 13.3531 11.4389C13.417 11.4528 13.4761 11.4972 13.5943 11.586L16.3555 13.6592C16.4997 13.7674 16.5718 13.8215 16.6188 13.8799C16.767 14.0639 16.7935 14.3177 16.6865 14.5283C16.6525 14.5951 16.5931 14.6629 16.4744 14.7986L16.1321 15.1897C16.102 15.2242 16.0869 15.2414 16.0727 15.2572C15.3248 16.0879 14.1771 16.4339 13.0946 16.1551C13.0741 16.1498 13.046 16.1421 12.99 16.1268L12.9641 16.1198C11.9725 15.8487 11.0309 15.4201 10.1752 14.8504L10.1474 14.8319C8.5722 13.78 7.21997 12.4278 6.16814 10.8526L6.14958 10.8248C5.57988 9.96909 5.1513 9.02746 4.88021 8.03585L4.87316 8.01002C4.85788 7.95398 4.85023 7.92592 4.84494 7.90539C4.56611 6.82294 4.91213 5.67524 5.74281 4.92731C5.75857 4.91313 5.77582 4.89803 5.81026 4.86789L6.19964 4.52714C6.33519 4.40852 6.40297 4.34921 6.46967 4.31527C6.68111 4.20767 6.93608 4.23475 7.12021 4.38435C7.17829 4.43155 7.2321 4.50378 7.33972 4.64823Z" fill="var(--fill-0, #353566)"/>
</svg>
