<svg width="24" height="22" viewBox="0 0 23.4967 21.5" fill="none" xmlns="http://www.w3.org/2000/svg">
<path d="M0 10.75C0 4.81294 4.81294 0 10.75 0C11.434 0 12.1038 0.0639821 12.7534 0.186486C13.1604 0.263242 13.4282 0.655437 13.3514 1.06248C13.2747 1.46952 12.8825 1.73726 12.4754 1.66051C11.917 1.5552 11.3403 1.5 10.75 1.5C5.64137 1.5 1.5 5.64137 1.5 10.75C1.5 15.8586 5.64137 20 10.75 20C15.8586 20 20 15.8586 20 10.75C20 10.1597 19.9448 9.58301 19.8395 9.02456C19.7627 8.61753 20.0305 8.22533 20.4375 8.14857C20.8446 8.07182 21.2368 8.33956 21.3135 8.7466C21.436 9.39624 21.5 10.066 21.5 10.75C21.5 16.6871 16.6871 21.5 10.75 21.5C4.81294 21.5 0 16.6871 0 10.75Z" fill="#21C45D"/>
<path d="M10.75 5.83335C11.1642 5.83335 11.5 6.16913 11.5 6.58335V6.93462C11.691 6.96933 11.8782 7.02149 12.0682 7.09684C12.4789 7.25975 12.8577 7.51397 13.2861 7.83835C13.6163 8.0884 13.6813 8.55881 13.4313 8.88903C13.1812 9.21926 12.7108 9.28425 12.3806 9.0342C11.9756 8.72758 11.7294 8.57616 11.5152 8.49118C11.3184 8.41314 11.1073 8.375 10.75 8.375C10.2315 8.375 9.87993 8.4978 9.6795 8.64295C9.50155 8.77183 9.41667 8.93152 9.41667 9.15141C9.41667 9.41146 9.52009 9.5558 9.76218 9.69131C10.0517 9.85336 10.4519 9.93996 10.8733 10.0102C11.2852 10.0789 11.9267 10.1954 12.4705 10.4998C13.0618 10.8308 13.5833 11.4163 13.5833 12.3486C13.5833 13.0692 13.2516 13.6727 12.7003 14.0719C12.3572 14.3204 11.9462 14.4793 11.5 14.5602V14.9167C11.5 15.3309 11.1642 15.6667 10.75 15.6667C10.3358 15.6667 10 15.3309 10 14.9167V14.5654C9.80897 14.5307 9.6218 14.4785 9.4318 14.4031C9.02108 14.2402 8.6423 13.986 8.21391 13.6616C7.88369 13.4116 7.81869 12.9411 8.06874 12.6109C8.31879 12.2807 8.7892 12.2157 9.11942 12.4658C9.52437 12.7724 9.77059 12.9238 9.98486 13.0088C10.1816 13.0868 10.3927 13.125 10.75 13.125C11.2685 13.125 11.6201 13.0022 11.8205 12.857C11.9985 12.7282 12.0833 12.5685 12.0833 12.3486C12.0833 12.0885 11.9799 11.9442 11.7378 11.8087C11.4484 11.6466 11.0481 11.56 10.6267 11.4898C10.2148 11.4211 9.57335 11.3046 9.02949 11.0002C8.43824 10.6692 7.91667 10.0837 7.91667 9.15141C7.91667 8.43083 8.24845 7.82731 8.79966 7.4281C9.14276 7.17961 9.55379 7.02072 10 6.93977V6.58335C10 6.16913 10.3358 5.83335 10.75 5.83335Z" fill="#21C45D"/>
<path d="M23.2771 1.28356C23.57 0.990672 23.57 0.515798 23.2771 0.222905C22.9842 -0.0699884 22.5093 -0.0699884 22.2164 0.222905L17.7467 4.69257L15.7771 2.7229C15.4842 2.43001 15.0093 2.43001 14.7164 2.7229C14.4235 3.0158 14.4235 3.49067 14.7164 3.78356L17.2164 6.28357C17.5093 6.57646 17.9842 6.57646 18.2771 6.28357L23.2771 1.28356Z" fill="#21C45D"/>
</svg>
