<svg preserveAspectRatio="none" width="100%" height="100%" overflow="visible" style="display: block;" viewBox="0 0 21.4928 21.5138" fill="none" xmlns="http://www.w3.org/2000/svg">
<path id="Vector 1" fill-rule="evenodd" clip-rule="evenodd" d="M17.2167 12.9492C18.9605 11.9093 20.6721 10.3306 21.2909 8.02137C22.0017 5.36868 20.8244 2.42797 17.9488 1.65746C16.724 1.32928 15.685 1.55167 14.9028 1.91843C14.4087 1.20967 13.6201 0.49759 12.3953 0.169419C9.51972 -0.6011 7.02981 1.35699 6.31903 4.00967C6.09478 4.84659 6.04316 5.67377 6.11541 6.47158C5.47962 6.36154 4.75997 6.36899 3.97129 6.58031C0.754921 7.44214 -0.573208 10.7338 0.227501 13.7221C1.03608 16.7398 3.50243 18.6595 5.7948 19.8161C8.08848 20.9734 10.3782 21.454 11.1244 21.4988L11.3739 21.5138L11.5826 21.376C12.2064 20.9642 13.949 19.4031 15.3568 17.254C16.1619 16.0249 16.8914 14.5508 17.2167 12.9492ZM12.0071 1.61831C10.1121 1.11055 8.31606 2.3522 7.76792 4.3979C7.56571 5.15255 7.54051 5.90929 7.64615 6.65325C8.20431 5.92285 9.0532 5.2186 10.318 4.8797C10.7813 4.75556 11.2359 4.69467 11.6771 4.69032C14.2985 4.66443 16.4458 6.63495 17.1312 9.19279C17.2969 9.81124 17.3793 10.4246 17.3934 11.0274C18.5379 10.1617 19.4633 9.04656 19.842 7.63314C20.3901 5.58744 19.4555 3.6141 17.5605 3.10634C16.4717 2.8146 15.6177 3.16535 15.0575 3.55505L14.3283 4.06236L13.9504 3.25841C13.6602 2.64083 13.0959 1.91006 12.0071 1.61831ZM15.7603 9.90743C16.2451 12.2114 15.3544 14.5201 14.102 16.4321C12.9495 18.1916 11.5707 19.4911 10.9611 19.973C10.1922 19.8604 8.34839 19.4244 6.4705 18.4769C4.33351 17.3987 2.3225 15.7452 1.67639 13.3339C1.03832 10.9526 2.12378 8.62827 4.35952 8.0292C5.29384 7.77885 6.08231 7.9305 6.69582 8.20799L6.74165 8.22947C6.95265 8.3284 7.14252 8.44173 7.30899 8.55755L8.0382 9.06486L8.41612 8.2609C8.75686 7.53593 9.42268 6.67253 10.7063 6.32859C10.8459 6.29119 10.9849 6.26184 11.1232 6.24029C11.4692 6.18634 11.81 6.18117 12.1404 6.22038C13.7916 6.41633 15.1838 7.72063 15.6823 9.58102C15.7114 9.68984 15.7374 9.79865 15.7603 9.90743Z" fill="var(--fill-0, #9333EA)"/>
</svg>
