<svg preserveAspectRatio="none" width="100%" height="100%" overflow="visible" style="display: block;" viewBox="0 0 17.9167 17.9167" fill="none" xmlns="http://www.w3.org/2000/svg">
<path id="Vector 2" opacity="0.4" d="M12.6522 1.18661e-07H5.26449C4.47079 -5.17267e-06 3.837 -9.39704e-06 3.32511 0.0418132C2.8001 0.0847083 2.34853 0.174695 1.93378 0.386019C1.26738 0.72557 0.72557 1.26738 0.386019 1.93378C0.174695 2.34853 0.0847083 2.8001 0.0418132 3.32511C-9.39704e-06 3.837 -5.17267e-06 4.47078 1.18661e-07 5.26449V12.6522C-5.17266e-06 13.4459 -9.49328e-06 14.0797 0.0418132 14.5916C0.0847083 15.1166 0.174695 15.5681 0.386019 15.9829C0.72557 16.6493 1.26738 17.1911 1.93378 17.5306C2.34853 17.742 2.8001 17.832 3.32511 17.8749C3.83698 17.9167 4.47075 17.9167 5.26442 17.9167H9.58719C9.82756 17.9167 10.0466 17.7788 10.1506 17.5621C10.2547 17.3454 10.2252 17.0883 10.0748 16.9007C9.2456 15.8663 8.75 14.5544 8.75 13.125C8.75 9.78828 11.4549 7.08333 14.7917 7.08333C15.594 7.08333 16.3584 7.23941 17.0572 7.52227C17.2498 7.60025 17.4686 7.57736 17.641 7.46119C17.8133 7.34502 17.9167 7.15078 17.9167 6.94293V5.26447C17.9167 4.4708 17.9167 3.83698 17.8749 3.32511C17.832 2.8001 17.742 2.34853 17.5306 1.93378C17.1911 1.26738 16.6493 0.72557 15.9829 0.386019C15.5681 0.174695 15.1166 0.0847083 14.5916 0.0418132C14.0797 -9.49328e-06 13.4459 -5.17266e-06 12.6522 1.18661e-07Z" fill="var(--fill-0, #7E22CE)"/>
</svg>
