<svg preserveAspectRatio="none" width="100%" height="100%" overflow="visible" style="display: block;" viewBox="0 0 12.8333 12.8333" fill="none" xmlns="http://www.w3.org/2000/svg">
<g id="Group">
<path id="Vector" d="M6.41667 12.25C7.18285 12.2509 7.94167 12.1005 8.64953 11.8073C9.35738 11.5141 10.0003 11.0839 10.5414 10.5414C11.0839 10.0003 11.5141 9.35738 11.8073 8.64953C12.1005 7.94167 12.2509 7.18285 12.25 6.41667C12.2509 5.65049 12.1005 4.89167 11.8073 4.18381C11.5141 3.47596 11.0839 2.83301 10.5414 2.29192C10.0003 1.74947 9.35738 1.31928 8.64953 1.02606C7.94167 0.732849 7.18285 0.582393 6.41667 0.583338C5.65049 0.582393 4.89167 0.732849 4.18381 1.02606C3.47596 1.31928 2.83301 1.74947 2.29192 2.29192C1.74947 2.83301 1.31928 3.47596 1.02606 4.18381C0.732849 4.89167 0.582393 5.65049 0.583338 6.41667C0.582393 7.18285 0.732849 7.94167 1.02606 8.64953C1.31928 9.35738 1.74947 10.0003 2.29192 10.5414C2.83301 11.0839 3.47596 11.5141 4.18381 11.8073C4.89167 12.1005 5.65049 12.2509 6.41667 12.25Z" fill="var(--fill-0, white)" stroke="var(--stroke-0, white)" stroke-width="1.16667" stroke-linejoin="round"/>
<path id="Vector_2" d="M4.08334 6.41683L5.83334 8.16683L9.33334 4.66683" stroke="var(--stroke-0, black)" stroke-width="1.16667" stroke-linecap="round" stroke-linejoin="round"/>
</g>
</svg>
