<svg preserveAspectRatio="none" width="100%" height="100%" overflow="visible" style="display: block;" viewBox="0 0 21.5002 21.5" fill="none" xmlns="http://www.w3.org/2000/svg">
<g id="phone-ringing-1--android-phone-mobile-device-smartphone-iphone-ringing-incoming-call">
<path id="Intersect" d="M15.393 5.737C16.5649 4.71599 18.2811 4.89902 19.2042 6.14946C19.3423 6.33668 19.5088 6.55559 19.7245 6.82545C21.0934 8.53768 21.0934 11.017 19.7169 12.7231C18.7009 13.9826 17.6355 15.2536 16.4446 16.4445C15.2538 17.6354 13.9828 18.7007 12.7233 19.7168C11.0171 21.0931 8.53788 21.0931 6.82564 19.7244C6.52232 19.4819 6.28418 19.3024 6.0833 19.1556C4.87137 18.2703 4.66586 16.6122 5.64736 15.4766C6.09418 14.9598 6.56781 14.4586 7.03485 13.9668C7.67993 13.2877 8.78729 13.2121 9.49401 13.8269C9.61806 13.9348 9.77575 14.0774 9.99386 14.2819C11.9524 13.118 13.1394 11.9165 14.2821 9.99367C14.0739 9.77162 13.9297 9.61197 13.8208 9.48665C13.2072 8.7803 13.2823 7.67626 13.9658 7.03739C14.4335 6.60025 14.9078 6.15986 15.393 5.737Z" stroke="var(--stroke-0, #C71DFF)" stroke-width="1.5" stroke-linecap="round" stroke-linejoin="round"/>
<path id="Ellipse 348" d="M5.71063 8.99914C5.88946 8.10524 6.36617 7.26511 7.12501 6.64072C7.91451 5.9911 8.87436 5.68613 9.82214 5.70808" stroke="var(--stroke-0, #000CFE)" stroke-width="1.5" stroke-linecap="round" stroke-linejoin="round"/>
<path id="Ellipse 349" d="M0.750145 8.17973C1.15373 6.1624 2.22956 4.26638 3.94211 2.85726C5.72385 1.39121 7.89006 0.702953 10.029 0.752492" stroke="var(--stroke-0, #000CFE)" stroke-width="1.5" stroke-linecap="round" stroke-linejoin="round"/>
</g>
</svg>
