<svg preserveAspectRatio="none" width="100%" height="100%" overflow="visible" style="display: block;" viewBox="0 0 24 24" fill="none" xmlns="http://www.w3.org/2000/svg">
<g id="Group">
<g id="Path">
</g>
<path id="Path_2" d="M12.94 11.06L5.87 18.13" stroke="url(#paint0_linear_377_53823)" stroke-width="1.5" stroke-linecap="round" stroke-linejoin="round"/>
<path id="Path_3" d="M6.633 12.999L3.17 12.181C2.789 12.091 2.655 11.618 2.931 11.341L5.685 8.587C5.87 8.402 6.121 8.296 6.384 8.294L9.489 8.267" stroke="url(#paint1_linear_377_53823)" stroke-width="1.5" stroke-linecap="round" stroke-linejoin="round"/>
<path id="Path_4" fill-rule="evenodd" clip-rule="evenodd" d="M19.879 8.975L20.687 5.087C20.907 4.029 19.971 3.093 18.913 3.313L15.025 4.121C13.88 4.359 12.83 4.926 12.004 5.753L8.814 8.942C7.597 10.159 6.805 11.737 6.555 13.44L6.544 13.513C6.386 14.6 6.75 15.697 7.526 16.474V16.474C8.302 17.25 9.4 17.614 10.487 17.455L10.56 17.444C12.263 17.195 13.841 16.402 15.058 15.185L18.247 11.996C19.074 11.17 19.641 10.12 19.879 8.975V8.975Z" stroke="url(#paint2_linear_377_53823)" stroke-width="1.5" stroke-linecap="round" stroke-linejoin="round"/>
<path id="Path_5" d="M13.4 4.714C15.711 6.29 17.71 8.289 19.286 10.6" stroke="url(#paint3_linear_377_53823)" stroke-width="1.5" stroke-linecap="round" stroke-linejoin="round"/>
<path id="Path_6" d="M11 17.367L11.818 20.83C11.908 21.211 12.381 21.345 12.658 21.069L15.412 18.315C15.597 18.13 15.703 17.879 15.705 17.616L15.732 14.511" stroke="url(#paint4_linear_377_53823)" stroke-width="1.5" stroke-linecap="round" stroke-linejoin="round"/>
</g>
<defs>
<linearGradient id="paint0_linear_377_53823" x1="13.8238" y1="17.6145" x2="3.36604" y2="15.3315" gradientUnits="userSpaceOnUse">
<stop stop-color="#1146F2"/>
<stop offset="1" stop-color="#873AE3"/>
</linearGradient>
<linearGradient id="paint1_linear_377_53823" x1="10.327" y1="12.654" x2="0.844794" y2="9.72109" gradientUnits="userSpaceOnUse">
<stop stop-color="#1146F2"/>
<stop offset="1" stop-color="#873AE3"/>
</linearGradient>
<linearGradient id="paint2_linear_377_53823" x1="22.4958" y1="16.4554" x2="1.47454" y2="11.8661" gradientUnits="userSpaceOnUse">
<stop stop-color="#1146F2"/>
<stop offset="1" stop-color="#873AE3"/>
</linearGradient>
<linearGradient id="paint3_linear_377_53823" x1="20.0218" y1="10.1708" x2="11.3154" y2="8.27013" gradientUnits="userSpaceOnUse">
<stop stop-color="#1146F2"/>
<stop offset="1" stop-color="#873AE3"/>
</linearGradient>
<linearGradient id="paint4_linear_377_53823" x1="16.3235" y1="20.7264" x2="9.16056" y2="19.6227" gradientUnits="userSpaceOnUse">
<stop stop-color="#1146F2"/>
<stop offset="1" stop-color="#873AE3"/>
</linearGradient>
</defs>
</svg>
