<svg preserveAspectRatio="none" width="100%" height="100%" overflow="visible" style="display: block;" viewBox="0 0 24.01 24.01" fill="none" xmlns="http://www.w3.org/2000/svg">
<g id="Group">
<path id="Path" d="M14.0459 9.96415L11.5348 12.4752" stroke="url(#paint0_linear_377_53812)" stroke-width="1.5" stroke-linecap="round" stroke-linejoin="round"/>
<path id="Path_2" fill-rule="evenodd" clip-rule="evenodd" d="M14.0058 6.0025V10.0042H18.0075L22.0092 6.0025L19.3411 4.66894L18.0075 2.00083L14.0058 6.0025Z" stroke="url(#paint1_linear_377_53812)" stroke-width="1.5" stroke-linecap="round" stroke-linejoin="round"/>
<path id="Path_3" d="M11.0046 3.97666C6.44108 4.25675 2.9114 8.08753 3.00498 12.6587C3.09857 17.2298 6.78208 20.9129 11.3532 21.006C15.9244 21.0991 19.7548 17.5689 20.0343 13.0054" stroke="url(#paint2_linear_377_53812)" stroke-width="1.5" stroke-linecap="round" stroke-linejoin="round"/>
<path id="Path_4" d="M16.2168 13.0054C15.9478 15.4685 13.8225 17.306 11.3464 17.2161C8.87024 17.1263 6.88367 15.1398 6.79386 12.6636C6.70404 10.1875 8.54147 8.06222 11.0046 7.79325" stroke="url(#paint3_linear_377_53812)" stroke-width="1.5" stroke-linecap="round" stroke-linejoin="round"/>
<g id="Path_5">
</g>
</g>
<defs>
<linearGradient id="paint0_linear_377_53812" x1="14.3597" y1="12.2921" x2="10.6455" y2="11.4812" gradientUnits="userSpaceOnUse">
<stop stop-color="#1146F2"/>
<stop offset="1" stop-color="#873AE3"/>
</linearGradient>
<linearGradient id="paint1_linear_377_53812" x1="23.0096" y1="9.42059" x2="11.1713" y2="6.83618" gradientUnits="userSpaceOnUse">
<stop stop-color="#1146F2"/>
<stop offset="1" stop-color="#873AE3"/>
</linearGradient>
<linearGradient id="paint2_linear_377_53812" x1="22.1632" y1="19.7659" x2="-3.02871" y2="14.2663" gradientUnits="userSpaceOnUse">
<stop stop-color="#1146F2"/>
<stop offset="1" stop-color="#873AE3"/>
</linearGradient>
<linearGradient id="paint3_linear_377_53812" x1="17.395" y1="16.532" x2="3.45231" y2="13.4882" gradientUnits="userSpaceOnUse">
<stop stop-color="#1146F2"/>
<stop offset="1" stop-color="#873AE3"/>
</linearGradient>
</defs>
</svg>
