<svg width="24" height="24" viewBox="0 0 24 24" fill="none" xmlns="http://www.w3.org/2000/svg">
<g clip-path="url(#clip0_232_32940)">
<path opacity="0.4" d="M11 0.25C5.06294 0.25 0.25 5.06294 0.25 11C0.25 16.9371 5.06294 21.75 11 21.75C12.3511 21.75 13.6457 21.5004 14.8389 21.0441C14.9563 20.9992 15.0605 20.9255 15.142 20.8299C15.5344 20.3691 16.0088 19.9526 16.546 19.5661C16.7089 19.4489 16.818 19.2713 16.8489 19.073C16.8799 18.8747 16.8301 18.6722 16.7106 18.511L16.424 18.1239C15.9609 17.4988 15.6875 16.7269 15.6875 15.8875C15.6875 13.8095 17.3721 12.125 19.45 12.125C19.8991 12.125 20.3282 12.2034 20.7256 12.3465C20.9475 12.4265 21.1942 12.3974 21.3914 12.2679C21.5886 12.1384 21.7134 11.9237 21.7283 11.6883C21.7427 11.4606 21.75 11.2311 21.75 11C21.75 5.06294 16.9371 0.25 11 0.25Z" fill="#9333EA"/>
<path d="M10.9994 6.08301C11.4136 6.08301 11.7494 6.41879 11.7494 6.83301V7.18428C11.9404 7.21899 12.1276 7.27115 12.3176 7.34651C12.7283 7.50941 13.1071 7.76363 13.5355 8.08802C13.8657 8.33806 13.9307 8.80847 13.6807 9.13869C13.4306 9.46892 12.9602 9.53392 12.63 9.28387C12.225 8.97724 11.9788 8.82582 11.7645 8.74084C11.5678 8.66281 11.3567 8.62466 10.9994 8.62466C10.4809 8.62466 10.1293 8.74746 9.92889 8.89262C9.75094 9.0215 9.66606 9.18118 9.66606 9.40108C9.66606 9.66112 9.76948 9.80546 10.0116 9.94097C10.301 10.103 10.7013 10.1896 11.1227 10.2599C11.5346 10.3285 12.176 10.445 12.7199 10.7495C13.3112 11.0804 13.8327 11.6659 13.8327 12.5982C13.8327 13.3188 13.5009 13.9224 12.9497 14.3216C12.6066 14.57 12.1956 14.7289 11.7494 14.8099V15.1663C11.7494 15.5805 11.4136 15.9163 10.9994 15.9163C10.5852 15.9163 10.2494 15.5805 10.2494 15.1663V14.815C10.0584 14.7803 9.87119 14.7282 9.68119 14.6528C9.27047 14.4899 8.89169 14.2356 8.4633 13.9113C8.13308 13.6612 8.06808 13.1908 8.31813 12.8606C8.56818 12.5304 9.03859 12.4654 9.36881 12.7154C9.77376 13.022 10.02 13.1735 10.2343 13.2585C10.431 13.3365 10.6421 13.3747 10.9994 13.3747C11.5179 13.3747 11.8695 13.2519 12.0699 13.1067C12.2478 12.9778 12.3327 12.8181 12.3327 12.5982C12.3327 12.3382 12.2293 12.1939 11.9872 12.0583C11.6977 11.8963 11.2975 11.8097 10.8761 11.7395C10.4642 11.6708 9.82274 11.5543 9.27888 11.2499C8.68763 10.9189 8.16606 10.3334 8.16606 9.40108C8.16606 8.68049 8.49784 8.07697 9.04905 7.67776C9.39215 7.42928 9.80318 7.27038 10.2494 7.18944V6.83301C10.2494 6.41879 10.5852 6.08301 10.9994 6.08301Z" fill="#9333EA"/>
<path d="M19.336 19.753C17.4123 19.753 15.6522 21.0636 15.1851 22.8784C15.1466 23.0281 15.1794 23.1872 15.2741 23.3094C15.3689 23.4315 15.5147 23.503 15.6693 23.503H23.0026C23.1572 23.503 23.3031 23.4315 23.3978 23.3094C23.4925 23.1872 23.5254 23.0281 23.4869 22.8784C23.0198 21.0636 21.2596 19.753 19.336 19.753Z" fill="#9333EA"/>
<path d="M16.7734 15.8988C16.7734 14.4836 17.9207 13.3363 19.3359 13.3363C20.7512 13.3363 21.8984 14.4836 21.8984 15.8988C21.8984 17.3141 20.7512 18.4613 19.3359 18.4613C17.9207 18.4613 16.7734 17.3141 16.7734 15.8988Z" fill="#9333EA"/>
</g>
<defs>
<clipPath id="clip0_232_32940">
<rect width="24" height="24" fill="white"/>
</clipPath>
</defs>
</svg>
