<svg preserveAspectRatio="none" width="100%" height="100%" overflow="visible" style="display: block;" viewBox="0 0 17.1667 17.1667" fill="none" xmlns="http://www.w3.org/2000/svg">
<g id="Group">
<path id="Vector" d="M8.58333 16.5833C9.6341 16.5846 10.6748 16.3783 11.6455 15.9762C12.6163 15.574 13.4981 14.9841 14.2401 14.2401C14.9841 13.4981 15.574 12.6163 15.9762 11.6455C16.3783 10.6748 16.5846 9.6341 16.5833 8.58333C16.5846 7.53257 16.3783 6.49191 15.9762 5.52113C15.574 4.55036 14.9841 3.66861 14.2401 2.92654C13.4981 2.1826 12.6163 1.59263 11.6455 1.19051C10.6748 0.788384 9.6341 0.582044 8.58333 0.583339C7.53257 0.582044 6.49191 0.788384 5.52113 1.19051C4.55036 1.59263 3.66861 2.1826 2.92654 2.92654C2.1826 3.66861 1.59263 4.55036 1.19051 5.52113C0.788384 6.49191 0.582044 7.53257 0.583339 8.58333C0.582044 9.6341 0.788384 10.6748 1.19051 11.6455C1.59263 12.6163 2.1826 13.4981 2.92654 14.2401C3.66861 14.9841 4.55036 15.574 5.52113 15.9762C6.49191 16.3783 7.53257 16.5846 8.58333 16.5833Z" fill="var(--fill-0, white)" stroke="var(--stroke-0, white)" stroke-width="1.16667" stroke-linejoin="round"/>
<path id="Vector_2" d="M5.38346 8.58359L7.78346 10.9836L12.5835 6.18359" stroke="var(--stroke-0, black)" stroke-width="1.16667" stroke-linecap="round" stroke-linejoin="round"/>
</g>
</svg>
