<svg width="22" height="22" viewBox="0 0 22 22" fill="none" xmlns="http://www.w3.org/2000/svg">
  <path d="M15.7929 5.70711C15.4024 5.31658 15.4024 4.68342 15.7929 4.29289C16.1834 3.90237 16.8166 3.90237 17.2071 4.29289L21.7071 8.79289C22.0976 9.18342 22.0976 9.81658 21.7071 10.2071L17.2071 14.7071C16.8166 15.0976 16.1834 15.0976 15.7929 14.7071C15.4024 14.3166 15.4024 13.6834 15.7929 13.2929L18.5858 10.5H1C0.447715 10.5 0 10.0523 0 9.5C0 8.94772 0.447715 8.5 1 8.5H18.5858L15.7929 5.70711Z" fill="#9333EA"/>
  <path opacity="0.4" d="M6.20711 5.70711C6.59763 5.31658 6.59763 4.68342 6.20711 4.29289C5.81658 3.90237 5.18342 3.90237 4.79289 4.29289L0.292893 8.79289C-0.0976311 9.18342 -0.0976311 9.81658 0.292893 10.2071L4.79289 14.7071C5.18342 15.0976 5.81658 15.0976 6.20711 14.7071C6.59763 14.3166 6.59763 13.6834 6.20711 13.2929L3.41421 10.5H21C21.5523 10.5 22 10.0523 22 9.5C22 8.94772 21.5523 8.5 21 8.5H3.41421L6.20711 5.70711Z" fill="#9333EA"/>
</svg>
