<svg preserveAspectRatio="none" width="100%" height="100%" overflow="visible" style="display: block;" viewBox="0 0 28 30.3333" fill="none" xmlns="http://www.w3.org/2000/svg">
<g id="coffee-mug--coffee-cook-cup-drink-mug-cooking-nutrition-cafe-caffeine-food">
<path id="Union" fill-rule="evenodd" clip-rule="evenodd" d="M14.3333 0C13.5969 0 13 0.596953 13 1.33333V6C13 6.7364 13.5969 7.33333 14.3333 7.33333C15.0697 7.33333 15.6667 6.7364 15.6667 6V1.33333C15.6667 0.596953 15.0697 0 14.3333 0ZM6.21307 30.1805C7.49533 30.2723 9.07227 30.3333 11 30.3333C12.9277 30.3333 14.5047 30.2723 15.7869 30.1805C18.9342 29.9549 21.1471 27.8583 21.7721 25H22.7547C25.2912 25 27.7523 23.2319 27.9428 20.3853C27.9779 19.8603 28 19.2846 28 18.6667C28 18.0487 27.9779 17.473 27.9428 16.9481C27.7523 14.1015 25.2912 12.3333 22.7547 12.3333H21.6629C21.4059 11.1802 20.5035 10.2936 19.2778 10.112C17.8612 9.90213 15.3134 9.66667 11 9.66667C6.6866 9.66667 4.13879 9.90213 2.72219 10.112C1.37317 10.3119 0.41566 11.3658 0.279407 12.6891C0.145253 13.9922 0 16.264 0 20C0 21.3942 0.0202267 22.5753 0.0525467 23.5727C0.168087 27.1387 2.56176 29.9188 6.21307 30.1805ZM21.9206 15.6667C21.9682 16.8244 22 18.2519 22 20C22 20.5934 21.9963 21.1482 21.9897 21.6667H22.7547C23.8619 21.6667 24.5641 20.9517 24.6169 20.1627C24.6474 19.7067 24.6667 19.2053 24.6667 18.6667C24.6667 18.128 24.6474 17.6267 24.6169 17.1707C24.5641 16.3817 23.8619 15.6667 22.7547 15.6667H21.9206ZM7.66667 2.66667C7.66667 1.93029 8.2636 1.33333 9 1.33333C9.7364 1.33333 10.3333 1.93029 10.3333 2.66667V7.33333C10.3333 8.06973 9.7364 8.66667 9 8.66667C8.2636 8.66667 7.66667 8.06973 7.66667 7.33333V2.66667Z" fill="var(--fill-0, #121212)"/>
</g>
</svg>
