<svg preserveAspectRatio="none" width="100%" height="100%" overflow="visible" style="display: block;" viewBox="0 0 28.6667 28.6667" fill="none" xmlns="http://www.w3.org/2000/svg">
<path id="Vector 2" opacity="0.4" d="M20.2435 1.89858e-07H8.42318C7.15326 -8.27628e-06 6.13919 -1.50353e-05 5.32018 0.0669012C4.48016 0.135533 3.75765 0.279512 3.09405 0.61763C2.0278 1.16091 1.16091 2.0278 0.61763 3.09405C0.279512 3.75765 0.135533 4.48016 0.0669012 5.32018C-1.50353e-05 6.13919 -8.27628e-06 7.15325 1.89858e-07 8.42318V20.2435C-8.27625e-06 21.5134 -1.51892e-05 22.5275 0.0669012 23.3465C0.135533 24.1865 0.279512 24.909 0.61763 25.5726C1.16091 26.6389 2.0278 27.5058 3.09405 28.049C3.75765 28.3872 4.48016 28.5311 5.32018 28.5998C6.13917 28.6667 7.1532 28.6667 8.42307 28.6667H20.2435C21.5134 28.6667 22.5275 28.6667 23.3465 28.5998C24.1865 28.5311 24.909 28.3872 25.5726 28.049C26.6389 27.5058 27.5058 26.6389 28.049 25.5726C28.3872 24.909 28.5311 24.1865 28.5998 23.3465C28.6667 22.5275 28.6667 21.5135 28.6667 20.2436V8.42316C28.6667 7.15329 28.6667 6.13917 28.5998 5.32018C28.5311 4.48016 28.3872 3.75765 28.049 3.09405C27.5058 2.0278 26.6389 1.16091 25.5726 0.61763C24.909 0.279512 24.1865 0.135533 23.3465 0.0669012C22.5275 -1.51892e-05 21.5134 -8.27625e-06 20.2435 1.89858e-07Z" fill="var(--fill-0, #9333EA)"/>
</svg>
