<svg preserveAspectRatio="none" width="100%" height="100%" overflow="visible" style="display: block;" viewBox="0 0 20 20" fill="none" xmlns="http://www.w3.org/2000/svg">
<g id="Positive">
<rect width="20" height="20" rx="10" fill="var(--fill-0, #21C45D)"/>
<path id="Vector 37 (Stroke)" fill-rule="evenodd" clip-rule="evenodd" d="M14.9321 6.64938C15.262 6.99264 15.2512 7.53839 14.908 7.86835L8.92921 13.6153L5.09202 9.92688C4.74876 9.59692 4.73797 9.05117 5.06792 8.70791C5.39787 8.36464 5.94362 8.35385 6.28689 8.68381L8.92921 11.2237L13.7131 6.62527C14.0564 6.29532 14.6021 6.30611 14.9321 6.64938Z" fill="var(--fill-0, #21C45D)"/>
<path id="Vector 37 (Stroke)_2" fill-rule="evenodd" clip-rule="evenodd" d="M14.5689 6.9107C14.8745 7.2272 14.8645 7.73038 14.5465 8.0346L9.00813 13.3333L5.45357 9.93259C5.13559 9.62837 5.12559 9.12518 5.43124 8.80869C5.73689 8.4922 6.24244 8.48225 6.56043 8.78647L9.00813 11.1282L13.4397 6.88848C13.7577 6.58426 14.2632 6.59421 14.5689 6.9107Z" fill="var(--fill-0, white)"/>
</g>
</svg>
