<svg width="20" height="20" viewBox="0 0 19.5833 19.5833" fill="none" xmlns="http://www.w3.org/2000/svg">
  <path opacity="0.4" d="M12.6522 1.18661e-07H5.26449C4.47079 -5.17267e-06 3.837 -9.39704e-06 3.32511 0.0418132C2.8001 0.0847083 2.34853 0.174695 1.93378 0.386019C1.26738 0.72557 0.72557 1.26738 0.386019 1.93378C0.174695 2.34853 0.0847083 2.8001 0.0418132 3.32511C-9.39704e-06 3.837 -5.17267e-06 4.47078 1.18661e-07 5.26449V12.6522C-5.17266e-06 13.4459 -9.49328e-06 14.0797 0.0418132 14.5916C0.0847083 15.1166 0.174695 15.5681 0.386019 15.9829C0.72557 16.6493 1.26738 17.1911 1.93378 17.5306C2.34853 17.742 2.8001 17.832 3.32511 17.8749C3.83698 17.9167 4.47075 17.9167 5.26442 17.9167H9.58719C9.82756 17.9167 10.0466 17.7788 10.1506 17.5621C10.2547 17.3454 10.2252 17.0883 10.0748 16.9007C9.2456 15.8663 8.75 14.5544 8.75 13.125C8.75 9.78828 11.4549 7.08333 14.7917 7.08333C15.594 7.08333 16.3584 7.23941 17.0572 7.52227C17.2498 7.60025 17.4686 7.57736 17.641 7.46119C17.8133 7.34502 17.9167 7.15078 17.9167 6.94293V5.26447C17.9167 4.4708 17.9167 3.83698 17.8749 3.32511C17.832 2.8001 17.742 2.34853 17.5306 1.93378C17.1911 1.26738 16.6493 0.72557 15.9829 0.386019C15.5681 0.174695 15.1166 0.0847083 14.5916 0.0418132C14.0797 -9.49328e-06 13.4459 -5.17266e-06 12.6522 1.18661e-07Z" fill="#7E22CE"/>
  <path d="M5.625 0C5.97018 0 6.25 0.279822 6.25 0.625V1.66667H11.6667V0.625C11.6667 0.279822 11.9465 0 12.2917 0C12.6368 0 12.9167 0.279822 12.9167 0.625V1.66673C13.5884 1.6672 14.1378 1.67141 14.5915 1.70848C15.1165 1.75138 15.5681 1.84136 15.9829 2.05269C16.6493 2.39224 17.1911 2.93404 17.5306 3.60045C17.742 4.0152 17.8319 4.46677 17.8748 4.99178C17.9133 5.46225 17.9164 6.03569 17.9166 6.74162C17.9166 6.7883 17.9167 6.81165 17.9076 6.82948C17.8996 6.84516 17.8868 6.85792 17.8712 6.86591C17.8533 6.875 17.83 6.875 17.7833 6.875H0.133318C0.0866442 6.875 0.063307 6.875 0.0454778 6.86591C0.0297983 6.85792 0.0170441 6.84516 0.00905837 6.82948C-2.15873e-05 6.81165 -1.39904e-05 6.78831 1.20598e-06 6.74163C0.00024928 6.0357 0.00335582 5.46225 0.0417946 4.99178C0.0846896 4.46677 0.174676 4.0152 0.386 3.60045C0.725552 2.93404 1.26736 2.39224 1.93377 2.05269C2.34851 1.84136 2.80008 1.75138 3.32509 1.70848C3.7788 1.67141 4.32828 1.6672 5 1.66673V0.625C5 0.279822 5.27982 0 5.625 0Z" fill="#7E22CE"/>
  <path d="M4.375 11.0417C4.375 10.5814 4.7481 10.2083 5.20833 10.2083C5.66857 10.2083 6.04175 10.5814 6.04175 11.0417C6.04175 11.5019 5.66866 11.875 5.20842 11.875C4.74818 11.875 4.375 11.5019 4.375 11.0417Z" fill="#7E22CE"/>
  <path d="M8.95834 10.2083C8.4981 10.2083 8.125 10.5814 8.125 11.0417C8.125 11.5019 8.4981 11.875 8.95834 11.875C9.41857 11.875 9.79175 11.5019 9.79175 11.0417C9.79175 10.5814 9.41857 10.2083 8.95834 10.2083Z" fill="#7E22CE"/>
  <path d="M4.375 14.375C4.375 13.9148 4.7481 13.5417 5.20833 13.5417C5.66857 13.5417 6.04175 13.9148 6.04175 14.375C6.04175 14.8352 5.66866 15.2083 5.20842 15.2083C4.74818 15.2083 4.375 14.8352 4.375 14.375Z" fill="#7E22CE"/>
  <path fill-rule="evenodd" clip-rule="evenodd" d="M14.7917 10C12.1453 10 10 12.1453 10 14.7917C10 17.438 12.1453 19.5833 14.7917 19.5833C17.438 19.5833 19.5833 17.438 19.5833 14.7917C19.5833 12.1453 17.438 10 14.7917 10ZM16.8266 13.3817C17.03 13.5851 17.03 13.9149 16.8266 14.1183L14.7433 16.2016C14.6453 16.2996 14.5124 16.3545 14.3739 16.3542C14.2354 16.3539 14.1027 16.2984 14.0052 16.2001L12.7552 14.9398C12.5526 14.7356 12.554 14.4058 12.7582 14.2033C12.9625 14.0007 13.2922 14.002 13.4948 14.2063L14.3765 15.0953L16.0901 13.3817C16.2934 13.1783 16.6232 13.1783 16.8266 13.3817Z" fill="#7E22CE"/>
</svg>
