<svg preserveAspectRatio="none" width="100%" height="100%" overflow="visible" style="display: block;" viewBox="0 0 21.8047 16.5763" fill="none" xmlns="http://www.w3.org/2000/svg">
<g id="snail-speed-slow-fill">
<path id="Union" d="M4.54004 1.92594C7.16019 -0.693967 11.4275 -0.633117 13.9717 2.06071L14.4033 2.51774C14.9172 3.06184 15.3289 3.66603 15.6406 4.30582C15.6932 4.24427 15.7481 4.18487 15.8047 4.12711V0.576333H17.8047V3.11149C17.9679 3.08817 18.1351 3.07633 18.3047 3.07633C18.4744 3.07635 18.6414 3.08811 18.8047 3.11149V0.576333H20.8047V4.12809C21.4228 4.75928 21.8047 5.62313 21.8047 6.57633V9.57633C21.8047 13.4421 18.6705 16.5761 14.8047 16.5763H0L0.957028 15.046C1.92911 13.4909 3.31034 12.2767 4.91309 11.5089C4.70271 11.3567 4.50104 11.1867 4.31153 10.9972C1.87003 8.55533 1.86978 4.5962 4.31153 2.15445L4.54004 1.92594ZM12.5176 3.43375C10.7473 1.55947 7.77837 1.51743 5.95508 3.34L5.72657 3.56949C4.06575 5.23031 4.06575 7.92233 5.72657 9.58313C6.87453 10.7307 8.73494 10.7309 9.88279 9.58313L10.3477 9.11933C10.9233 8.54343 10.9233 7.60933 10.3477 7.03333L9.84769 6.53333C9.54789 6.23363 9.06157 6.23373 8.76172 6.53333L8.51172 6.78333C8.35002 6.94513 8.34998 7.20753 8.51172 7.36933L7.09766 8.78333C6.15487 7.84053 6.1549 6.31213 7.09766 5.3693L7.34766 5.1193C8.42856 4.03864 10.1809 4.03849 11.2617 5.1193L11.7617 5.61933C13.1184 6.97623 13.1184 9.17643 11.7617 10.5333L11.7188 10.5763H12.0547C12.6588 10.5762 13.2153 10.3783 13.669 10.048C14.7907 8.10923 14.5573 5.59483 12.9492 3.89176L12.5176 3.43375Z" fill="var(--fill-0, white)"/>
</g>
</svg>
