<svg width="24" height="24" viewBox="0 0 24 24" fill="none" xmlns="http://www.w3.org/2000/svg">
<path opacity="0.4" d="M12 2C11.4477 2 11 2.44772 11 3V20.5C11 21.0523 11.4477 21.5 12 21.5C12.5523 21.5 13 21.0523 13 20.5V3C13 2.44772 12.5523 2 12 2Z" fill="#F97415"/>
<path d="M20.2071 12.7929C19.8166 12.4024 19.1834 12.4024 18.7929 12.7929L12 19.5858L5.20711 12.7929C4.81658 12.4024 4.18342 12.4024 3.79289 12.7929C3.40237 13.1834 3.40237 13.8166 3.79289 14.2071L11.2929 21.7071C11.6834 22.0976 12.3166 22.0976 12.7071 21.7071L20.2071 14.2071C20.5976 13.8166 20.5976 13.1834 20.2071 12.7929Z" fill="#F97415"/>
</svg>
