<svg preserveAspectRatio="none" width="100%" height="100%" overflow="visible" style="display: block;" viewBox="0 0 21.5 19.5" fill="none" xmlns="http://www.w3.org/2000/svg">
<g id="Vector 1">
<path fill-rule="evenodd" clip-rule="evenodd" d="M16.25 0C14.4551 0 13 1.45507 13 3.25C13 5.04493 14.4551 6.5 16.25 6.5C18.0449 6.5 19.5 5.04493 19.5 3.25C19.5 1.45507 18.0449 0 16.25 0ZM14.5 3.25C14.5 2.2835 15.2835 1.5 16.25 1.5C17.2165 1.5 18 2.2835 18 3.25C18 4.2165 17.2165 5 16.25 5C15.2835 5 14.5 4.2165 14.5 3.25Z" fill="var(--fill-0, #653DE7)"/>
<path fill-rule="evenodd" clip-rule="evenodd" d="M7.5 9.75C7.5 7.95507 8.95507 6.5 10.75 6.5C12.5449 6.5 14 7.95507 14 9.75C14 11.5449 12.5449 13 10.75 13C8.95507 13 7.5 11.5449 7.5 9.75ZM10.75 8C9.7835 8 9 8.7835 9 9.75C9 10.7165 9.7835 11.5 10.75 11.5C11.7165 11.5 12.5 10.7165 12.5 9.75C12.5 8.7835 11.7165 8 10.75 8Z" fill="var(--fill-0, #653DE7)"/>
<path d="M5.24999 9C3.26333 9 1.5 10.3005 1.5 12.25C1.5 12.6642 1.16421 13 0.75 13C0.335786 13 0 12.6642 0 12.25C0 9.19953 2.73664 7.5 5.24999 7.5C5.3288 7.5 5.40756 7.5016 5.48621 7.50479C5.90008 7.52155 6.222 7.87066 6.20524 8.28453C6.18847 8.6984 5.83937 9.02032 5.4255 9.00356C5.36699 9.00119 5.30847 9 5.24999 9Z" fill="var(--fill-0, #653DE7)"/>
<path d="M16.25 9C16.1915 9 16.133 9.00119 16.0745 9.00356C15.6606 9.02032 15.3115 8.6984 15.2948 8.28453C15.278 7.87065 15.5999 7.52155 16.0138 7.50479C16.0924 7.5016 16.1712 7.5 16.25 7.5C18.7633 7.5 21.5 9.19953 21.5 12.25C21.5 12.6642 21.1642 13 20.75 13C20.3358 13 20 12.6642 20 12.25C20 10.3005 18.2367 9 16.25 9Z" fill="var(--fill-0, #653DE7)"/>
<path fill-rule="evenodd" clip-rule="evenodd" d="M2 3.25C2 1.45507 3.45507 0 5.25 0C7.04493 0 8.5 1.45507 8.5 3.25C8.5 5.04493 7.04493 6.5 5.25 6.5C3.45507 6.5 2 5.04493 2 3.25ZM5.25 1.5C4.2835 1.5 3.5 2.2835 3.5 3.25C3.5 4.2165 4.2835 5 5.25 5C6.2165 5 7 4.2165 7 3.25C7 2.2835 6.2165 1.5 5.25 1.5Z" fill="var(--fill-0, #653DE7)"/>
<path d="M7 18.75C7 16.8005 8.76333 15.5 10.75 15.5C12.7367 15.5 14.5 16.8005 14.5 18.75C14.5 19.1642 14.8358 19.5 15.25 19.5C15.6642 19.5 16 19.1642 16 18.75C16 15.6995 13.2633 14 10.75 14C8.23664 14 5.5 15.6995 5.5 18.75C5.5 19.1642 5.83579 19.5 6.25 19.5C6.66421 19.5 7 19.1642 7 18.75Z" fill="var(--fill-0, #653DE7)"/>
</g>
</svg>
