<svg preserveAspectRatio="none" width="100%" height="100%" overflow="visible" style="display: block;" viewBox="0 0 23.5003 22.5" fill="none" xmlns="http://www.w3.org/2000/svg">
<g id="Vector 1">
<path d="M19.8502 1.20004C20.0987 0.868673 20.0315 0.398572 19.7002 0.150044C19.3688 -0.098484 18.8987 -0.0313268 18.6502 0.300044L17.1502 2.30004C16.9016 2.63142 16.9688 3.10152 17.3002 3.35004C17.6315 3.59857 18.1016 3.53142 18.3502 3.20004L19.8502 1.20004Z" fill="var(--fill-0, #9333EA)"/>
<path fill-rule="evenodd" clip-rule="evenodd" d="M13.4391 1.55944C12.7573 0.145061 10.743 0.145066 10.0612 1.55944L8.14367 5.53743C8.12169 5.58302 8.07819 5.61445 8.028 5.621L3.63378 6.19439C2.06448 6.39917 1.43915 8.33613 2.59245 9.41988L5.79333 12.4277C5.83058 12.4627 5.84743 12.5143 5.83803 12.5646L5.03218 16.8726C4.7426 18.4206 6.37514 19.6143 7.7625 18.8689L11.6792 16.7646C11.7235 16.7408 11.7768 16.7408 11.8211 16.7646L15.7378 18.8689C17.1252 19.6143 18.7577 18.4206 18.4681 16.8726L17.6623 12.5646C17.6529 12.5143 17.6697 12.4627 17.707 12.4277L20.9079 9.41988C22.0612 8.33613 21.4358 6.39917 19.8665 6.19439L15.4723 5.621C15.4221 5.61445 15.3786 5.58302 15.3567 5.53743L13.4391 1.55944ZM11.4124 2.21078C11.5488 1.92795 11.9516 1.92795 12.0879 2.21078L14.0054 6.18877C14.2473 6.69049 14.7259 7.03632 15.2782 7.10839L19.6724 7.68178C19.9863 7.72273 20.1113 8.11006 19.8807 8.32677L16.6798 11.3346C16.2698 11.7198 16.0844 12.2874 16.1879 12.8404L16.9937 17.1484C17.0516 17.4579 16.7252 17.6966 16.4477 17.5476L12.531 15.4433C12.0434 15.1813 11.4569 15.1813 10.9693 15.4433L7.05258 17.5476C6.77516 17.6966 6.4487 17.4579 6.50661 17.1484L7.31246 12.8404C7.41589 12.2874 7.23047 11.7198 6.82051 11.3346L3.61964 8.32677C3.38902 8.11006 3.51407 7.72273 3.82787 7.68178L8.22209 7.10839C8.77437 7.03632 9.25302 6.69049 9.49487 6.18877L11.4124 2.21078Z" fill="var(--fill-0, #9333EA)"/>
<path d="M23.421 15.0855C23.6062 14.715 23.4561 14.2645 23.0856 14.0793L21.0856 13.0793C20.7151 12.894 20.2646 13.0442 20.0793 13.4147C19.8941 13.7852 20.0443 14.2357 20.4147 14.4209L22.4147 15.4209C22.7852 15.6061 23.2357 15.456 23.421 15.0855Z" fill="var(--fill-0, #9333EA)"/>
<path d="M0.414754 14.0793C0.0442703 14.2645 -0.105898 14.715 0.0793439 15.0855C0.264586 15.456 0.715091 15.6061 1.08557 15.4209L3.08557 14.4209C3.45606 14.2357 3.60623 13.7852 3.42098 13.4147C3.23574 13.0442 2.78524 12.894 2.41475 13.0793L0.414754 14.0793Z" fill="var(--fill-0, #9333EA)"/>
<path d="M3.80016 0.150044C3.46879 0.398572 3.40163 0.868673 3.65016 1.20004L5.15016 3.20004C5.39869 3.53142 5.86879 3.59857 6.20016 3.35004C6.53153 3.10152 6.59869 2.63142 6.35016 2.30004L4.85016 0.300044C4.60163 -0.0313268 4.13153 -0.098484 3.80016 0.150044Z" fill="var(--fill-0, #9333EA)"/>
<path d="M11.0001 19.75C11.0001 19.3358 11.3359 19 11.7501 19C12.1644 19 12.5001 19.3358 12.5001 19.75V21.75C12.5001 22.1642 12.1644 22.5 11.7501 22.5C11.3359 22.5 11.0001 22.1642 11.0001 21.75V19.75Z" fill="var(--fill-0, #9333EA)"/>
</g>
</svg>
