<svg width="24" height="24" viewBox="0 0 24 24" fill="none" xmlns="http://www.w3.org/2000/svg">
  <!-- coin-front-dollar: Layer1 circle at inset(21.87% 5.21% 5.21% 21.87%) => x=5.25 y=5.25 w=17.5 h=17.5, scale=1.0 -->
  <g transform="translate(5.25,5.25)">
    <path opacity="0.4" d="M17.5 8.75C17.5 3.91751 13.5825 0 8.75 0C3.91751 0 0 3.91751 0 8.75C0 13.5825 3.91751 17.5 8.75 17.5C13.5825 17.5 17.5 13.5825 17.5 8.75Z" fill="#7E22CE"/>
  </g>
  <!-- Layer2 dollar at inset(5.21% 25.6% 21.87% 5.21%) => x=1.25 y=1.25 w=16.6 h=17.5, scaleX=16.6/16.6065?1, scaleY=17.5/17.5=1 -->
  <g transform="translate(1.25,1.25)">
    <path d="M4 12.75C4 14.1341 4.32136 15.4431 4.89352 16.6065C1.99485 15.1809 0 12.1984 0 8.75C0 3.91751 3.91751 0 8.75 0C12.1984 0 15.1809 1.99485 16.6065 4.89352C15.4431 4.32136 14.1341 4 12.75 4C7.91751 4 4 7.91751 4 12.75Z" fill="#7E22CE"/>
    <path d="M12.0001 9.06722V8.75001C12.0001 8.3358 12.3358 8.00001 12.7501 8.00001C13.1643 8.00001 13.5001 8.3358 13.5001 8.75001V9.0623C13.6767 9.09589 13.8503 9.14518 14.0266 9.21509C14.4248 9.37303 14.7911 9.61914 15.2028 9.9309C15.533 10.181 15.598 10.6514 15.348 10.9816C15.0979 11.3118 14.6275 11.3768 14.2973 11.1268C13.909 10.8328 13.6753 10.6894 13.4735 10.6094C13.2893 10.5363 13.0907 10.5 12.75 10.5C12.2566 10.5 11.9258 10.6169 11.74 10.7515C11.5766 10.8699 11.5 11.0143 11.5 11.2154C11.5 11.4516 11.591 11.5813 11.8164 11.7075C12.0892 11.8602 12.4686 11.9427 12.8733 12.0102C13.2686 12.0761 13.8892 12.1885 14.4164 12.4836C14.991 12.8053 15.5 13.3762 15.5 14.2846C15.5 14.9864 15.1766 15.5747 14.64 15.9633C14.3127 16.2003 13.9226 16.3531 13.5001 16.4328V16.75C13.5001 17.1642 13.1643 17.5 12.7501 17.5C12.3358 17.5 12.0001 17.1642 12.0001 16.75V16.4377C11.8235 16.4041 11.6498 16.3548 11.4735 16.2849C11.0753 16.1269 10.709 15.8808 10.2973 15.5691C9.96706 15.319 9.90207 14.8486 10.1521 14.5184C10.4022 14.1882 10.8726 14.1232 11.2028 14.3732C11.5911 14.6672 11.8248 14.8105 12.0266 14.8906C12.2108 14.9637 12.4094 15 12.75 15C13.2435 15 13.5743 14.8831 13.7601 14.7485C13.9235 14.6301 14 14.4857 14 14.2846C14 14.0484 13.9091 13.9187 13.6837 13.7925C13.4109 13.6398 13.0315 13.5573 12.6267 13.4898C12.2315 13.4239 11.6109 13.3115 11.0837 13.0164C10.5091 12.6947 10 12.1238 10 11.2154C10 10.5136 10.3235 9.92533 10.8601 9.53668C11.1874 9.29966 11.5775 9.14693 12.0001 9.06722Z" fill="#7E22CE"/>
  </g>
</svg>
