<svg width="24" height="24" viewBox="0 0 24 24" fill="none" xmlns="http://www.w3.org/2000/svg">
  <!-- house bg: inset(5.19% 5.21% 5.21% 5.21%) => x=1.25 y=1.25 w=21.5 h=21.5 -->
  <g transform="translate(1.25,1.25)">
    <path opacity="0.4" d="M11.6764 0.116217C11.0685 -0.038739 10.4315 -0.038739 9.82368 0.116217C9.13295 0.292304 8.51874 0.734969 7.62845 1.37661L2.87813 4.7969C1.99381 5.43333 1.42428 5.84321 1.00556 6.37969C0.63552 6.85379 0.358881 7.39386 0.190347 7.97118C-0.000360101 8.62445 -0.000212941 9.32614 1.55239e-05 10.4157L3.1498e-05 15.1859C2.50011e-05 16.1383 1.98148e-05 16.8989 0.0502071 17.5131C0.101681 18.1431 0.209665 18.685 0.463254 19.1827C0.870716 19.9824 1.52088 20.6326 2.32057 21.04C2.81827 21.2936 3.36015 21.4016 3.99016 21.4531C4.60441 21.5033 5.36493 21.5033 6.31734 21.5033H15.1827C16.1351 21.5033 16.8957 21.5033 17.5099 21.4531C18.1399 21.4016 18.6818 21.2936 19.1795 21.04C19.9792 20.6326 20.6293 19.9824 21.0368 19.1827C21.2904 18.685 21.3984 18.1431 21.4499 17.5131C21.5 16.8989 21.5 16.1384 21.5 15.186L21.5 10.4157C21.5003 9.32614 21.5004 8.62446 21.3097 7.97118C21.1412 7.39386 20.8645 6.85379 20.4945 6.37969C20.0758 5.84321 19.5063 5.43333 18.6219 4.7969L13.8716 1.37661C12.9813 0.734968 12.3671 0.292304 11.6764 0.116217Z" fill="#9333EA"/>
  </g>
  <!-- question mark: inset(38.54% 37.5% 22.92% 37.5%) => x=9 y=9.25 w=6 h=9.25 -->
  <g transform="translate(9,9.25)">
    <path d="M1.5 3C1.5 2.17157 2.17157 1.5 3 1.5C3.82843 1.5 4.5 2.17157 4.5 3C4.5 3.41862 4.3295 3.79604 4.05228 4.06898C3.90355 4.21541 3.76725 4.29237 3.55853 4.41022C3.51329 4.43576 3.46447 4.46333 3.41156 4.49384C3.11999 4.66199 2.75076 4.90376 2.48751 5.39667C2.29237 5.76204 2.43037 6.21642 2.79574 6.41156C3.16111 6.6067 3.61549 6.4687 3.81063 6.10333C3.87623 5.9805 3.9539 5.91263 4.16091 5.79325C4.18969 5.77666 4.22227 5.75855 4.25801 5.73869C4.47246 5.61952 4.8007 5.4371 5.10463 5.13788C5.65646 4.59459 6 3.83673 6 3C6 1.34315 4.65685 0 3 0C1.34315 0 0 1.34315 0 3C0 3.18586 0.0205845 3.35532 0.0476813 3.49871C0.124597 3.90572 0.516896 4.17331 0.923906 4.0964C1.33092 4.01948 1.59851 3.62718 1.52159 3.22017C1.50856 3.15123 1.5 3.07624 1.5 3Z" fill="#9333EA"/>
    <path d="M3 7.25C2.44772 7.25 2 7.69772 2 8.25C2 8.80229 2.44772 9.25 3 9.25C3.55228 9.25 4.0001 8.80229 4.0001 8.25C4.0001 7.69772 3.55228 7.25 3 7.25Z" fill="#9333EA"/>
  </g>
</svg>
