<svg width="24" height="24" viewBox="0 0 24 24" fill="none" xmlns="http://www.w3.org/2000/svg">
  <!-- doc body: inset(5.21% 14.68% 5.21% 5.21%) => x=1.25 y=1.25 w=19.23 h=21.5 -->
  <g transform="translate(1.25,1.25)">
    <path opacity="0.4" d="M4.71858 2.46099e-07H12.2814C12.9548 -7.98814e-06 13.5055 -1.47223e-05 13.9531 0.0365523C14.4163 0.0744022 14.8347 0.155138 15.2255 0.35423C15.837 0.665818 16.3342 1.16301 16.6458 1.77453C16.8449 2.16527 16.9256 2.58367 16.9634 3.04693C17 3.49449 17 4.04519 17 4.71856V19.25C17 20.4847 17.9946 21.4872 19.2263 21.4999H6.3173C5.3649 21.4999 4.60438 21.4999 3.99013 21.4497C3.36012 21.3982 2.81824 21.2902 2.32054 21.0367C1.52085 20.6292 0.870684 19.979 0.463223 19.1793C0.209634 18.6816 0.101651 18.1398 0.0501765 17.5097C-1.02744e-05 16.8955 -5.6039e-06 16.1349 2.46099e-07 15.1825V4.71857C-7.98814e-06 4.0452 -1.47223e-05 3.49449 0.0365523 3.04693C0.0744023 2.58367 0.155138 2.16527 0.35423 1.77453C0.665818 1.163 1.16301 0.665818 1.77453 0.35423C2.16527 0.155138 2.58367 0.0744022 3.04693 0.0365523C3.49449 -1.47223e-05 4.04521 -7.98814e-06 4.71858 2.46099e-07Z" fill="#9333EA"/>
  </g>
  <!-- text lines + pen: inset(30.21% 5.21% 5.21% 21.88%) => x=5.25 y=7.25 w=17.5 h=15.5 -->
  <g transform="translate(5.25,7.25)">
    <path d="M0 0.75C0 0.335786 0.335786 0 0.75 0H8.25C8.66421 0 9 0.335786 9 0.75C9 1.16421 8.66421 1.5 8.25 1.5H0.75C0.335786 1.5 0 1.16421 0 0.75Z" fill="#9333EA"/>
    <path d="M0 4.75C0 4.33579 0.335786 4 0.75 4H8.25C8.66421 4 9 4.33579 9 4.75C9 5.16421 8.66421 5.5 8.25 5.5H0.75C0.335786 5.5 0 5.16421 0 4.75Z" fill="#9333EA"/>
    <path d="M0 8.75C0 8.33579 0.335786 8 0.75 8H4.75C5.16421 8 5.5 8.33579 5.5 8.75C5.5 9.16421 5.16421 9.5 4.75 9.5H0.75C0.335786 9.5 0 9.16421 0 8.75Z" fill="#9333EA"/>
    <path d="M17.5 5.75C17.5 5.33579 17.1642 5 16.75 5H13V13.25C13 14.4926 14.0074 15.5 15.25 15.5C16.4926 15.5 17.5 14.4926 17.5 13.25V5.75Z" fill="#9333EA"/>
  </g>
</svg>
