<svg preserveAspectRatio="none" width="100%" height="100%" overflow="visible" style="display: block;" viewBox="0 0 24 24" fill="none" xmlns="http://www.w3.org/2000/svg">
<g id="Frame 2147258870">
<path id="Vector" d="M23.7185 13.5985L18.8225 10.1995L23.7185 6.80055C24.0938 6.53948 24.0938 5.98296 23.7185 5.72189L18.0458 1.78357C17.8214 1.62748 17.524 1.62748 17.2996 1.78357L12 5.46261L6.70037 1.78357C6.476 1.62748 6.17857 1.62748 5.9542 1.78357L0.281472 5.72189C-0.0938241 5.98296 -0.0938241 6.53948 0.281472 6.80055L5.17747 10.1995L0.281472 13.5985C-0.0938241 13.8596 -0.0938241 14.4161 0.281472 14.6772L5.9542 18.6155C6.17857 18.7716 6.476 18.7716 6.70037 18.6155L12 14.9365L17.2996 18.6155C17.524 18.7716 17.8214 18.7716 18.0458 18.6155L23.7185 14.6772C24.0938 14.4161 24.0938 13.8596 23.7185 13.5985ZM12 13.3392L7.4771 10.1995L12 7.05982L16.5229 10.1995L12 13.3392ZM17.6727 3.1215L22.1956 6.26122L17.6727 9.40093L13.1498 6.26122L17.6727 3.1215ZM6.32729 3.1215L10.8502 6.26122L6.32729 9.40093L1.80438 6.26122L6.32729 3.1215ZM6.32729 17.2776L1.80438 14.1378L6.32729 10.9981L10.8502 14.1378L6.32729 17.2776ZM17.6727 17.2776L13.1498 14.1378L17.6727 10.9981L22.1956 14.1378L17.6727 17.2776ZM15.144 19.8265C15.3501 20.1244 15.2763 20.5334 14.9793 20.74L12.3731 22.5494C12.1487 22.7055 11.8513 22.7055 11.6269 22.5494L9.02073 20.74C8.61539 20.4399 8.68605 19.8122 9.14793 19.6103C9.34937 19.5222 9.58146 19.5414 9.76583 19.6613L12 21.2159L14.2342 19.6657C14.5299 19.4589 14.9366 19.5308 15.144 19.8265Z" fill="var(--fill-0, #404040)"/>
</g>
</svg>
