<svg width="24" height="24" viewBox="0 0 24 24" fill="none" xmlns="http://www.w3.org/2000/svg">
<path d="M21 7.1665L17 9.1665M17 9.1665C17 9.1665 16.6953 9.31887 16.5 9.4165L12 11.6665M17 9.1665V12.6665M17 9.1665L7.5 4.1665M12 11.6665L3 7.1665M12 11.6665V21.1665M15.5777 3.04847L17.5777 4.09802C19.7294 5.22716 20.8052 5.79173 21.4026 6.80624C22 7.82075 22 9.08317 22 11.608V11.725C22 14.2498 22 15.5123 21.4026 16.5268C20.8052 17.5413 19.7294 18.1058 17.5777 19.235L15.5777 20.2845C13.8221 21.2058 12.9443 21.6665 12 21.6665C11.0557 21.6665 10.1779 21.2058 8.42229 20.2845L6.42229 19.235C4.27063 18.1058 3.19479 17.5413 2.5974 16.5268C2 15.5123 2 14.2498 2 11.725V11.608C2 9.08317 2 7.82075 2.5974 6.80624C3.19479 5.79173 4.27063 5.22716 6.42229 4.09802L8.42229 3.04847C10.1779 2.12716 11.0557 1.6665 12 1.6665C12.9443 1.6665 13.8221 2.12716 15.5777 3.04847Z" stroke="#404040" stroke-width="1.5" stroke-linecap="round"/>
</svg>
