<svg width="24" height="24" viewBox="0 0 24 24" fill="none" xmlns="http://www.w3.org/2000/svg">
<path d="M6.52758 13.3294C6.406 13.3734 6.2955 13.4437 6.20408 13.5351C6.11267 13.6266 6.04242 13.737 5.99842 13.8586C5.92708 14.0367 5.90967 14.2319 5.94825 14.4198C5.98675 14.6077 6.07958 14.7801 6.21525 14.9158C6.35092 15.0514 6.52342 15.1443 6.71133 15.1828C6.89925 15.2214 7.09433 15.2039 7.27242 15.1326C7.39117 15.083 7.50058 15.0134 7.59583 14.9269C7.68233 14.8316 7.752 14.7222 7.80158 14.6034C7.8565 14.4871 7.88333 14.3596 7.88 14.231C7.87642 13.9715 7.77492 13.723 7.59583 13.5353C7.458 13.3992 7.283 13.3071 7.09292 13.2705C6.90275 13.2339 6.70608 13.2544 6.52758 13.3294ZM19.4048 9.40944L18.072 5.46002C17.8688 4.88502 17.4916 4.38744 16.9929 4.03627C16.4943 3.6851 15.8988 3.49769 15.2888 3.50002H8.31117C7.70125 3.49769 7.10575 3.6851 6.60708 4.03627C6.10842 4.38744 5.73133 4.88502 5.528 5.46002L4.19517 9.43885C3.56833 9.60302 3.01325 9.96969 2.61625 10.4819C2.21925 10.994 2.00267 11.623 2 12.271V16.191C2.00175 16.7975 2.191 17.3888 2.54192 17.8836C2.89275 18.3783 3.38817 18.7524 3.96 18.9546V20.111C3.96 20.3709 4.06325 20.6203 4.247 20.804C4.43083 20.9878 4.68008 21.091 4.94 21.091C5.19992 21.091 5.44917 20.9878 5.633 20.804C5.81675 20.6203 5.92 20.3709 5.92 20.111V19.131H17.68V20.111C17.68 20.3709 17.7833 20.6203 17.9671 20.804C18.1508 20.9878 18.4001 21.091 18.66 21.091C18.9199 21.091 19.1693 20.9878 19.353 20.804C19.5368 20.6203 19.64 20.3709 19.64 20.111V18.9546C20.2118 18.7524 20.7072 18.3783 21.0582 17.8836C21.409 17.3888 21.5983 16.7975 21.6 16.191V12.271C21.5973 11.623 21.3807 10.994 20.9837 10.4819C20.5867 9.96969 20.0318 9.60302 19.4048 9.43885V9.40944ZM7.38017 6.07744C7.44592 5.88277 7.57117 5.71369 7.73825 5.59411C7.90533 5.47452 8.10575 5.41052 8.31117 5.41102H15.2888C15.5026 5.39985 15.714 5.45894 15.8909 5.57927C16.0679 5.69961 16.2006 5.87461 16.2688 6.07744L17.2978 9.33102H6.30217L7.38017 6.07744ZM19.64 16.191C19.64 16.4509 19.5368 16.7003 19.353 16.884C19.1693 17.0678 18.9199 17.171 18.66 17.171H4.94C4.68008 17.171 4.43083 17.0678 4.247 16.884C4.06325 16.7003 3.96 16.4509 3.96 16.191V12.271C3.96 12.0111 4.06325 11.7619 4.247 11.5781C4.43083 11.3944 4.68008 11.291 4.94 11.291H18.66C18.9199 11.291 19.1692 11.3944 19.353 11.5781C19.5368 11.7619 19.64 12.0111 19.64 12.271V16.191ZM16.3276 13.3294C16.206 13.3734 16.0955 13.4437 16.0041 13.5351C15.9127 13.6266 15.8424 13.737 15.7984 13.8586C15.7272 14.0367 15.7098 14.2319 15.7483 14.4198C15.7868 14.6077 15.8797 14.7801 16.0153 14.9158C16.1509 15.0514 16.3234 15.1443 16.5113 15.1828C16.6993 15.2214 16.8943 15.2039 17.0724 15.1326C17.194 15.0886 17.3045 15.0184 17.3959 14.9269C17.4873 14.8355 17.5576 14.725 17.6016 14.6034C17.6565 14.4871 17.6833 14.3596 17.68 14.231C17.6764 13.9715 17.5748 13.723 17.3958 13.5353C17.258 13.3992 17.083 13.3071 16.8928 13.2705C16.7028 13.2339 16.5061 13.2544 16.3276 13.3294ZM12.78 13.251H10.82C10.5601 13.251 10.3108 13.3544 10.1271 13.5381C9.94333 13.7219 9.84 13.9711 9.84 14.231C9.84 14.4909 9.94333 14.7403 10.1271 14.924C10.3108 15.1078 10.5601 15.211 10.82 15.211H12.78C13.0399 15.211 13.2892 15.1078 13.473 14.924C13.6567 14.7403 13.76 14.4909 13.76 14.231C13.76 13.9711 13.6567 13.7219 13.473 13.5381C13.2892 13.3544 13.0399 13.251 12.78 13.251Z" fill="#404040"/>
</svg>
