<svg preserveAspectRatio="xMidYMid meet" width="100%" height="100%" viewBox="0 0 16 22" fill="none" xmlns="http://www.w3.org/2000/svg">
<g id="ring--money-diamond-payment-wealth-finance-ring-accessories-shopping-fashion">
<path id="Union" fill-rule="evenodd" clip-rule="evenodd" d="M10.414 0H5.586L2.586 3L7.293 7.707H8.707L13.414 3L10.414 0Z" fill="#2859C5"/>
<path id="Ellipse 448 (Stroke)" fill-rule="evenodd" clip-rule="evenodd" d="M8 8C6.4087 8 4.88258 8.63214 3.75736 9.75736C2.63214 10.8826 2 12.4087 2 14C2 15.5913 2.63214 17.1174 3.75736 18.2426C4.88258 19.3679 6.4087 20 8 20C9.5913 20 11.1174 19.3679 12.2426 18.2426C13.3679 17.1174 14 15.5913 14 14C14 12.4087 13.3679 10.8826 12.2426 9.75736C11.1174 8.63214 9.5913 8 8 8ZM0 14C0 11.8783 0.842855 9.84344 2.34315 8.34315C3.84344 6.84285 5.87827 6 8 6C10.1217 6 12.1566 6.84285 13.6569 8.34315C15.1571 9.84344 16 11.8783 16 14C16 16.1217 15.1571 18.1566 13.6569 19.6569C12.1566 21.1571 10.1217 22 8 22C5.87827 22 3.84344 21.1571 2.34315 19.6569C0.842855 18.1566 0 16.1217 0 14Z" fill="#8FBFFA"/>
</g>
</svg>
