<svg preserveAspectRatio="none" width="100%" height="100%" overflow="visible" style="display: block;" viewBox="0 0 24 24" fill="none" xmlns="http://www.w3.org/2000/svg">
<g id="Campfire--Streamline-Phosphor">
<path id="Vector" d="M22.8155 23.1292C22.664 23.6056 22.155 23.869 21.6787 23.7174L12 20.6374L2.3213 23.7174C1.65738 23.9285 1.01386 23.3418 1.16296 22.6613C1.23216 22.3454 1.46459 22.0905 1.77272 21.9925L9.01167 19.6885L1.77272 17.3833C1.10304 17.1916 0.892003 16.3469 1.39285 15.8628C1.63897 15.6249 1.99828 15.5462 2.3213 15.6595L12 18.7384L21.6787 15.6595C22.336 15.4289 22.9964 15.9963 22.8675 16.6809C22.8041 17.0173 22.5564 17.2891 22.2273 17.3833L14.9883 19.6885L22.2273 21.9925C22.7037 22.1439 22.967 22.6529 22.8155 23.1292ZM5.21348 9.73491C5.21348 7.46142 6.31855 5.11216 8.40767 2.94839C9.34505 1.97361 10.3914 1.10981 11.5261 0.374034C11.8168 0.195319 12.1832 0.195319 12.4739 0.374034C12.7318 0.526734 18.7865 4.31474 18.7865 9.73491C18.7865 14.9592 13.1311 18.2243 8.60674 15.6122C6.50698 14.3999 5.21348 12.1595 5.21348 9.73491ZM12 14.7117C12.9995 14.7116 13.8097 13.9014 13.8097 12.9019C13.8097 11.3671 12.6787 10.1353 12 9.53244C11.3214 10.1353 10.1903 11.3671 10.1903 12.9019C10.1903 13.9014 11.0005 14.7117 12 14.7117ZM7.02322 9.73491C7.02283 11.0084 7.5125 12.2331 8.3907 13.1553C8.3907 13.0716 8.38053 12.9868 8.38053 12.9019C8.38053 9.73491 11.3711 7.70913 11.4978 7.6243C11.8019 7.42143 12.1981 7.42143 12.5022 7.6243C12.6289 7.70913 15.6195 9.73491 15.6195 12.9019C15.6195 12.9868 15.6195 13.0716 15.6093 13.1553C16.4875 12.2331 16.9772 11.0084 16.9768 9.73491C16.9768 6.11543 13.3279 3.17461 12 2.23128C10.6732 3.17461 7.02322 6.11543 7.02322 9.73491Z" fill="var(--fill-0, #404040)"/>
</g>
</svg>
