<svg preserveAspectRatio="xMidYMid meet" width="100%" height="100%" viewBox="0 0 23.7561 23.5915" fill="none" xmlns="http://www.w3.org/2000/svg">
<g id="justice-hammer--hammer-work-mallet-office-company-gavel-justice-judge-arbitration-court">
<path id="Subtract" fill-rule="evenodd" clip-rule="evenodd" d="M2.14286 18.02C2.14286 17.7927 2.23316 17.5747 2.39391 17.4139C2.55465 17.2532 2.77267 17.1629 3 17.1629H12.4286C12.6559 17.1629 12.8739 17.2532 13.0347 17.4139C13.1954 17.5747 13.2857 17.7927 13.2857 18.02V21.02H2.14286V18.02Z" fill="#8FBFFA"/>
<path id="Subtract_2" fill-rule="evenodd" clip-rule="evenodd" d="M15.0326 11.0806L16.8497 9.26345L23.3469 15.7572C23.4732 15.8749 23.5745 16.0168 23.6448 16.1745C23.715 16.3322 23.7528 16.5025 23.7559 16.6751C23.7589 16.8478 23.7272 17.0192 23.6625 17.1793C23.5978 17.3394 23.5016 17.4849 23.3795 17.6069C23.2574 17.729 23.112 17.8253 22.9519 17.8899C22.7918 17.9546 22.6203 17.9864 22.4477 17.9833C22.275 17.9803 22.1048 17.9425 21.9471 17.8722C21.7894 17.8019 21.6474 17.7006 21.5297 17.5743L15.0326 11.0806Z" fill="#2859C5"/>
<path id="Vector (Stroke)" fill-rule="evenodd" clip-rule="evenodd" d="M0 22.3057C0 21.9647 0.135459 21.6377 0.376577 21.3966C0.617695 21.1555 0.944722 21.02 1.28571 21.02H14.1429C14.4839 21.02 14.8109 21.1555 15.052 21.3966C15.2931 21.6377 15.4286 21.9647 15.4286 22.3057C15.4286 22.6467 15.2931 22.9738 15.052 23.2149C14.8109 23.456 14.4839 23.5915 14.1429 23.5915H1.28571C0.944722 23.5915 0.617695 23.456 0.376577 23.2149C0.135459 22.9738 0 22.6467 0 22.3057Z" fill="#2859C5"/>
<path id="Union" d="M6.50743 6.90117C6.26847 7.13997 6.07892 7.42351 5.94959 7.7356C5.82026 8.04769 5.75369 8.3822 5.75369 8.72002C5.75369 9.05785 5.82026 9.39236 5.94959 9.70445C6.07892 10.0165 6.26847 10.3001 6.50743 10.5389L9.22286 13.2526C9.70507 13.7347 10.359 14.0055 11.0409 14.0055C11.7227 14.0055 12.3766 13.7347 12.8589 13.2526L19.0046 7.10688C19.4861 6.62474 19.7566 5.97117 19.7566 5.28974C19.7566 4.60831 19.4861 3.95474 19.0046 3.47259L16.2909 0.753737C16.0521 0.514783 15.7685 0.325225 15.4564 0.195896C15.1443 0.0665666 14.8098 0 14.472 0C14.1342 0 13.7997 0.0665666 13.4876 0.195896C13.1755 0.325225 12.8919 0.514783 12.6531 0.753737L6.50743 6.90117Z" fill="#8FBFFA"/>
</g>
</svg>
