<svg width="20" height="20" viewBox="0 0 20 20" fill="none" xmlns="http://www.w3.org/2000/svg">
<path d="M10.3612 1.04199H5.47347C4.67978 1.04199 4.04598 1.04198 3.5341 1.08381C3.00908 1.1267 2.55752 1.21669 2.14277 1.42801C1.47636 1.76756 0.934555 2.30937 0.595003 2.97578C0.383679 3.39052 0.293693 3.84209 0.250798 4.3671C0.208975 4.87899 0.208979 5.51277 0.208984 6.30647V13.6942C0.208979 14.4879 0.208975 15.1217 0.250798 15.6335C0.293693 16.1586 0.383679 16.6101 0.595003 17.0249C0.934555 17.6913 1.47636 18.2331 2.14277 18.5726C2.55752 18.784 3.00908 18.8739 3.5341 18.9168C4.04597 18.9587 4.67973 18.9587 5.47341 18.9587H8.33398C8.67916 18.9587 8.95898 18.6788 8.95898 18.3337C8.95898 17.9885 8.67916 17.7087 8.33398 17.7087H5.50065C4.6736 17.7087 4.09089 17.7082 3.63589 17.671C3.18818 17.6344 2.91942 17.5655 2.71026 17.4589C2.27905 17.2392 1.92847 16.8886 1.70876 16.4574C1.60219 16.2482 1.53323 15.9795 1.49665 15.5318C1.45947 15.0768 1.45898 14.494 1.45898 13.667V6.33366C1.45898 5.5066 1.45947 4.9239 1.49665 4.46889C1.53323 4.02118 1.60219 3.75243 1.70876 3.54326C1.92847 3.11206 2.27905 2.76148 2.71026 2.54177C2.91942 2.4352 3.18818 2.36623 3.63588 2.32965C4.09089 2.29248 4.67359 2.29199 5.50065 2.29199H10.334C11.161 2.29199 11.7437 2.29248 12.1988 2.32965C12.6465 2.36623 12.9152 2.4352 13.1244 2.54177C13.5556 2.76148 13.9062 3.11206 14.1259 3.54326C14.2324 3.75243 14.3014 4.02118 14.338 4.46889C14.3752 4.9239 14.3757 5.5066 14.3757 6.33366V8.4742C14.3757 8.81938 14.6555 9.0992 15.0007 9.0992C15.3458 9.0992 15.6257 8.81938 15.6257 8.4742V6.30647C15.6257 5.5128 15.6257 4.87897 15.5838 4.3671C15.5409 3.84209 15.451 3.39052 15.2396 2.97578C14.9001 2.30937 14.3583 1.76756 13.6919 1.42801C13.2771 1.21669 12.8256 1.1267 12.3005 1.08381C11.7887 1.04198 11.1549 1.04199 10.3612 1.04199Z" fill="#9333EA"/>
<path d="M4.58398 6.04199C4.23881 6.04199 3.95898 6.32181 3.95898 6.66699C3.95898 7.01217 4.23881 7.29199 4.58398 7.29199H7.91732C8.2625 7.29199 8.54232 7.01217 8.54232 6.66699C8.54232 6.32181 8.2625 6.04199 7.91732 6.04199H4.58398Z" fill="#9333EA"/>
<path d="M4.58398 9.37533C4.23881 9.37533 3.95898 9.65515 3.95898 10.0003C3.95898 10.3455 4.23881 10.6253 4.58398 10.6253H11.2507C11.5958 10.6253 11.8757 10.3455 11.8757 10.0003C11.8757 9.65515 11.5958 9.37533 11.2507 9.37533H4.58398Z" fill="#9333EA"/>
<path d="M4.58398 12.7087C4.23881 12.7087 3.95898 12.9885 3.95898 13.3337C3.95898 13.6788 4.23881 13.9587 4.58398 13.9587H10.1316C10.4767 13.9587 10.7566 13.6788 10.7566 13.3337C10.7566 12.9885 10.4767 12.7087 10.1316 12.7087H4.58398Z" fill="#9333EA"/>
<path fill-rule="evenodd" clip-rule="evenodd" d="M16.4463 9.71197C17.0897 9.26449 17.9434 9.26432 18.587 9.71153C18.7256 9.8079 18.8567 9.93908 19.009 10.0915L19.0761 10.1586C19.2287 10.3108 19.36 10.4419 19.4564 10.5805C19.9041 11.224 19.9043 12.078 19.4568 12.7216C19.3604 12.8603 19.2292 12.9914 19.0767 13.1436L14.0903 18.131C14.0072 18.2141 13.9024 18.2721 13.7878 18.2983L10.9735 18.9428C10.7638 18.9909 10.5441 18.9276 10.3919 18.7754C10.2398 18.6233 10.1767 18.4035 10.2248 18.1938L10.8701 15.3826C10.8964 15.2683 10.9543 15.1636 11.0373 15.0806L16.0245 10.0921C16.1767 9.93964 16.3077 9.8084 16.4463 9.71197ZM17.8736 10.738C17.6591 10.5889 17.3745 10.589 17.1601 10.7382C17.1259 10.7619 17.0799 10.8044 16.8749 11.0095L16.476 11.4085L17.7601 12.6925L18.1592 12.2934C18.3642 12.0883 18.4067 12.0423 18.4305 12.0081C18.5796 11.7936 18.5796 11.5089 18.4303 11.2944C18.4065 11.2602 18.3641 11.2142 18.1589 11.0092C17.9538 10.8042 17.9078 10.7618 17.8736 10.738ZM16.8763 13.5765L15.5922 12.2925L12.0482 15.8373L11.6662 17.5018L13.3335 17.12L16.8763 13.5765Z" fill="#9333EA"/>
</svg>
