<svg width="24" height="24" viewBox="0 0 24 24" fill="none" xmlns="http://www.w3.org/2000/svg">
<circle cx="8" cy="5.5" r="2" stroke="#404040" stroke-width="1.5"/>
<path d="M4.5 13L7 10.5L11 13.5" stroke="#404040" stroke-width="1.5" stroke-linecap="round" stroke-linejoin="round"/>
<path d="M11 13.5L16.5 8.5" stroke="#404040" stroke-width="1.5" stroke-linecap="round" stroke-linejoin="round"/>
<path d="M14.5 8.5H17V11" stroke="#404040" stroke-width="1.5" stroke-linecap="round" stroke-linejoin="round"/>
<path d="M2 17.5C3 16.5 4.5 16.5 5.5 17.5C6.5 18.5 8 18.5 9 17.5C10 16.5 11.5 16.5 12.5 17.5C13.5 18.5 15 18.5 16 17.5C17 16.5 18.5 16.5 19.5 17.5C20.5 18.5 22 18.5 22 17.5" stroke="#404040" stroke-width="1.5" stroke-linecap="round" stroke-linejoin="round"/>
<path d="M2 21C3 20 4.5 20 5.5 21C6.5 22 8 22 9 21C10 20 11.5 20 12.5 21C13.5 22 15 22 16 21C17 20 18.5 20 19.5 21C20.5 22 22 22 22 21" stroke="#404040" stroke-width="1.5" stroke-linecap="round" stroke-linejoin="round"/>
</svg>
