<svg width="24" height="24" viewBox="0 0 24 24" fill="none" xmlns="http://www.w3.org/2000/svg">
  <!-- sack body: top=25% left=9.37% right=9.38% bottom=5.21% => x=2.25 y=6 w=19.5 h=16.75 -->
  <g transform="translate(2.25,6)">
    <path opacity="0.4" d="M6.65682 0H12.8432C12.8608 0.0092146 12.8785 0.0185115 12.896 0.0278905C16.9609 2.19582 19.5 6.42763 19.5 11.0345V12C19.5 14.6234 17.3734 16.75 14.75 16.75H4.75C2.12665 16.75 0 14.6234 0 12V11.0345C0 6.42763 2.53909 2.19582 6.60396 0.0278904C6.62154 0.0185114 6.63916 0.00921456 6.65682 0Z" fill="#9333EA"/>
  </g>
  <!-- top+dollar: inset(5.21% 26.05% 19.79% 26.05%) => x=6.25 y=1.25 w=11.5 h=18 -->
  <g transform="translate(6.25,1.25)">
    <path d="M1.56944 0C0.404249 0 -0.353589 1.22621 0.167498 2.26838C0.702175 3.33773 1.55805 4.20284 2.60405 4.75H8.88962C9.93561 4.20284 10.7915 3.33773 11.3262 2.26838C11.8473 1.22621 11.0894 0 9.92423 0H1.56944Z" fill="#9333EA"/>
    <path d="M6.49683 9.5623C6.67342 9.59589 6.84708 9.64518 7.02332 9.71509C7.42155 9.87303 7.78783 10.1191 8.19956 10.4309C8.52979 10.681 8.59479 11.1514 8.34474 11.4816C8.09469 11.8118 7.62428 11.8768 7.29406 11.6268C6.90579 11.3328 6.67206 11.1894 6.4703 11.1094C6.28605 11.0363 6.08743 11 5.74681 11C5.25332 11 4.92257 11.1169 4.73673 11.2515C4.57336 11.3699 4.49681 11.5143 4.49681 11.7154C4.49681 11.9516 4.58773 12.0813 4.81315 12.2075C5.08596 12.3602 5.46534 12.4427 5.87011 12.5102C6.26535 12.5761 6.88596 12.6885 7.41315 12.9836C7.98773 13.3053 8.49681 13.8762 8.49681 14.7846C8.49681 15.4864 8.17336 16.0747 7.63673 16.4633C7.30947 16.7003 6.91937 16.8531 6.49683 16.9328V17.25C6.49683 17.6642 6.16104 18 5.74683 18C5.33261 18 4.99683 17.6642 4.99683 17.25V16.9377C4.82022 16.9041 4.64654 16.8548 4.47028 16.7849C4.07205 16.6269 3.70577 16.3808 3.29405 16.0691C2.96383 15.819 2.89883 15.3486 3.14888 15.0184C3.39893 14.6882 3.86934 14.6232 4.19956 14.8732C4.58784 15.1672 4.82156 15.3105 5.02334 15.3906C5.20758 15.4637 5.4062 15.5 5.74681 15.5C6.2403 15.5 6.57105 15.3831 6.75689 15.2485C6.92026 15.1301 6.99681 14.9857 6.99681 14.7846C6.99681 14.5484 6.90589 14.4187 6.68047 14.2925C6.40766 14.1398 6.02827 14.0573 5.62351 13.9898C5.22827 13.9239 4.60765 13.8115 4.08046 13.5164C3.50588 13.1947 2.99681 12.6238 2.99681 11.7154C2.99681 11.0136 3.32025 10.4253 3.85689 10.0367C4.18416 9.79966 4.57427 9.64693 4.99683 9.56722V9.25001C4.99683 8.8358 5.33261 8.50001 5.74683 8.50001C6.16104 8.50001 6.49683 8.8358 6.49683 9.25001V9.5623Z" fill="#9333EA"/>
  </g>
</svg>
