<svg width="24" height="24" viewBox="0 0 24 24" fill="none" xmlns="http://www.w3.org/2000/svg">
  <!-- memo-search: Layer1 memo body at inset(5.21% 21.88% 5.21% 1.04%) => x=0.25 y=1.25 w=18.5 h=21.5 -->
  <g transform="translate(0.25,1.25)">
    <path opacity="0.4" d="M12.1826 1.42393e-07H6.31739C5.36495 -6.20721e-06 4.60439 -1.12765e-05 3.99013 0.0501759C3.36012 0.10165 2.81824 0.209634 2.32054 0.463223C1.52085 0.870685 0.870685 1.52085 0.463223 2.32054C0.209634 2.81824 0.10165 3.36012 0.0501759 3.99013C-1.12802e-05 4.60439 -6.20721e-06 5.36494 1.42393e-07 6.31738V15.1826C-6.20719e-06 16.1351 -1.13919e-05 16.8956 0.0501759 17.5099C0.10165 18.1399 0.209634 18.6818 0.463223 19.1795C0.870685 19.9791 1.52085 20.6293 2.32054 21.0368C2.81824 21.2904 3.36012 21.3983 3.99013 21.4498C4.60438 21.5 5.3649 21.5 6.3173 21.5H12.1595C12.7929 21.5 13.3382 21.5 13.8067 21.4863C14.1472 21.4764 14.4382 21.2383 14.5153 20.9065C14.5925 20.5747 14.4363 20.2326 14.1351 20.0735C12.2691 19.0877 11 17.1289 11 14.875C11 11.6303 13.6303 9 16.875 9C17.1387 9 17.398 9.01733 17.6519 9.05083C17.8661 9.07908 18.082 9.01363 18.2444 8.87122C18.4069 8.72882 18.5 8.52329 18.5 8.30727V6.31737C18.5 5.36496 18.5 4.60438 18.4498 3.99013C18.3983 3.36012 18.2904 2.81824 18.0368 2.32054C17.6293 1.52085 16.9791 0.870685 16.1795 0.463223C15.6818 0.209634 15.1399 0.10165 14.5099 0.0501759C13.8956 -1.13919e-05 13.1351 -6.20719e-06 12.1826 1.42393e-07Z" fill="#7E22CE"/>
  </g>
  <!-- Layer2 search lines at inset(30.21% 1.04% 5.21% 19.79%) => x=4.75 y=7.25 w=19.0 h=15.5 -->
  <g transform="translate(4.75,7.25)">
    <path d="M0 0.75C0 0.335786 0.335786 0 0.75 0H4.75C5.16421 0 5.5 0.335786 5.5 0.75C5.5 1.16421 5.16421 1.5 4.75 1.5H0.75C0.335786 1.5 0 1.16421 0 0.75Z" fill="#7E22CE"/>
    <path d="M0.75 4C0.335786 4 0 4.33579 0 4.75C0 5.16421 0.335786 5.5 0.75 5.5H6.67292C7.00388 4.94205 7.4144 4.43683 7.88886 4H0.75Z" fill="#7E22CE"/>
    <path d="M5.80727 8C5.76949 8.28631 5.75 8.57838 5.75 8.875C5.75 9.08578 5.75984 9.29426 5.7791 9.5H0.75C0.335786 9.5 0 9.16421 0 8.75C0 8.33579 0.335786 8 0.75 8H5.80727Z" fill="#7E22CE"/>
    <path fill-rule="evenodd" clip-rule="evenodd" d="M7.5 8.875C7.5 6.18261 9.68261 4 12.375 4C15.0674 4 17.25 6.18261 17.25 8.875C17.25 9.95058 16.9017 10.9448 16.3117 11.751L18.7803 14.2197C19.0732 14.5126 19.0732 14.9874 18.7803 15.2803C18.4874 15.5732 18.0125 15.5732 17.7196 15.2803L15.251 12.8117C14.4448 13.4017 13.4506 13.75 12.375 13.75C9.68261 13.75 7.5 11.5674 7.5 8.875ZM12.375 5.5C10.511 5.5 9 7.01104 9 8.875C9 10.739 10.511 12.25 12.375 12.25C14.239 12.25 15.75 10.739 15.75 8.875C15.75 7.01104 14.239 5.5 12.375 5.5Z" fill="#7E22CE"/>
  </g>
</svg>
