<svg width="24" height="24" viewBox="0 0 24 24" fill="none" xmlns="http://www.w3.org/2000/svg">
  <!-- lock-keyhole: Layer1 body at inset(34.38% 13.54% 5.21% 13.54%) => x=3.25 y=8.25 w=17.5 h=14.5 -->
  <g transform="translate(3.25,8.25)">
    <path opacity="0.4" d="M11.9821 1.84775e-07H5.5179C4.70506 -7.01401e-06 4.04944 -1.28187e-05 3.51853 0.043364C2.9719 0.088026 2.49175 0.182386 2.04754 0.408726C1.34193 0.768251 0.768251 1.34193 0.408726 2.04754C0.182386 2.49175 0.088026 2.9719 0.043364 3.51853C-1.28187e-05 4.04944 -7.01401e-06 4.70505 1.84775e-07 5.51788V8.98211C-7.01401e-06 9.79494 -1.28187e-05 10.4506 0.043364 10.9815C0.088026 11.5281 0.182386 12.0082 0.408726 12.4525C0.768251 13.1581 1.34193 13.7317 2.04754 14.0913C2.49175 14.3176 2.9719 14.412 3.51853 14.4566C4.04944 14.5 4.70505 14.5 5.51788 14.5H11.9821C12.795 14.5 13.4506 14.5 13.9815 14.4566C14.5281 14.412 15.0082 14.3176 15.4525 14.0913C16.1581 13.7317 16.7318 13.1581 17.0913 12.4525C17.3176 12.0082 17.412 11.5281 17.4566 10.9815C17.5 10.4506 17.5 9.79495 17.5 8.98212V5.51788C17.5 4.70505 17.5 4.04944 17.4566 3.51853C17.412 2.9719 17.3176 2.49175 17.0913 2.04754C16.7318 1.34193 16.1581 0.768251 15.4525 0.408726C15.0082 0.182386 14.5281 0.088026 13.9815 0.043364C13.4506 -1.28187e-05 12.7949 -7.01401e-06 11.9821 1.84775e-07Z" fill="#7E22CE"/>
  </g>
  <!-- Layer2 arch+keyhole at inset(5.21% 28.13% 21.88% 28.13%) => x=6.75 y=1.25 w=10.5 h=17.5 -->
  <g transform="translate(6.75,1.25)">
    <path d="M5.25 0C2.35051 0 0 2.35051 0 5.25V7.75C0 8.16421 0.335786 8.5 0.75 8.5C1.16421 8.5 1.5 8.16421 1.5 7.75V5.25C1.5 3.17893 3.17893 1.5 5.25 1.5C7.32107 1.5 9 3.17893 9 5.25V7.75C9 8.16421 9.33579 8.5 9.75 8.5C10.1642 8.5 10.5 8.16421 10.5 7.75V5.25C10.5 2.35051 8.14949 0 5.25 0Z" fill="#7E22CE"/>
    <path d="M4.5 15.1046C3.76704 14.8079 3.25 14.0893 3.25 13.25C3.25 12.1454 4.14543 11.25 5.25 11.25C6.35457 11.25 7.25 12.1454 7.25 13.25C7.25 14.0893 6.73296 14.8079 6 15.1046V16.75C6 17.1642 5.66421 17.5 5.25 17.5C4.83579 17.5 4.5 17.1642 4.5 16.75V15.1046Z" fill="#7E22CE"/>
  </g>
</svg>
