<svg width="24" height="24" viewBox="0 0 24 24" fill="none" xmlns="http://www.w3.org/2000/svg">
<path d="M8.76914 15.1369C8.9443 14.7616 8.78202 14.3153 8.40666 14.1401C8.03131 13.9649 7.58503 14.1272 7.40986 14.5026L8.0895 14.8197L8.76914 15.1369ZM3.82036 22.1944C3.6452 22.5698 3.80748 23.016 4.18284 23.1912C4.55819 23.3664 5.00447 23.2041 5.17964 22.8287L4.5 22.5116L3.82036 22.1944ZM7.03084 5.58797C6.74678 5.88943 6.76088 6.36409 7.06234 6.64816C7.3638 6.93222 7.83847 6.91812 8.12253 6.61666L7.57669 6.10231L7.03084 5.58797ZM7.9927 1.37595C7.64805 1.1462 7.1824 1.23934 6.95264 1.58399C6.72288 1.92864 6.81602 2.39429 7.16068 2.62405L7.57669 2L7.9927 1.37595ZM11.1332 5.58797C10.8491 5.88943 10.8632 6.36409 11.1647 6.64816C11.4661 6.93222 11.9408 6.91812 12.2248 6.61666L11.679 6.10231L11.1332 5.58797ZM12.095 1.37595C11.7504 1.1462 11.2847 1.23934 11.055 1.58399C10.8252 1.92864 10.9183 2.39429 11.263 2.62405L11.679 2L12.095 1.37595ZM15.2355 5.58797C14.9514 5.88943 14.9655 6.36409 15.267 6.64816C15.5684 6.93222 16.0431 6.91812 16.3272 6.61666L15.7813 6.10231L15.2355 5.58797ZM16.1973 1.37595C15.8527 1.1462 15.387 1.23934 15.1573 1.58399C14.9275 1.92864 15.0206 2.39429 15.3653 2.62405L15.7813 2L16.1973 1.37595ZM15.9482 14.5026C15.7731 14.1272 15.3268 13.9649 14.9514 14.1401C14.5761 14.3153 14.4138 14.7616 14.589 15.1369L15.2686 14.8197L15.9482 14.5026ZM16.7427 19.752C16.9178 20.1274 17.3641 20.2897 17.7395 20.1145C18.1148 19.9393 18.2771 19.4931 18.102 19.1177L17.4223 19.4349L16.7427 19.752ZM18.8321 8.76856L18.0848 8.70505L18.0848 8.70515L18.8321 8.76856ZM4.52597 8.76856L5.27328 8.70515L5.27327 8.70505L4.52597 8.76856ZM8.0895 14.8197L7.40986 14.5026L3.82036 22.1944L4.5 22.5116L5.17964 22.8287L8.76914 15.1369L8.0895 14.8197ZM7.57669 6.10231C8.12253 6.61666 8.12265 6.61654 8.12277 6.61641C8.12281 6.61636 8.12294 6.61623 8.12303 6.61614C8.12321 6.61595 8.1234 6.61574 8.12361 6.61551C8.12404 6.61506 8.12452 6.61454 8.12507 6.61396C8.12617 6.61279 8.12751 6.61134 8.1291 6.60964C8.13227 6.60622 8.13641 6.60174 8.14145 6.59624C8.15152 6.58523 8.16522 6.57009 8.18204 6.55112C8.21562 6.51323 8.26186 6.45978 8.31654 6.39319C8.42526 6.2608 8.57072 6.07244 8.71737 5.84797C8.99037 5.43013 9.35231 4.76169 9.35231 4.05116H8.60231H7.85231C7.85231 4.30334 7.70144 4.66048 7.46163 5.02754C7.35188 5.19552 7.24092 5.33944 7.15734 5.44122C7.11587 5.49171 7.08199 5.53081 7.05948 5.5562C7.04825 5.56888 7.03991 5.57806 7.03497 5.58347C7.03249 5.58617 7.03087 5.58792 7.03016 5.58869C7.02981 5.58907 7.02968 5.5892 7.02979 5.58908C7.02985 5.58902 7.02996 5.5889 7.03014 5.58872C7.03022 5.58862 7.03033 5.58851 7.03044 5.58839C7.0305 5.58833 7.0306 5.58822 7.03063 5.58819C7.03073 5.58808 7.03084 5.58797 7.57669 6.10231ZM8.60231 4.05116H9.35231C9.35231 3.1683 9.01856 2.50151 8.68949 2.06278C8.5258 1.84453 8.36155 1.67993 8.2352 1.56763C8.17174 1.51122 8.11694 1.46721 8.07528 1.43547C8.05442 1.41957 8.03675 1.40668 8.02284 1.39679C8.01587 1.39184 8.00984 1.38763 8.0048 1.38416C8.00227 1.38242 8 1.38087 7.99798 1.3795C7.99697 1.37882 7.99603 1.37818 7.99515 1.37759C7.99471 1.3773 7.99428 1.37701 7.99387 1.37674C7.99367 1.3766 7.99338 1.37641 7.99327 1.37634C7.99299 1.37614 7.9927 1.37595 7.57669 2C7.16068 2.62405 7.1604 2.62386 7.16012 2.62368C7.16004 2.62362 7.15977 2.62344 7.1596 2.62332C7.15925 2.62309 7.15892 2.62287 7.1586 2.62266C7.15797 2.62223 7.1574 2.62185 7.15688 2.6215C7.15585 2.6208 7.15505 2.62025 7.15446 2.61985C7.1533 2.61905 7.15303 2.61885 7.15358 2.61924C7.15468 2.62002 7.15905 2.62316 7.16624 2.62863C7.18067 2.63963 7.20599 2.65971 7.23868 2.68877C7.30464 2.74739 7.39679 2.83919 7.48951 2.9628C7.67325 3.20778 7.85231 3.56657 7.85231 4.05116H8.60231ZM11.679 6.10231C12.2248 6.61666 12.225 6.61654 12.2251 6.61641C12.2251 6.61636 12.2252 6.61623 12.2253 6.61614C12.2255 6.61595 12.2257 6.61574 12.2259 6.61551C12.2263 6.61506 12.2268 6.61454 12.2274 6.61396C12.2285 6.61279 12.2298 6.61134 12.2314 6.60964C12.2346 6.60622 12.2387 6.60174 12.2438 6.59624C12.2538 6.58523 12.2675 6.57009 12.2843 6.55112C12.3179 6.51323 12.3642 6.45978 12.4189 6.39319C12.5276 6.2608 12.673 6.07244 12.8197 5.84797C13.0927 5.43013 13.4546 4.76169 13.4546 4.05116H12.7046H11.9546C11.9546 4.30334 11.8038 4.66048 11.5639 5.02754C11.4542 5.19552 11.3432 5.33944 11.2597 5.44122C11.2182 5.49171 11.1843 5.53081 11.1618 5.5562C11.1506 5.56888 11.1422 5.57806 11.1373 5.58347C11.1348 5.58617 11.1332 5.58792 11.1325 5.58869C11.1321 5.58907 11.132 5.5892 11.1321 5.58908C11.1322 5.58902 11.1323 5.5889 11.1324 5.58872C11.1325 5.58862 11.1326 5.58851 11.1328 5.58839C11.1328 5.58833 11.1329 5.58822 11.1329 5.58819C11.133 5.58808 11.1332 5.58797 11.679 6.10231ZM12.7046 4.05116H13.4546C13.4546 3.1683 13.1209 2.50151 12.7918 2.06278C12.6281 1.84453 12.4639 1.67993 12.3375 1.56763C12.274 1.51122 12.2192 1.46721 12.1776 1.43547C12.1567 1.41957 12.1391 1.40668 12.1251 1.39679C12.1182 1.39184 12.1121 1.38763 12.1071 1.38416C12.1046 1.38242 12.1023 1.38087 12.1003 1.3795C12.0993 1.37882 12.0983 1.37818 12.0975 1.37759C12.097 1.3773 12.0966 1.37701 12.0962 1.37674C12.096 1.3766 12.0957 1.37641 12.0956 1.37634C12.0953 1.37614 12.095 1.37595 11.679 2C11.263 2.62405 11.2627 2.62386 11.2624 2.62368C11.2624 2.62362 11.2621 2.62344 11.2619 2.62332C11.2616 2.62309 11.2612 2.62287 11.2609 2.62266C11.2603 2.62223 11.2597 2.62185 11.2592 2.6215C11.2582 2.6208 11.2574 2.62025 11.2568 2.61985C11.2556 2.61905 11.2553 2.61885 11.2559 2.61924C11.257 2.62002 11.2614 2.62316 11.2686 2.62863C11.283 2.63963 11.3083 2.65971 11.341 2.68877C11.4069 2.74739 11.4991 2.83919 11.5918 2.9628C11.7756 3.20778 11.9546 3.56657 11.9546 4.05116H12.7046ZM15.7813 6.10231C16.3272 6.61666 16.3273 6.61654 16.3274 6.61641C16.3274 6.61636 16.3276 6.61623 16.3276 6.61614C16.3278 6.61595 16.328 6.61574 16.3282 6.61551C16.3287 6.61506 16.3291 6.61454 16.3297 6.61396C16.3308 6.61279 16.3321 6.61134 16.3337 6.60964C16.3369 6.60622 16.341 6.60174 16.3461 6.59624C16.3561 6.58523 16.3698 6.57009 16.3867 6.55112C16.4202 6.51323 16.4665 6.45978 16.5212 6.39319C16.6299 6.2608 16.7753 6.07244 16.922 5.84797C17.195 5.43013 17.5569 4.76169 17.5569 4.05116H16.8069H16.0569C16.0569 4.30334 15.9061 4.66048 15.6663 5.02754C15.5565 5.19552 15.4455 5.33944 15.362 5.44122C15.3205 5.49171 15.2866 5.53081 15.2641 5.5562C15.2529 5.56888 15.2445 5.57806 15.2396 5.58347C15.2371 5.58617 15.2355 5.58792 15.2348 5.58869C15.2344 5.58907 15.2343 5.5892 15.2344 5.58908C15.2345 5.58902 15.2346 5.5889 15.2348 5.58872C15.2348 5.58862 15.235 5.58851 15.2351 5.58839C15.2351 5.58833 15.2352 5.58822 15.2353 5.58819C15.2354 5.58808 15.2355 5.58797 15.7813 6.10231ZM16.8069 4.05116H17.5569C17.5569 3.1683 17.2232 2.50151 16.8941 2.06278C16.7304 1.84453 16.5662 1.67993 16.4398 1.56763C16.3764 1.51122 16.3216 1.46721 16.2799 1.43547C16.259 1.41957 16.2414 1.40668 16.2275 1.39679C16.2205 1.39184 16.2145 1.38763 16.2094 1.38416C16.2069 1.38242 16.2046 1.38087 16.2026 1.3795C16.2016 1.37882 16.2007 1.37818 16.1998 1.37759C16.1993 1.3773 16.1989 1.37701 16.1985 1.37674C16.1983 1.3766 16.198 1.37641 16.1979 1.37634C16.1976 1.37614 16.1973 1.37595 15.7813 2C15.3653 2.62405 15.365 2.62386 15.3647 2.62368C15.3647 2.62362 15.3644 2.62344 15.3642 2.62332C15.3639 2.62309 15.3635 2.62287 15.3632 2.62266C15.3626 2.62223 15.362 2.62185 15.3615 2.6215C15.3605 2.6208 15.3597 2.62025 15.3591 2.61985C15.3579 2.61905 15.3577 2.61885 15.3582 2.61924C15.3593 2.62002 15.3637 2.62316 15.3709 2.62863C15.3853 2.63963 15.4106 2.65971 15.4433 2.68877C15.5093 2.74739 15.6014 2.83919 15.6941 2.9628C15.8779 3.20778 16.0569 3.56657 16.0569 4.05116H16.8069ZM16.2941 17.8964V17.1464H7.06388V17.8964V18.6464H16.2941V17.8964ZM15.2686 14.8197L14.589 15.1369L16.7427 19.752L17.4223 19.4349L18.102 19.1177L15.9482 14.5026L15.2686 14.8197ZM18.3453 22.5116V23.2616C19.6091 23.2616 20.6337 22.237 20.6337 20.9732H19.8837H19.1337C19.1337 21.4085 18.7808 21.7616 18.3453 21.7616V22.5116ZM19.8837 20.9732H20.6337C20.6337 19.7094 19.6091 18.6849 18.3453 18.6849V19.4349V20.1849C18.7808 20.1849 19.1337 20.5379 19.1337 20.9732H19.8837ZM18.3453 19.4349V18.6849C17.0814 18.6849 16.0569 19.7095 16.0569 20.9732H16.8069H17.5569C17.5569 20.5378 17.9099 20.1849 18.3453 20.1849V19.4349ZM16.8069 20.9732H16.0569C16.0569 22.237 17.0815 23.2616 18.3453 23.2616V22.5116V21.7616C17.9099 21.7616 17.5569 21.4086 17.5569 20.9732H16.8069ZM11.679 15.3326V16.0826C15.8297 16.0826 19.2348 12.8939 19.5794 8.83197L18.8321 8.76856L18.0848 8.70515C17.8055 11.9972 15.0438 14.5826 11.679 14.5826V15.3326ZM18.8321 8.76856L19.5794 8.83208C19.649 8.0139 18.9788 7.40347 18.2427 7.40347V8.15347V8.90347C18.2077 8.90347 18.1692 8.88891 18.1382 8.85711C18.1047 8.82272 18.0796 8.766 18.0848 8.70505L18.8321 8.76856ZM18.2427 8.15347V7.40347H5.11528V8.15347V8.90347H18.2427V8.15347ZM5.11528 8.15347V7.40347C4.37922 7.40347 3.70913 8.01398 3.77866 8.83208L4.52597 8.76856L5.27327 8.70505C5.27845 8.766 5.25336 8.8227 5.21991 8.85708C5.18897 8.88887 5.15041 8.90347 5.11528 8.90347V8.15347ZM4.52597 8.76856L3.77865 8.83197C4.12331 12.8939 7.52835 16.0826 11.679 16.0826V15.3326V14.5826C8.31427 14.5826 5.55262 11.9972 5.27328 8.70515L4.52597 8.76856Z" fill="#404040"/>
</svg>
