<svg width="24" height="24" viewBox="0 0 24 24" fill="none" xmlns="http://www.w3.org/2000/svg">
<path d="M3.75 23.25C3.75 23.6642 4.08579 24 4.5 24C4.91421 24 5.25 23.6642 5.25 23.25H4.5H3.75ZM4.71967 9.96967L5.24996 10.5L5.25 10.5L4.71967 9.96967ZM16.2803 9.96967L15.7499 10.4999L15.7501 10.5001L16.2803 9.96967ZM15.75 23.25C15.75 23.6642 16.0858 24 16.5 24C16.9142 24 17.25 23.6642 17.25 23.25H16.5H15.75ZM11.25 9.75C11.25 9.33579 10.9142 9 10.5 9C10.0858 9 9.75 9.33579 9.75 9.75H10.5H11.25ZM9.75 23.25C9.75 23.6642 10.0858 24 10.5 24C10.9142 24 11.25 23.6642 11.25 23.25H10.5H9.75ZM7.5 5.25C7.08579 5.25 6.75 5.58579 6.75 6C6.75 6.41421 7.08579 6.75 7.5 6.75V6V5.25ZM13.5 6.75C13.9142 6.75 14.25 6.41421 14.25 6C14.25 5.58579 13.9142 5.25 13.5 5.25V6V6.75ZM22.25 0.75V0H1.75V0.75V1.5H22.25V0.75ZM1.75 0.75V0C0.783506 0 0 0.783506 0 1.75H0.75H1.5C1.5 1.61193 1.61193 1.5 1.75 1.5V0.75ZM0.75 1.75H0V22.25H0.75H1.5V1.75H0.75ZM0.75 22.25H0C0 23.2165 0.783516 24 1.75 24V23.25V22.5C1.61192 22.5 1.5 22.3881 1.5 22.25H0.75ZM1.75 23.25V24H22.25V23.25V22.5H1.75V23.25ZM22.25 23.25V24C23.2165 24 24 23.2165 24 22.25H23.25H22.5C22.5 22.3881 22.3881 22.5 22.25 22.5V23.25ZM23.25 22.25H24V1.75H23.25H22.5V22.25H23.25ZM23.25 1.75H24C24 0.783516 23.2165 0 22.25 0V0.75V1.5C22.3881 1.5 22.5 1.61192 22.5 1.75H23.25ZM4.5 23.25H5.25V10.5H4.5H3.75V23.25H4.5ZM4.5 10.5H5.25L5.24996 10.5L4.71967 9.96967L4.18938 9.4393C3.90801 9.72063 3.75 10.1022 3.75 10.5H4.5ZM4.71967 9.96967L5.25 10.5V10.5V9.75V9C4.85218 9 4.47064 9.15804 4.18934 9.43934L4.71967 9.96967ZM5.25 9.75V10.5H15.75V9.75V9H5.25V9.75ZM15.75 9.75V10.5L15.7499 10.4999L16.2803 9.96967L16.8107 9.43943C16.5294 9.15801 16.1478 9 15.75 9V9.75ZM16.2803 9.96967L15.7501 10.5001L15.75 10.5H16.5H17.25C17.25 10.1023 17.092 9.7206 16.8105 9.43921L16.2803 9.96967ZM16.5 10.5H15.75V23.25H16.5H17.25V10.5H16.5ZM10.5 9.75H9.75V23.25H10.5H11.25V9.75H10.5ZM19.875 14.25V13.5C20.0821 13.5 20.25 13.6679 20.25 13.875H19.5H18.75C18.75 14.4963 19.2537 15 19.875 15V14.25ZM19.5 13.875H20.25C20.25 14.0821 20.0821 14.25 19.875 14.25V13.5V12.75C19.2537 12.75 18.75 13.2537 18.75 13.875H19.5ZM19.875 14.25V15C20.4963 15 21 14.4963 21 13.875H20.25H19.5C19.5 13.6679 19.6679 13.5 19.875 13.5V14.25ZM20.25 13.875H21C21 13.2537 20.4963 12.75 19.875 12.75V13.5V14.25C19.6679 14.25 19.5 14.0821 19.5 13.875H20.25ZM19.875 18V17.25C20.0821 17.25 20.25 17.4179 20.25 17.625H19.5H18.75C18.75 18.2463 19.2537 18.75 19.875 18.75V18ZM19.5 17.625H20.25C20.25 17.8321 20.0821 18 19.875 18V17.25V16.5C19.2537 16.5 18.75 17.0037 18.75 17.625H19.5ZM19.875 18V18.75C20.4963 18.75 21 18.2463 21 17.625H20.25H19.5C19.5 17.4179 19.6679 17.25 19.875 17.25V18ZM20.25 17.625H21C21 17.0037 20.4963 16.5 19.875 16.5V17.25V18C19.6679 18 19.5 17.8321 19.5 17.625H20.25ZM7.5 6V6.75H13.5V6V5.25H7.5V6Z" fill="#404040"/>
</svg>
