<svg preserveAspectRatio="xMidYMid meet" width="100%" height="100%" viewBox="0 0 18.75 18.8858" fill="none" xmlns="http://www.w3.org/2000/svg">
<g id="document-certificate--document-contract-license-permission-award">
<path id="Subtract" fill-rule="evenodd" clip-rule="evenodd" d="M15.9819 0.194275C14.6215 0.0994375 12.4597 0 9.375 0C6.29029 0 4.12846 0.0994333 2.76808 0.194275C1.40736 0.289138 0.325621 1.31611 0.204754 2.69121C0.100908 3.87263 0 5.65588 0 8.125C0 10.5941 0.100908 12.3774 0.20475 13.5588C0.325617 14.9339 1.40735 15.9609 2.76808 16.0557C4.03633 16.1441 6.00117 16.2365 8.76096 16.2487L8.75612 16.2439C8.27242 15.7602 7.9945 15.148 7.92146 14.5185C7.528 14.0218 7.29167 13.3924 7.29167 12.7083C7.29167 12.0243 7.528 11.3949 7.92146 10.8981C7.9945 10.2687 8.27242 9.6565 8.75612 9.17279C9.23983 8.68908 9.852 8.41113 10.4815 8.33808C10.9782 7.94467 11.6076 7.70833 12.2917 7.70833C12.9757 7.70833 13.6051 7.94467 14.1019 8.33808C14.7313 8.41113 15.3435 8.68908 15.8272 9.17279C16.3109 9.6565 16.5889 10.2687 16.6619 10.8981C17.0553 11.3949 17.2917 12.0243 17.2917 12.7083C17.2917 13.3924 17.0554 14.0218 16.6619 14.5185C16.5981 15.0684 16.378 15.605 16.0009 16.0543C17.3527 15.9513 18.425 14.9275 18.5452 13.5588C18.6491 12.3774 18.75 10.5941 18.75 8.125C18.75 5.65588 18.6491 3.87263 18.5452 2.69121C18.4244 1.31611 17.3426 0.289138 15.9819 0.194275Z" fill="#8FBFFA"/>
<path id="Subtract_2" fill-rule="evenodd" clip-rule="evenodd" d="M3.54167 4.375C3.54167 3.91475 3.91475 3.54167 4.375 3.54167H13.125C13.5853 3.54167 13.9583 3.91475 13.9583 4.375C13.9583 4.83525 13.5853 5.20833 13.125 5.20833H4.375C3.91475 5.20833 3.54167 4.83525 3.54167 4.375ZM4.375 6.875C3.91475 6.875 3.54167 7.24808 3.54167 7.70833C3.54167 8.16858 3.91475 8.54167 4.375 8.54167H6.875C7.33525 8.54167 7.70833 8.16858 7.70833 7.70833C7.70833 7.24808 7.33525 6.875 6.875 6.875H4.375Z" fill="#2859C5"/>
<path id="Union" fill-rule="evenodd" clip-rule="evenodd" d="M8.54167 12.7083C8.54167 13.2321 8.78329 13.6995 9.16117 14.005C9.11004 14.4883 9.26963 14.9896 9.64004 15.36C9.91621 15.6362 10.2653 15.7952 10.6253 15.837C10.6279 16.6241 10.6497 17.5346 10.7084 18.502C10.7297 18.8521 11.1493 19.0122 11.4024 18.7694L12.0754 18.1241C12.1963 18.0082 12.3871 18.0082 12.508 18.1241L13.1809 18.7694C13.4341 19.0122 13.8536 18.8521 13.8749 18.502C13.9337 17.5346 13.9554 16.6241 13.958 15.837C14.3181 15.7952 14.6671 15.6362 14.9433 15.36C15.3137 14.9896 15.4733 14.4883 15.4222 14.005C15.8 13.6995 16.0417 13.2321 16.0417 12.7083C16.0417 12.1845 15.8 11.7172 15.4222 11.4116C15.4733 10.9284 15.3137 10.4271 14.9433 10.0567C14.573 9.68629 14.0716 9.52671 13.5884 9.57783C13.2828 9.19996 12.8155 8.95833 12.2917 8.95833C11.7679 8.95833 11.3005 9.19996 10.995 9.57783C10.5117 9.52671 10.0104 9.68629 9.64004 10.0567C9.26963 10.427 9.11004 10.9284 9.16117 11.4116C8.78329 11.7172 8.54167 12.1845 8.54167 12.7083Z" fill="#2859C5"/>
<path id="Ellipse 70" d="M11.25 12.7083C11.25 12.9846 11.3597 13.2496 11.5551 13.4449C11.7504 13.6403 12.0154 13.75 12.2917 13.75C12.5679 13.75 12.8329 13.6403 13.0282 13.4449C13.2236 13.2496 13.3333 12.9846 13.3333 12.7083C13.3333 12.4321 13.2236 12.1671 13.0282 11.9718C12.8329 11.7764 12.5679 11.6667 12.2917 11.6667C12.0154 11.6667 11.7504 11.7764 11.5551 11.9718C11.3597 12.1671 11.25 12.4321 11.25 12.7083Z" fill="#8FBFFA"/>
</g>
</svg>
