<svg preserveAspectRatio="none" width="100%" height="100%" overflow="visible" style="display: block;" viewBox="0 0 36 36" fill="none" xmlns="http://www.w3.org/2000/svg">
<g id="Habi">
<path id="Vector" d="M27.8924 6.27368C29.2054 6.27368 30.273 7.33654 30.2732 8.65161C30.2732 9.96686 29.2056 11.0305 27.8924 11.0305C26.5792 11.0305 25.5115 9.96686 25.5115 8.65161C25.5117 7.33655 26.5793 6.27369 27.8924 6.27368Z" fill="var(--fill-0, #FF565C)" stroke="var(--stroke-0, white)" stroke-width="2"/>
<path id="Vector_2" d="M14.6364 4.78418C16.5542 3.07247 19.4463 3.07233 21.364 4.78418L21.5525 4.96094L31.6101 14.8838C32.5941 15.8547 33.1432 17.1787 33.1433 18.5586V27.3604C33.1433 30.1903 30.8818 32.4998 28.0612 32.5H7.94601C5.11855 32.5 2.85714 30.1837 2.85714 27.3604V18.5586C2.85726 17.1787 3.40624 15.8547 4.39035 14.8838L14.448 4.96094L14.6364 4.78418Z" fill="var(--fill-0, #7955F9)" stroke="var(--stroke-0, white)" stroke-width="2"/>
<path id="Union" d="M16.1347 21.1451C16.8387 21.1451 17.3241 21.3842 17.5839 21.7867L17.6864 21.2613H19.4159V26.1949H17.7138L17.6318 25.6627C17.2079 26.1401 16.5516 26.311 15.998 26.2837C14.5489 26.195 13.7353 25.1639 13.7353 23.7242C13.7354 22.2642 14.6994 21.1452 16.1347 21.1451ZM22.3349 21.6773H22.3417C22.6152 21.3499 23.0801 21.1451 23.7157 21.1451C25.158 21.1451 26.115 22.2165 26.1152 23.7242C26.1152 25.2799 25.3017 26.195 23.8525 26.2837C23.2988 26.311 22.6425 26.1402 22.2187 25.6627L22.1366 26.1949H20.496V19.2007H22.3349V21.6773ZM28.788 21.3365V26.1949H26.9355V21.3365H28.788ZM9.74309 21.7867C10.0917 21.3364 10.4746 21.1451 11.0624 21.1451C12.0605 21.1451 13.0038 21.7936 13.0038 23.4517V26.188H11.1718V23.4586C11.1513 22.899 10.871 22.7281 10.5019 22.7281C10.1396 22.7281 9.74309 23.0016 9.72941 23.5748V26.1812H7.87687V19.2007H9.74309V21.7867ZM23.2919 22.6402C22.6426 22.6402 22.3008 23.1786 22.3007 23.7789C22.3007 24.2974 22.6698 24.8091 23.2919 24.8091C23.8456 24.8091 24.2831 24.4202 24.2831 23.731C24.2829 23.0421 23.8455 22.6402 23.2919 22.6402ZM16.5654 22.6324C16.0187 22.6393 15.5743 23.0353 15.5741 23.7242C15.5741 24.4133 16.0117 24.8022 16.5654 24.8023C17.1874 24.8023 17.5839 24.3042 17.5839 23.7242C17.5838 23.0625 17.2146 22.6324 16.5654 22.6324Z" fill="var(--fill-0, white)"/>
<path id="Vector_3" d="M27.8924 10.0303C28.655 10.0303 29.2733 9.41323 29.2733 8.65201C29.2733 7.89078 28.655 7.27368 27.8924 7.27368C27.1298 7.27368 26.5115 7.89078 26.5115 8.65201C26.5115 9.41323 27.1298 10.0303 27.8924 10.0303Z" fill="var(--fill-0, #FF565C)"/>
</g>
</svg>
