<svg preserveAspectRatio="none" width="100%" height="100%" overflow="visible" style="display: block;" viewBox="0 0 16.3535 12.4322" fill="none" xmlns="http://www.w3.org/2000/svg">
<g id="snail-speed-slow-fill">
<path id="Union" d="M3.40503 1.44446C5.37014 -0.520476 8.57062 -0.474838 10.4788 1.54553L10.8025 1.88831C11.1879 2.29638 11.4967 2.74952 11.7304 3.22937C11.7699 3.1832 11.8111 3.13865 11.8535 3.09533V0.43225H13.3535V2.33362C13.4759 2.31613 13.6013 2.30725 13.7285 2.30725C13.8558 2.30726 13.981 2.31608 14.1035 2.33362V0.43225H15.6035V3.09607C16.0671 3.56946 16.3535 4.21735 16.3535 4.93225V7.18225C16.3535 10.0816 14.0029 12.4321 11.1035 12.4322H0L0.717771 11.2845C1.44683 10.1182 2.48275 9.20755 3.68482 8.6317C3.52703 8.51755 3.37578 8.39005 3.23365 8.24793C1.40252 6.4165 1.40233 3.44715 3.23365 1.61584L3.40503 1.44446ZM9.38819 2.57531C8.06047 1.1696 5.83378 1.13807 4.46631 2.505L4.29493 2.67712C3.04931 3.92273 3.04931 5.94175 4.29493 7.18735C5.1559 8.04805 6.5512 8.0482 7.41209 7.18735L7.76077 6.8395C8.19247 6.40757 8.19247 5.707 7.76077 5.275L7.38577 4.9C7.16092 4.67522 6.79618 4.6753 6.57129 4.9L6.38379 5.0875C6.26251 5.20885 6.26248 5.40565 6.38379 5.527L5.32324 6.5875C4.61615 5.8804 4.61617 4.7341 5.32324 4.02698L5.51074 3.83948C6.32142 3.02898 7.63567 3.02887 8.44627 3.83948L8.82127 4.2145C9.83879 5.23217 9.83879 6.88232 8.82127 7.9L8.78909 7.93225H9.04102C9.49409 7.93217 9.91147 7.78375 10.2517 7.53602C11.093 6.08192 10.918 4.19612 9.71189 2.91882L9.38819 2.57531Z" fill="var(--fill-0, white)"/>
</g>
</svg>
