<svg preserveAspectRatio="none" width="100%" height="100%" overflow="visible" style="display: block;" viewBox="0 0 19.5833 17.9167" fill="none" xmlns="http://www.w3.org/2000/svg">
<g id="Vector 1">
<path d="M5.26449 1.14364e-07H10.1522C10.9459 -5.04931e-06 11.5797 -9.17353e-06 12.0916 0.0418134C12.6166 0.0847085 13.0681 0.174695 13.4829 0.386019C14.1493 0.72557 14.6911 1.26738 15.0306 1.93378C15.242 2.34853 15.332 2.8001 15.3749 3.32511C15.4167 3.83698 15.4167 4.47075 15.4167 5.26442V6.51743C15.4167 6.86261 15.1368 7.14243 14.7917 7.14243C14.4465 7.14243 14.1667 6.86261 14.1667 6.51743V5.29167C14.1667 4.46461 14.1662 3.88191 14.129 3.4269C14.0924 2.97919 14.0235 2.71043 13.9169 2.50127C13.6972 2.07007 13.3466 1.71949 12.9154 1.49978C12.7062 1.3932 12.4375 1.32424 11.9898 1.28766C11.5348 1.25049 10.9521 1.25 10.125 1.25H5.29167C4.46461 1.25 3.88191 1.25049 3.4269 1.28766C2.97919 1.32424 2.71043 1.3932 2.50127 1.49978C2.07007 1.71949 1.71949 2.07007 1.49978 2.50127C1.3932 2.71043 1.32424 2.97919 1.28766 3.4269C1.25049 3.88191 1.25 4.46461 1.25 5.29167V12.625C1.25 13.4521 1.25049 14.0348 1.28766 14.4898C1.32424 14.9375 1.3932 15.2062 1.49978 15.4154C1.71949 15.8466 2.07007 16.1972 2.50127 16.4169C2.71043 16.5235 2.97919 16.5924 3.4269 16.629C3.88191 16.6662 4.46461 16.6667 5.29167 16.6667H10.125C10.8576 16.6667 11.4001 16.6664 11.8347 16.64C12.1792 16.619 12.4755 16.8814 12.4965 17.2259C12.5174 17.5704 12.2551 17.8667 11.9105 17.8877C11.4337 17.9167 10.8536 17.9167 10.1442 17.9167H5.26448C4.47081 17.9167 3.83698 17.9167 3.32511 17.8749C2.8001 17.832 2.34853 17.742 1.93378 17.5306C1.26738 17.1911 0.72557 16.6493 0.386019 15.9829C0.174695 15.5681 0.0847085 15.1166 0.0418134 14.5916C-9.17353e-06 14.0797 -5.04931e-06 13.4459 1.14364e-07 12.6522V5.26449C-5.04931e-06 4.47079 -9.17353e-06 3.83699 0.0418134 3.32511C0.0847085 2.8001 0.174695 2.34853 0.386019 1.93378C0.725571 1.26738 1.26738 0.725571 1.93378 0.386019C2.34853 0.174695 2.8001 0.0847085 3.32511 0.0418134C3.83699 -9.17353e-06 4.47079 -5.04931e-06 5.26449 1.14364e-07Z" fill="var(--fill-0, #2345F0)"/>
<path d="M7.5 5.9082C7.5 5.56302 7.77982 5.2832 8.125 5.2832H11.0417C11.3868 5.2832 11.6667 5.56302 11.6667 5.9082C11.6667 6.25338 11.3868 6.5332 11.0417 6.5332H8.125C7.77982 6.5332 7.5 6.25338 7.5 5.9082Z" fill="var(--fill-0, #2345F0)"/>
<path d="M7.5 9.09993C7.5 8.75476 7.77982 8.47493 8.125 8.47493H10.7423C11.0875 8.47493 11.3673 8.75476 11.3673 9.09993C11.3673 9.44511 11.0875 9.72493 10.7423 9.72493H8.125C7.77982 9.72493 7.5 9.44511 7.5 9.09993Z" fill="var(--fill-0, #2345F0)"/>
<path d="M6.875 12.2916C6.875 11.9464 7.15482 11.6666 7.5 11.6666H9.79167C10.1368 11.6666 10.4167 11.9464 10.4167 12.2916C10.4167 12.6367 10.1368 12.9166 9.79167 12.9166H7.5C7.15482 12.9166 6.875 12.6367 6.875 12.2916Z" fill="var(--fill-0, #2345F0)"/>
<path d="M6.49287 5.84081C6.73172 5.59162 6.72334 5.19598 6.47415 4.95712C6.22496 4.71827 5.82932 4.72665 5.59047 4.97584L4.9682 5.62504L4.81795 5.4741C4.57443 5.22946 4.1787 5.22856 3.93407 5.47208C3.68943 5.7156 3.68853 6.11133 3.93205 6.35596L4.5337 6.96037C4.65244 7.07965 4.81426 7.146 4.98256 7.14441C5.15085 7.14282 5.31139 7.07342 5.42785 6.95192L6.49287 5.84081Z" fill="var(--fill-0, #2345F0)"/>
<path d="M6.47415 8.14886C6.72334 8.38771 6.73172 8.78335 6.49287 9.03254L5.42785 10.1437C5.31139 10.2652 5.15085 10.3346 4.98256 10.3361C4.81426 10.3377 4.65244 10.2714 4.5337 10.1521L3.93205 9.54769C3.68853 9.30306 3.68943 8.90733 3.93407 8.66381C4.1787 8.42029 4.57443 8.4212 4.81795 8.66583L4.9682 8.81677L5.59046 8.16757C5.82932 7.91838 6.22496 7.91 6.47415 8.14886Z" fill="var(--fill-0, #2345F0)"/>
<path d="M5.20833 11.4583C4.7481 11.4583 4.375 11.8314 4.375 12.2917C4.375 12.7519 4.7481 13.125 5.20833 13.125C5.66857 13.125 6.04175 12.7519 6.04175 12.2917C6.04175 11.8314 5.66857 11.4583 5.20833 11.4583Z" fill="var(--fill-0, #2345F0)"/>
<path fill-rule="evenodd" clip-rule="evenodd" d="M15.625 10.5208C14.647 10.5208 13.8542 11.3137 13.8542 12.2917C13.8542 13.2697 14.647 14.0625 15.625 14.0625C16.603 14.0625 17.3959 13.2697 17.3959 12.2917C17.3959 11.3137 16.603 10.5208 15.625 10.5208ZM14.8958 12.2917C14.8958 11.889 15.2223 11.5625 15.625 11.5625C16.0277 11.5625 16.3542 11.889 16.3542 12.2917C16.3542 12.6944 16.0277 13.0209 15.625 13.0209C15.2223 13.0209 14.8958 12.6944 14.8958 12.2917Z" fill="var(--fill-0, #2345F0)"/>
<path fill-rule="evenodd" clip-rule="evenodd" d="M11.6667 12.2934C11.6667 10.1076 13.4385 8.33333 15.6251 8.33333C17.8112 8.33333 19.5833 10.1055 19.5833 12.2917C19.5833 14.7083 17.6667 16.5417 16 17.7917C15.7778 17.9583 15.4722 17.9583 15.25 17.7917C13.5835 16.5418 11.6667 14.7084 11.6667 12.2934ZM15.6251 9.58333C14.1297 9.58333 12.9167 10.7972 12.9167 12.2934C12.9167 13.9088 14.1262 15.3123 15.625 16.5025C17.1237 15.3123 18.3333 13.9087 18.3333 12.2917C18.3333 10.7959 17.1208 9.58333 15.6251 9.58333Z" fill="var(--fill-0, #2345F0)"/>
</g>
</svg>
