<svg preserveAspectRatio="none" width="100%" height="100%" overflow="visible" style="display: block;" viewBox="0 0 12.8592 9.77579" fill="none" xmlns="http://www.w3.org/2000/svg">
<g id="snail-speed-slow-fill">
<path id="Union" d="M2.67746 1.13581C4.22268 -0.409263 6.73929 -0.373377 8.23971 1.21529L8.49425 1.48482C8.79732 1.8057 9.04011 2.16202 9.22394 2.53933C9.25496 2.50303 9.28733 2.468 9.32071 2.43394V0.339889H10.5002V1.83498C10.5964 1.82123 10.6951 1.81425 10.7951 1.81425C10.8952 1.81426 10.9936 1.82119 11.0899 1.83498V0.339889H12.2694V2.43452C12.634 2.80676 12.8592 3.31621 12.8592 3.87835V5.64758C12.8592 7.92741 11.0108 9.77567 8.73097 9.77579H0L0.564401 8.8733C1.13768 7.95619 1.95225 7.24012 2.89746 6.78732C2.77339 6.69756 2.65446 6.5973 2.5427 6.48555C1.10284 5.04545 1.10269 2.71058 2.5427 1.27057L2.67746 1.13581ZM7.38217 2.02503C6.33814 0.919689 4.58724 0.894896 3.51197 1.96975L3.37721 2.10509C2.39775 3.08454 2.39775 4.67214 3.37721 5.65159C4.05421 6.32838 5.15137 6.3285 5.82831 5.65159L6.10248 5.37807C6.44194 5.03843 6.44194 4.48755 6.10248 4.14786L5.80761 3.85299C5.63081 3.67624 5.344 3.6763 5.16717 3.85299L5.01973 4.00043C4.92437 4.09585 4.92435 4.2506 5.01973 4.34602L4.1858 5.17991C3.62979 4.6239 3.62981 3.72254 4.1858 3.16651L4.33323 3.01908C4.97069 2.38176 6.00411 2.38167 6.64151 3.01908L6.93638 3.31397C7.73649 4.11419 7.73649 5.41174 6.93638 6.21197L6.91108 6.23732H7.10917C7.46544 6.23727 7.79363 6.12055 8.0612 5.92576C8.72271 4.78237 8.58507 3.29952 7.6367 2.29514L7.38217 2.02503Z" fill="var(--fill-0, black)"/>
</g>
</svg>
