<svg preserveAspectRatio="none" width="100%" height="100%" overflow="visible" style="display: block;" viewBox="0 0 24.7692 24.7692" fill="none" xmlns="http://www.w3.org/2000/svg">
<path id="Vector" d="M23.2057 9.60029C22.7888 9.16462 22.3575 8.71567 22.195 8.32091C22.0446 7.95933 22.0358 7.36 22.0269 6.77947C22.0103 5.70024 21.9926 4.47726 21.1423 3.62692C20.292 2.77659 19.069 2.75889 17.9898 2.74231C17.4092 2.73346 16.8099 2.72462 16.4483 2.57423C16.0547 2.41168 15.6046 1.98043 15.1689 1.56356C14.406 0.830433 13.539 0 12.3846 0C11.2302 0 10.3644 0.830433 9.60029 1.56356C9.16462 1.98043 8.71567 2.41168 8.32091 2.57423C7.96154 2.72462 7.36 2.73346 6.77947 2.74231C5.70024 2.75889 4.47726 2.77659 3.62692 3.62692C2.77659 4.47726 2.76442 5.70024 2.74231 6.77947C2.73346 7.36 2.72462 7.95933 2.57423 8.32091C2.41168 8.71457 1.98043 9.16462 1.56356 9.60029C0.830433 10.3633 0 11.2302 0 12.3846C0 13.539 0.830433 14.4049 1.56356 15.1689C1.98043 15.6046 2.41168 16.0536 2.57423 16.4483C2.72462 16.8099 2.73346 17.4092 2.74231 17.9898C2.75889 19.069 2.77659 20.292 3.62692 21.1423C4.47726 21.9926 5.70024 22.0103 6.77947 22.0269C7.36 22.0358 7.95933 22.0446 8.32091 22.195C8.71457 22.3575 9.16462 22.7888 9.60029 23.2057C10.3633 23.9388 11.2302 24.7692 12.3846 24.7692C13.539 24.7692 14.4049 23.9388 15.1689 23.2057C15.6046 22.7888 16.0536 22.3575 16.4483 22.195C16.8099 22.0446 17.4092 22.0358 17.9898 22.0269C19.069 22.0103 20.292 21.9926 21.1423 21.1423C21.9926 20.292 22.0103 19.069 22.0269 17.9898C22.0358 17.4092 22.0446 16.8099 22.195 16.4483C22.3575 16.0547 22.7888 15.6046 23.2057 15.1689C23.9388 14.406 24.7692 13.539 24.7692 12.3846C24.7692 11.2302 23.9388 10.3644 23.2057 9.60029ZM17.4336 10.3566L11.2413 16.5489C11.1591 16.6312 11.0615 16.6964 10.9541 16.741C10.8467 16.7855 10.7316 16.8084 10.6154 16.8084C10.4991 16.8084 10.384 16.7855 10.2766 16.741C10.1692 16.6964 10.0717 16.6312 9.98952 16.5489L7.33567 13.8951C7.16968 13.7291 7.07643 13.504 7.07643 13.2692C7.07643 13.0345 7.16968 12.8094 7.33567 12.6434C7.50166 12.4774 7.72679 12.3841 7.96154 12.3841C8.19628 12.3841 8.42141 12.4774 8.5874 12.6434L10.6154 14.6725L16.1818 9.1049C16.264 9.02271 16.3616 8.95752 16.469 8.91304C16.5764 8.86856 16.6915 8.84566 16.8077 8.84566C16.9239 8.84566 17.039 8.86856 17.1464 8.91304C17.2538 8.95752 17.3514 9.02271 17.4336 9.1049C17.5157 9.18709 17.5809 9.28467 17.6254 9.39205C17.6699 9.49944 17.6928 9.61454 17.6928 9.73077C17.6928 9.847 17.6699 9.9621 17.6254 10.0695C17.5809 10.1769 17.5157 10.2744 17.4336 10.3566Z" fill="var(--fill-0, #9333EA)"/>
</svg>
