<svg preserveAspectRatio="none" width="100%" height="100%" overflow="visible" style="display: block;" viewBox="0 0 16.4309 12.6643" fill="none" xmlns="http://www.w3.org/2000/svg">
<path id="Vector 2" opacity="0.4" d="M12.3597 1.32295C12.465 1.01439 12.4133 0.673874 12.2211 0.410514C12.0289 0.147154 11.7204 -0.00598071 11.3944 0.000178997C6.64272 0.0899689 1.56128 2.58975 0.132975 7.75028C-0.0204544 8.30463 -0.0181368 8.88176 0.0263669 9.34701C0.193567 11.095 1.5762 12.48 3.32426 12.6476C3.49979 12.6644 3.69575 12.6644 3.94993 12.6643L15.4309 12.6643C15.8391 12.6643 16.2063 12.4162 16.3587 12.0375C16.511 11.6587 16.4179 11.2255 16.1233 10.9428C14.8676 9.73757 13.9708 8.74121 13.4093 7.95986C11.9845 5.97565 11.6511 3.39962 12.3597 1.32295Z" fill="var(--fill-0, #9333EA)"/>
</svg>
