<svg preserveAspectRatio="none" width="100%" height="100%" overflow="visible" style="display: block;" viewBox="0 0 14.8259 14.7431" fill="none" xmlns="http://www.w3.org/2000/svg">
<g id="justice-hammer--hammer-work-mallet-office-company-gavel-justice-judge-arbitration-court">
<path id="Union" fill-rule="evenodd" clip-rule="evenodd" d="M4.06701 6.58466C3.43938 5.95704 3.43938 4.93945 4.06701 4.31182L7.90811 0.470721C8.53574 -0.156907 9.55333 -0.156907 10.181 0.470721L11.878 2.16778C12.5056 2.79541 12.5056 3.813 11.878 4.44062L10.5313 5.78736L14.5905 9.84654C14.9043 10.1604 14.9043 10.6691 14.5905 10.9829C14.2767 11.2967 13.7679 11.2967 13.454 10.9829L9.39486 6.92378L8.03691 8.28172C7.40928 8.90935 6.39169 8.90935 5.76406 8.28172L4.06701 6.58466ZM1.33929 13.136H0.803572C0.359771 13.136 0 13.4957 0 13.9395C0 14.3833 0.359771 14.7431 0.803572 14.7431H8.83929C9.28308 14.7431 9.64286 14.3833 9.64286 13.9395C9.64286 13.4957 9.28308 13.136 8.83929 13.136H8.30357V11.261C8.30357 10.9651 8.06372 10.7252 7.76786 10.7252H1.875C1.57914 10.7252 1.33929 10.9651 1.33929 11.261V13.136Z" fill="var(--fill-0, black)"/>
</g>
</svg>
