<svg preserveAspectRatio="none" width="100%" height="100%" overflow="visible" style="display: block;" viewBox="0 0 16 16" fill="none" xmlns="http://www.w3.org/2000/svg">
<g id="Home-Work-Fill--Streamline-Rounded-Fill-Material">
<path id="Vector" d="M0.666667 8.01667C0.666667 7.8611 0.702777 7.70833 0.775 7.55833C0.847223 7.40833 0.95 7.2889 1.08333 7.2L4.6 4.68333C4.69267 4.6181 4.7875 4.57127 4.8845 4.54283C4.9814 4.51427 5.08043 4.5 5.18167 4.5C5.28277 4.5 5.38217 4.51427 5.47983 4.54283C5.5776 4.57127 5.67323 4.6181 5.76667 4.68333L9.26667 7.2C9.4 7.2889 9.50277 7.40833 9.575 7.55833C9.64723 7.70833 9.68333 7.8611 9.68333 8.01667V13C9.68333 13.275 9.58543 13.5104 9.38967 13.7062C9.19377 13.9021 8.95833 14 8.68333 14H7.51667C7.24167 14 7.00627 13.9021 6.8105 13.7062C6.6146 13.5104 6.51667 13.275 6.51667 13V10.8167C6.51667 10.6778 6.46807 10.5597 6.37083 10.4625C6.2736 10.3653 6.15557 10.3167 6.01667 10.3167H4.35C4.2111 10.3167 4.09307 10.3653 3.99583 10.4625C3.8986 10.5597 3.85 10.6778 3.85 10.8167V13C3.85 13.275 3.7521 13.5104 3.55633 13.7062C3.36043 13.9021 3.125 14 2.85 14H1.66667C1.39167 14 1.15628 13.9021 0.9605 13.7062C0.76461 13.5104 0.666667 13.275 0.666667 13V8.01667ZM15.3333 3V13C15.3333 13.275 15.2354 13.5104 15.0397 13.7062C14.8438 13.9021 14.6083 14 14.3333 14H11.1833C11.0417 14 10.9229 13.9521 10.8272 13.8562C10.7313 13.7604 10.6833 13.6417 10.6833 13.5V7.43333C10.6833 7.26457 10.6444 7.1085 10.5667 6.96517C10.4889 6.82173 10.3833 6.70557 10.25 6.61667L7.15 4.45C7.02777 4.3611 6.93333 4.25 6.86667 4.11667C6.8 3.98333 6.76667 3.8389 6.76667 3.68333V3.01667C6.76667 2.73889 6.8611 2.5 7.05 2.3C7.2389 2.1 7.47223 2 7.75 2H14.3333C14.6083 2 14.8438 2.09789 15.0397 2.29367C15.2354 2.48956 15.3333 2.725 15.3333 3ZM11.8667 5.61667H12.3667C12.4333 5.61667 12.4917 5.59167 12.5417 5.54167C12.5917 5.49167 12.6167 5.43333 12.6167 5.36667V4.86667C12.6167 4.8 12.5917 4.74167 12.5417 4.69167C12.4917 4.64167 12.4333 4.61667 12.3667 4.61667H11.8667C11.8 4.61667 11.7417 4.64167 11.6917 4.69167C11.6417 4.74167 11.6167 4.8 11.6167 4.86667V5.36667C11.6167 5.43333 11.6417 5.49167 11.6917 5.54167C11.7417 5.59167 11.8 5.61667 11.8667 5.61667ZM11.8667 8.46667H12.3667C12.4333 8.46667 12.4917 8.44167 12.5417 8.39167C12.5917 8.34167 12.6167 8.28333 12.6167 8.21667V7.71667C12.6167 7.65 12.5917 7.59167 12.5417 7.54167C12.4917 7.49167 12.4333 7.46667 12.3667 7.46667H11.8667C11.8 7.46667 11.7417 7.49167 11.6917 7.54167C11.6417 7.59167 11.6167 7.65 11.6167 7.71667V8.21667C11.6167 8.28333 11.6417 8.34167 11.6917 8.39167C11.7417 8.44167 11.8 8.46667 11.8667 8.46667ZM11.8667 11.3H12.3667C12.4333 11.3 12.4917 11.275 12.5417 11.225C12.5917 11.175 12.6167 11.1167 12.6167 11.05V10.55C12.6167 10.4833 12.5917 10.425 12.5417 10.375C12.4917 10.325 12.4333 10.3 12.3667 10.3H11.8667C11.8 10.3 11.7417 10.325 11.6917 10.375C11.6417 10.425 11.6167 10.4833 11.6167 10.55V11.05C11.6167 11.1167 11.6417 11.175 11.6917 11.225C11.7417 11.275 11.8 11.3 11.8667 11.3Z" fill="var(--fill-0, #9333EA)"/>
</g>
</svg>
