<svg preserveAspectRatio="none" width="100%" height="100%" overflow="visible" style="display: block;" viewBox="0 0 23.6668 28.3334" fill="none" xmlns="http://www.w3.org/2000/svg">
<g id="Vector 1">
<path d="M0 7C0 3.13401 3.13401 0 7 0C10.866 0 14 3.13401 14 7C14 10.866 10.866 14 7 14C3.13401 14 0 10.866 0 7Z" fill="var(--fill-0, #9333EA)"/>
<path d="M18.8695 15.069C20.1294 14.8075 21.7321 15.2732 22.8188 16.7456C23.9392 18.2637 24.042 20.8789 22.5651 22.9284C21.536 24.3566 19.4446 26.2724 18.1013 27.4466C18.0698 27.4742 18.0382 27.5021 18.0065 27.5301C17.6747 27.8231 17.3312 28.1264 16.9 28.2539C16.5412 28.3599 16.1255 28.3599 15.7668 28.2539C15.3355 28.1264 14.9921 27.8231 14.6602 27.5301C14.6285 27.5021 14.5969 27.4742 14.5654 27.4466C13.2221 26.2725 11.1307 24.3566 10.1016 22.9284C8.62481 20.8789 8.72755 18.2637 9.84794 16.7456C10.9346 15.2732 12.5374 14.8075 13.7973 15.069L13.7998 15.0695C14.7788 15.2768 15.6476 15.7406 16.3334 16.4676C17.0191 15.7406 17.8879 15.2768 18.8669 15.0695L18.8695 15.069Z" fill="var(--fill-0, #9333EA)"/>
</g>
</svg>
