<svg preserveAspectRatio="none" width="100%" height="100%" overflow="visible" style="display: block;" viewBox="0 0 13 13" fill="none" xmlns="http://www.w3.org/2000/svg">
<g id="Negative">
<rect width="13" height="13" rx="6.5" fill="var(--fill-0, #DC2626)"/>
<path id="Vector (Stroke)" fill-rule="evenodd" clip-rule="evenodd" d="M4.19232 4.19232C4.36539 4.01924 4.646 4.01924 4.81907 4.19232L6.50001 5.87326L8.18095 4.19232C8.35403 4.01924 8.63464 4.01924 8.80771 4.19232C8.98078 4.36539 8.98078 4.646 8.80771 4.81907L7.12677 6.50001L8.80771 8.18095C8.98078 8.35403 8.98078 8.63463 8.80771 8.80771C8.63464 8.98078 8.35403 8.98078 8.18096 8.80771L6.50001 7.12677L4.81907 8.80771C4.646 8.98078 4.36539 8.98078 4.19232 8.80771C4.01924 8.63463 4.01924 8.35403 4.19232 8.18095L5.87326 6.50001L4.19232 4.81907C4.01924 4.646 4.01924 4.36539 4.19232 4.19232Z" fill="var(--fill-0, white)"/>
</g>
</svg>
