<svg preserveAspectRatio="none" width="100%" height="100%" overflow="visible" style="display: block;" viewBox="0 0 15 15" fill="none" xmlns="http://www.w3.org/2000/svg">
<g id="Home-Work-Fill--Streamline-Rounded-Fill-Material" opacity="0.2">
<path id="Vector" d="M0.625 7.51562C0.625 7.36978 0.658853 7.22656 0.726563 7.08594C0.794272 6.94531 0.890625 6.83334 1.01562 6.75L4.3125 4.39063C4.39938 4.32947 4.48828 4.28556 4.57922 4.25891C4.67006 4.23212 4.76291 4.21875 4.85781 4.21875C4.95259 4.21875 5.04578 4.23212 5.13734 4.25891C5.229 4.28556 5.31866 4.32947 5.40625 4.39063L8.6875 6.75C8.8125 6.83334 8.90884 6.94531 8.97656 7.08594C9.04428 7.22656 9.07812 7.36978 9.07812 7.51562V12.1875C9.07812 12.4453 8.98634 12.666 8.80281 12.8495C8.61916 13.0332 8.39844 13.125 8.14062 13.125H7.04687C6.78906 13.125 6.56837 13.0332 6.38484 12.8495C6.20119 12.666 6.10937 12.4453 6.10937 12.1875V10.1406C6.10937 10.0104 6.06381 9.89975 5.97266 9.80859C5.8815 9.71744 5.77084 9.67188 5.64062 9.67188H4.07813C3.94791 9.67188 3.83725 9.71744 3.74609 9.80859C3.65494 9.89975 3.60938 10.0104 3.60938 10.1406V12.1875C3.60938 12.4453 3.51759 12.666 3.33406 12.8495C3.15041 13.0332 2.92969 13.125 2.67188 13.125H1.5625C1.30469 13.125 1.08401 13.0332 0.900469 12.8495C0.716822 12.666 0.625 12.4453 0.625 12.1875V7.51562ZM14.375 2.8125V12.1875C14.375 12.4453 14.2832 12.666 14.0997 12.8495C13.916 13.0332 13.6953 13.125 13.4375 13.125H10.4844C10.3516 13.125 10.2402 13.0801 10.1505 12.9902C10.0606 12.9004 10.0156 12.7891 10.0156 12.6562V6.96875C10.0156 6.81053 9.97916 6.66422 9.90625 6.52984C9.83334 6.39538 9.73438 6.28647 9.60938 6.20313L6.70313 4.17188C6.58853 4.08853 6.5 3.98438 6.4375 3.85938C6.375 3.73438 6.34375 3.59897 6.34375 3.45313V2.82813C6.34375 2.56771 6.43228 2.34375 6.60937 2.15625C6.78647 1.96875 7.00522 1.875 7.26562 1.875H13.4375C13.6953 1.875 13.916 1.96677 14.0997 2.15031C14.2832 2.33396 14.375 2.55469 14.375 2.8125ZM11.125 5.26563H11.5937C11.6562 5.26563 11.7109 5.24219 11.7578 5.19531C11.8047 5.14844 11.8281 5.09375 11.8281 5.03125V4.5625C11.8281 4.5 11.8047 4.44531 11.7578 4.39844C11.7109 4.35156 11.6562 4.32813 11.5937 4.32813H11.125C11.0625 4.32813 11.0078 4.35156 10.9609 4.39844C10.9141 4.44531 10.8906 4.5 10.8906 4.5625V5.03125C10.8906 5.09375 10.9141 5.14844 10.9609 5.19531C11.0078 5.24219 11.0625 5.26563 11.125 5.26563ZM11.125 7.9375H11.5937C11.6562 7.9375 11.7109 7.91406 11.7578 7.86719C11.8047 7.82031 11.8281 7.76562 11.8281 7.70312V7.23437C11.8281 7.17187 11.8047 7.11719 11.7578 7.07031C11.7109 7.02344 11.6562 7 11.5937 7H11.125C11.0625 7 11.0078 7.02344 10.9609 7.07031C10.9141 7.11719 10.8906 7.17187 10.8906 7.23437V7.70312C10.8906 7.76562 10.9141 7.82031 10.9609 7.86719C11.0078 7.91406 11.0625 7.9375 11.125 7.9375ZM11.125 10.5938H11.5937C11.6562 10.5938 11.7109 10.5703 11.7578 10.5234C11.8047 10.4766 11.8281 10.4219 11.8281 10.3594V9.89062C11.8281 9.82812 11.8047 9.77344 11.7578 9.72656C11.7109 9.67969 11.6562 9.65625 11.5937 9.65625H11.125C11.0625 9.65625 11.0078 9.67969 10.9609 9.72656C10.9141 9.77344 10.8906 9.82812 10.8906 9.89062V10.3594C10.8906 10.4219 10.9141 10.4766 10.9609 10.5234C11.0078 10.5703 11.0625 10.5938 11.125 10.5938Z" fill="var(--fill-0, black)"/>
</g>
</svg>
