<svg preserveAspectRatio="none" width="100%" height="100%" overflow="visible" style="display: block;" viewBox="0 0 31.3333 22.6667" fill="none" xmlns="http://www.w3.org/2000/svg">
<g id="Vector 1">
<path d="M18 1C18 1.55228 17.5523 2 17 2H14.3333C13.781 2 13.3333 1.55228 13.3333 1C13.3333 0.447715 13.781 0 14.3333 0H17C17.5523 0 18 0.447715 18 1Z" fill="var(--fill-0, #9333EA)"/>
<path d="M23.3333 2H25.6667C28.0599 2 30 3.9401 30 6.33333V20.6667H30.3333C30.8856 20.6667 31.3333 21.1144 31.3333 21.6667C31.3333 22.2189 30.8856 22.6667 30.3333 22.6667H1C0.447716 22.6667 0 22.2189 0 21.6667C0 21.1144 0.447716 20.6667 1 20.6667H23.3333V2Z" fill="var(--fill-0, #9333EA)"/>
<path d="M18 5C18 5.55228 17.5523 6 17 6H14.3333C13.781 6 13.3333 5.55228 13.3333 5C13.3333 4.44771 13.781 4 14.3333 4H17C17.5523 4 18 4.44771 18 5Z" fill="var(--fill-0, #9333EA)"/>
<path d="M17 14C17.5523 14 18 13.5523 18 13C18 12.4477 17.5523 12 17 12H14.3333C13.781 12 13.3333 12.4477 13.3333 13C13.3333 13.5523 13.781 14 14.3333 14H17Z" fill="var(--fill-0, #9333EA)"/>
<path d="M17 10C17.5523 10 18 9.55228 18 9C18 8.44771 17.5523 8 17 8H14.3333C13.781 8 13.3333 8.44771 13.3333 9C13.3333 9.55228 13.781 10 14.3333 10H17Z" fill="var(--fill-0, #9333EA)"/>
<path d="M18 17C18 17.5523 17.5523 18 17 18H14.3333C13.781 18 13.3333 17.5523 13.3333 17C13.3333 16.4477 13.781 16 14.3333 16H17C17.5523 16 18 16.4477 18 17Z" fill="var(--fill-0, #9333EA)"/>
<path d="M6 11.6667C6 12.219 6.44772 12.6667 7 12.6667C7.55229 12.6667 8 12.219 8 11.6667V10.3333C8 9.78105 7.55229 9.33333 7 9.33333C6.44772 9.33333 6 9.78105 6 10.3333V11.6667Z" fill="var(--fill-0, #9333EA)"/>
<path d="M7 7.33333C6.44772 7.33333 6 6.88562 6 6.33333V5C6 4.44771 6.44772 4 7 4C7.55229 4 8 4.44771 8 5V6.33333C8 6.88562 7.55229 7.33333 7 7.33333Z" fill="var(--fill-0, #9333EA)"/>
<path d="M6 17C6 17.5523 6.44772 18 7 18C7.55229 18 8 17.5523 8 17V15.6667C8 15.1144 7.55229 14.6667 7 14.6667C6.44772 14.6667 6 15.1144 6 15.6667V17Z" fill="var(--fill-0, #9333EA)"/>
</g>
</svg>
