<svg preserveAspectRatio="none" width="100%" height="100%" overflow="visible" style="display: block;" viewBox="0 0 6 9.25" fill="none" xmlns="http://www.w3.org/2000/svg">
<g id="Vector 1">
<path d="M1.5 3C1.5 2.17157 2.17157 1.5 3 1.5C3.82843 1.5 4.5 2.17157 4.5 3C4.5 3.41862 4.3295 3.79604 4.05228 4.06898C3.90355 4.21541 3.76725 4.29237 3.55853 4.41022C3.51329 4.43576 3.46447 4.46333 3.41156 4.49384C3.11999 4.66199 2.75076 4.90376 2.48751 5.39667C2.29237 5.76204 2.43037 6.21642 2.79574 6.41156C3.16111 6.6067 3.61549 6.4687 3.81063 6.10333C3.87623 5.9805 3.9539 5.91263 4.16091 5.79325C4.18969 5.77666 4.22227 5.75855 4.25801 5.73869C4.47246 5.61952 4.8007 5.4371 5.10463 5.13788C5.65646 4.59459 6 3.83673 6 3C6 1.34315 4.65685 0 3 0C1.34315 0 0 1.34315 0 3C0 3.18586 0.0205845 3.35532 0.0476813 3.49871C0.124597 3.90572 0.516896 4.17331 0.923906 4.0964C1.33092 4.01948 1.59851 3.62718 1.52159 3.22017C1.50856 3.15123 1.5 3.07624 1.5 3Z" fill="var(--fill-0, #9333EA)"/>
<path d="M3 7.25C2.44772 7.25 2 7.69772 2 8.25C2 8.80229 2.44772 9.25 3 9.25C3.55228 9.25 4.0001 8.80229 4.0001 8.25C4.0001 7.69772 3.55228 7.25 3 7.25Z" fill="var(--fill-0, #9333EA)"/>
</g>
</svg>
