<svg preserveAspectRatio="none" width="100%" height="100%" overflow="visible" style="display: block;" viewBox="0 0 17.5 15.5" fill="none" xmlns="http://www.w3.org/2000/svg">
<g id="Vector 1">
<path d="M0 0.75C0 0.335786 0.335786 0 0.75 0H8.25C8.66421 0 9 0.335786 9 0.75C9 1.16421 8.66421 1.5 8.25 1.5H0.75C0.335786 1.5 0 1.16421 0 0.75Z" fill="var(--fill-0, #9333EA)"/>
<path d="M0 4.75C0 4.33579 0.335786 4 0.75 4H8.25C8.66421 4 9 4.33579 9 4.75C9 5.16421 8.66421 5.5 8.25 5.5H0.75C0.335786 5.5 0 5.16421 0 4.75Z" fill="var(--fill-0, #9333EA)"/>
<path d="M0 8.75C0 8.33579 0.335786 8 0.75 8H4.75C5.16421 8 5.5 8.33579 5.5 8.75C5.5 9.16421 5.16421 9.5 4.75 9.5H0.75C0.335786 9.5 0 9.16421 0 8.75Z" fill="var(--fill-0, #9333EA)"/>
<path d="M17.5 5.75C17.5 5.33579 17.1642 5 16.75 5H13V13.25C13 14.4926 14.0074 15.5 15.25 15.5C16.4926 15.5 17.5 14.4926 17.5 13.25V5.75Z" fill="var(--fill-0, #9333EA)"/>
</g>
</svg>
