<svg width="84" height="80" viewBox="0 0 84 80" fill="none" xmlns="http://www.w3.org/2000/svg">
<g opacity="0.4">
<path d="M20.6967 20.2156C16.4945 20.2156 13.0879 23.6222 13.0879 27.8244C13.0879 31.28 15.3904 34.194 18.5416 35.1232C19.0379 35.2696 19.5746 35.1537 19.9663 34.8156L27.7189 28.1244C28.1102 27.7866 28.3033 27.2732 28.2316 26.7613C27.7135 23.0618 24.5387 20.2156 20.6967 20.2156Z" fill="#9333EA"/>
<path fill-rule="evenodd" clip-rule="evenodd" d="M52.9664 70.4357H31.0458C27.6841 70.4357 24.9588 67.7104 24.9588 64.3487V41.2572L39.9414 28.582C41.1331 27.5738 42.8786 27.5738 44.0703 28.582L59.0534 41.2577V64.3487C59.0534 67.7104 56.3282 70.4357 52.9664 70.4357ZM48.0884 55.9784V70.434H35.9143V55.9784C35.9143 54.7177 36.9363 53.6958 38.1969 53.6958H45.8057C47.0664 53.6958 48.0884 54.7177 48.0884 55.9784Z" fill="#9333EA"/>
</g>
<path d="M19.1714 14.1311C19.1717 14.9715 19.8533 15.6526 20.6938 15.6523C21.5342 15.6519 22.2153 14.9704 22.2149 14.1299L22.2132 9.56122C22.2129 8.72078 21.5313 8.03972 20.6909 8.04004C19.8504 8.04036 19.1694 8.72193 19.1697 9.56238L19.1714 14.1311Z" fill="#9333EA"/>
<path d="M35.4655 14.8805C36.0598 15.4748 36.0598 16.4383 35.4655 17.0326L32.4235 20.0746C31.8292 20.6689 30.8657 20.6689 30.2714 20.0746C29.6771 19.4803 29.6771 18.5168 30.2714 17.9225L33.3134 14.8805C33.9077 14.2862 34.8712 14.2862 35.4655 14.8805Z" fill="#9333EA"/>
<path d="M20.695 23.2589C18.1737 23.2589 16.1297 25.3029 16.1297 27.8242C16.1297 29.894 17.5084 31.6458 19.4007 32.2038C20.2069 32.4416 20.6677 33.2878 20.4299 34.0939C20.1922 34.9 19.346 35.3608 18.5399 35.1231C15.3886 34.1938 13.0862 31.2799 13.0862 27.8242C13.0862 23.622 16.4928 20.2154 20.695 20.2154C24.537 20.2154 27.7118 23.0616 28.2299 26.7611C28.3465 27.5934 27.7663 28.3626 26.9339 28.4792C26.1016 28.5958 25.3324 28.0156 25.2158 27.1833C24.9052 24.9659 22.9982 23.2589 20.695 23.2589Z" fill="#9333EA"/>
<path fill-rule="evenodd" clip-rule="evenodd" d="M38.9568 27.4202C40.7159 25.9321 43.2925 25.9321 45.0515 27.4202L64.2962 43.7012C64.9378 44.244 65.0179 45.2042 64.4751 45.8459C63.9323 46.4875 62.9721 46.5676 62.3304 46.0248L60.5735 44.5384V64.3487C60.5735 68.5509 57.1669 71.9575 52.9647 71.9575H31.0441C26.8419 71.9575 23.4353 68.5509 23.4353 64.3487V44.538L21.6779 46.0248C21.0363 46.5676 20.0761 46.4875 19.5332 45.8459C18.9904 45.2042 19.0705 44.244 19.7122 43.7012L38.9568 27.4202ZM43.0858 29.7438L57.53 41.9636V64.3487C57.53 66.87 55.486 68.914 52.9647 68.914H49.6084V55.9784C49.6084 53.8773 47.9051 52.174 45.804 52.174H38.1952C36.0941 52.174 34.3908 53.8773 34.3908 55.9784V68.914H31.0441C28.5228 68.914 26.4789 66.87 26.4789 64.3487V41.9631L40.9226 29.7438C41.5469 29.2156 42.4614 29.2156 43.0858 29.7438ZM37.4343 55.9784C37.4343 55.5582 37.775 55.2175 38.1952 55.2175H45.804C46.2242 55.2175 46.5649 55.5582 46.5649 55.9784V68.9122H37.4343V55.9784Z" fill="#9333EA"/>
<path d="M2.43387 29.3442C1.59342 29.3442 0.912109 28.6629 0.912109 27.8224C0.912109 26.982 1.59342 26.3007 2.43387 26.3007H6.99915C7.83959 26.3007 8.52091 26.982 8.52091 27.8224C8.52091 28.6629 7.83959 29.3442 6.99915 29.3442H2.43387Z" fill="#9333EA"/>
<path d="M5.92296 17.0326C5.32868 16.4383 5.32868 15.4748 5.92296 14.8805C6.51724 14.2862 7.48077 14.2862 8.07505 14.8805L11.1186 17.924C11.7129 18.5183 11.7129 19.4818 11.1186 20.0761C10.5243 20.6704 9.56076 20.6704 8.96648 20.0761L5.92296 17.0326Z" fill="#9333EA"/>
<path d="M5.92296 40.7699C6.51724 41.3641 7.48077 41.3641 8.07505 40.7699L11.1186 37.7263C11.7129 37.132 11.7129 36.1685 11.1186 35.5742C10.5243 34.98 9.56076 34.98 8.96648 35.5742L5.92296 38.6178C5.32868 39.212 5.32868 40.1756 5.92296 40.7699Z" fill="#9333EA"/>
<g opacity="0.5" clip-path="url(#clip0_578_4278)">
<path opacity="0.4" d="M67.9512 38.1542C66.6747 37.0743 64.8049 37.0743 63.5284 38.1542L49.7851 49.781C49.3038 50.1881 49.2438 50.9083 49.6509 51.3895C50.058 51.8707 50.7781 51.9308 51.2594 51.5237L52.8048 50.2162V64.7283C52.8048 67.6698 55.1894 70.0544 58.131 70.0544H73.3486C76.2902 70.0544 78.6748 67.6698 78.6748 64.7283V50.2162L80.2203 51.5237C80.7015 51.9308 81.4216 51.8707 81.8287 51.3895C82.2358 50.9083 82.1758 50.1881 81.6945 49.781L67.9512 38.1542Z" fill="#9333EA"/>
<path d="M63.5284 38.1542C64.8049 37.0743 66.6747 37.0743 67.9512 38.1542L81.6945 49.781C82.1758 50.1881 82.2358 50.9083 81.8287 51.3895C81.4216 51.8707 80.7015 51.9308 80.2203 51.5237L66.477 39.8969C66.0514 39.5369 65.4282 39.5369 65.0027 39.8969L51.2594 51.5237C50.7781 51.9308 50.058 51.8707 49.6509 51.3895C49.2438 50.9083 49.3038 50.1881 49.7851 49.781L63.5284 38.1542Z" fill="#9333EA"/>
</g>
<g opacity="0.5" clip-path="url(#clip1_578_4278)">
<path opacity="0.4" d="M16.0488 38.1542C17.3253 37.0743 19.1951 37.0743 20.4716 38.1542L34.2149 49.781C34.6962 50.1881 34.7562 50.9083 34.3491 51.3895C33.942 51.8707 33.2219 51.9308 32.7406 51.5237L31.1952 50.2162V64.7283C31.1952 67.6698 28.8106 70.0544 25.869 70.0544H10.6514C7.70984 70.0544 5.32524 67.6698 5.32524 64.7283V50.2162L3.77975 51.5237C3.29852 51.9308 2.57838 51.8707 2.17127 51.3895C1.76415 50.9083 1.82423 50.1881 2.30545 49.781L16.0488 38.1542Z" fill="#9333EA"/>
<path d="M20.4716 38.1542C19.1951 37.0743 17.3253 37.0743 16.0488 38.1542L2.30545 49.781C1.82423 50.1881 1.76415 50.9083 2.17127 51.3895C2.57838 51.8707 3.29852 51.9308 3.77975 51.5237L17.523 39.8969C17.9486 39.5369 18.5718 39.5369 18.9973 39.8969L32.7406 51.5237C33.2219 51.9308 33.942 51.8707 34.3491 51.3895C34.7562 50.9083 34.6962 50.1881 34.2149 49.781L20.4716 38.1542Z" fill="#9333EA"/>
</g>
<defs>
<clipPath id="clip0_578_4278">
<rect width="25.5656" height="36.5222" fill="white" transform="translate(58.4336 35.4346)"/>
</clipPath>
<clipPath id="clip1_578_4278">
<rect width="25.5656" height="36.5222" fill="white" transform="matrix(-1 0 0 1 25.5664 35.4346)"/>
</clipPath>
</defs>
</svg>
