<svg width="80" height="80" viewBox="0 0 80 80" fill="none" xmlns="http://www.w3.org/2000/svg">
<g opacity="0.4">
<path d="M26.6673 18.3318C22.0649 18.3318 18.334 22.0627 18.334 26.6651C18.334 30.4498 20.8557 33.6413 24.307 34.659C24.8506 34.8193 25.4384 34.6924 25.8674 34.3221L34.3582 26.9937C34.7868 26.6237 34.9983 26.0615 34.9197 25.5008C34.3522 21.449 30.8752 18.3318 26.6673 18.3318Z" fill="#9333EA"/>
<path fill-rule="evenodd" clip-rule="evenodd" d="M62.0099 73.334H38.002C34.3201 73.334 31.3353 70.3493 31.3353 66.6674V41.3771L47.7445 27.4949C49.0497 26.3907 50.9615 26.3907 52.2666 27.4949L68.6765 41.3776V66.6674C68.6765 70.3493 65.6918 73.334 62.0099 73.334ZM56.6673 57.5001V73.3322H43.334V57.5001C43.334 56.1194 44.4533 55.0001 45.834 55.0001H54.1673C55.548 55.0001 56.6673 56.1194 56.6673 57.5001Z" fill="#9333EA"/>
</g>
<path d="M24.998 11.6679C24.9984 12.5883 25.7448 13.3343 26.6653 13.3339C27.5858 13.3336 28.3317 12.5871 28.3313 11.6666L28.3294 6.66286C28.3291 5.74238 27.5826 4.99648 26.6621 4.99683C25.7417 4.99718 24.9958 5.74365 24.9961 6.66413L24.998 11.6679Z" fill="#9333EA"/>
<path d="M42.8437 12.4886C43.4946 13.1395 43.4946 14.1948 42.8437 14.8457L39.512 18.1774C38.8611 18.8282 37.8058 18.8282 37.155 18.1774C36.5041 17.5265 36.5041 16.4712 37.155 15.8203L40.4867 12.4886C41.1376 11.8378 42.1928 11.8378 42.8437 12.4886Z" fill="#9333EA"/>
<path d="M26.6667 21.6649C23.9052 21.6649 21.6667 23.9035 21.6667 26.6649C21.6667 28.9318 23.1766 30.8504 25.2492 31.4616C26.1321 31.7219 26.6367 32.6487 26.3764 33.5316C26.116 34.4145 25.1892 34.9192 24.3064 34.6588C20.855 33.641 18.3333 30.4496 18.3333 26.6649C18.3333 22.0625 22.0643 18.3316 26.6667 18.3316C30.8746 18.3316 34.3516 21.4488 34.9191 25.5006C35.0468 26.4121 34.4113 27.2546 33.4997 27.3823C32.5882 27.51 31.7457 26.8745 31.618 25.9629C31.2778 23.5344 29.1892 21.6649 26.6667 21.6649Z" fill="#9333EA"/>
<path fill-rule="evenodd" clip-rule="evenodd" d="M46.6675 26.2224C48.594 24.5926 51.4159 24.5926 53.3425 26.2224L74.4197 44.0538C75.1224 44.6483 75.2102 45.6999 74.6157 46.4026C74.0211 47.1054 72.9695 47.1931 72.2668 46.5986L70.3425 44.9707V66.6674C70.3425 71.2697 66.6116 75.0007 62.0092 75.0007H38.0013C33.3989 75.0007 29.668 71.2697 29.668 66.6674V44.9702L27.7432 46.5986C27.0404 47.1931 25.9888 47.1054 25.3943 46.4026C24.7998 45.6999 24.8875 44.6483 25.5902 44.0538L46.6675 26.2224ZM51.1896 28.7673L67.0092 42.1507V66.6674C67.0092 69.4288 64.7706 71.6674 62.0092 71.6674H58.3333V57.5001C58.3333 55.1989 56.4679 53.3334 54.1667 53.3334H45.8333C43.5321 53.3334 41.6667 55.1989 41.6667 57.5001V71.6674H38.0013C35.2399 71.6674 33.0013 69.4288 33.0013 66.6674V42.1502L48.8204 28.7673C49.5042 28.1888 50.5058 28.1888 51.1896 28.7673ZM45 57.5001C45 57.0398 45.3731 56.6667 45.8333 56.6667H54.1667C54.6269 56.6667 55 57.0398 55 57.5001V71.6655H45V57.5001Z" fill="#9333EA"/>
<path d="M6.66667 28.3296C5.74619 28.3296 5 27.5834 5 26.663C5 25.7425 5.74619 24.9963 6.66667 24.9963H11.6667C12.5871 24.9963 13.3333 25.7425 13.3333 26.663C13.3333 27.5834 12.5871 28.3296 11.6667 28.3296H6.66667Z" fill="#9333EA"/>
<path d="M10.488 14.8457C9.83713 14.1948 9.83713 13.1395 10.488 12.4886C11.1389 11.8378 12.1941 11.8378 12.845 12.4886L16.1784 15.822C16.8292 16.4728 16.8292 17.5281 16.1784 18.179C15.5275 18.8299 14.4722 18.8299 13.8213 18.179L10.488 14.8457Z" fill="#9333EA"/>
<path d="M10.488 40.8433C11.1389 41.4942 12.1941 41.4942 12.845 40.8433L16.1784 37.5099C16.8292 36.8591 16.8292 35.8038 16.1784 35.1529C15.5275 34.5021 14.4722 34.5021 13.8213 35.1529L10.488 38.4863C9.83713 39.1371 9.83713 40.1924 10.488 40.8433Z" fill="#9333EA"/>
</svg>
