<svg width="80" height="80" viewBox="0 0 80 80" fill="none" xmlns="http://www.w3.org/2000/svg">
<g opacity="0.4">
<path d="M13 69H25.825V54.0375C25.825 52.857 26.782 51.9 27.9625 51.9H35.0875C36.268 51.9 37.225 52.857 37.225 54.0375V69H50.05V23.4C50.05 19.4096 50.05 17.4144 49.2734 15.8903C48.5903 14.5497 47.5003 13.4597 46.1597 12.7766C44.6356 12 42.6404 12 38.65 12H24.4C20.4096 12 18.4144 12 16.8903 12.7766C15.5497 13.4597 14.4597 14.5497 13.7766 15.8903C13 17.4144 13 19.4096 13 23.4V69Z" fill="#9333EA"/>
<path d="M70 37.65V49.05C70 52.198 67.448 54.75 64.3 54.75C61.152 54.75 58.6 52.198 58.6 49.05V37.65C58.6 34.502 61.152 31.95 64.3 31.95C67.448 31.95 70 34.502 70 37.65Z" fill="#9333EA"/>
</g>
<path d="M38.6739 36.7143C39.4543 36.7143 40.087 36.0747 40.087 35.2857C40.087 34.4967 39.4543 33.8571 38.6739 33.8571H35.8478C35.0674 33.8571 34.4348 34.4967 34.4348 35.2857C34.4348 36.0747 35.0674 36.7143 35.8478 36.7143H38.6739Z" fill="#9333EA"/>
<path d="M40.087 43.8571C40.087 44.6461 39.4543 45.2857 38.6739 45.2857H35.8478C35.0674 45.2857 34.4348 44.6461 34.4348 43.8571C34.4348 43.0682 35.0674 42.4286 35.8478 42.4286H38.6739C39.4543 42.4286 40.087 43.0682 40.087 43.8571Z" fill="#9333EA"/>
<path d="M38.6739 28.1429C39.4543 28.1429 40.087 27.5033 40.087 26.7143C40.087 25.9253 39.4543 25.2857 38.6739 25.2857H35.8478C35.0674 25.2857 34.4348 25.9253 34.4348 26.7143C34.4348 27.5033 35.0674 28.1429 35.8478 28.1429H38.6739Z" fill="#9333EA"/>
<path d="M28.7826 35.2857C28.7826 36.0747 28.15 36.7143 27.3696 36.7143H24.5435C23.7631 36.7143 23.1304 36.0747 23.1304 35.2857C23.1304 34.4967 23.7631 33.8571 24.5435 33.8571H27.3696C28.15 33.8571 28.7826 34.4967 28.7826 35.2857Z" fill="#9333EA"/>
<path d="M27.3696 28.1429C28.15 28.1429 28.7826 27.5033 28.7826 26.7143C28.7826 25.9253 28.15 25.2857 27.3696 25.2857H24.5435C23.7631 25.2857 23.1304 25.9253 23.1304 26.7143C23.1304 27.5033 23.7631 28.1429 24.5435 28.1429H27.3696Z" fill="#9333EA"/>
<path d="M28.7826 43.8571C28.7826 44.6461 28.15 45.2857 27.3696 45.2857H24.5435C23.7631 45.2857 23.1304 44.6461 23.1304 43.8571C23.1304 43.0682 23.7631 42.4286 24.5435 42.4286H27.3696C28.15 42.4286 28.7826 43.0682 28.7826 43.8571Z" fill="#9333EA"/>
<path fill-rule="evenodd" clip-rule="evenodd" d="M24.4816 11H38.7357C40.6618 11 42.1936 11 43.4294 11.1021C44.6949 11.2066 45.774 11.4253 46.7621 11.9342C48.3574 12.756 49.6544 14.0673 50.4672 15.6801C50.9707 16.679 51.187 17.77 51.2904 19.0494C51.3913 20.2988 51.3913 21.8473 51.3913 23.7945V68.1429H62.6957V56.5714C59.4707 55.9096 57.0435 53.0271 57.0435 49.5714V38.1429C57.0435 34.198 60.2067 31 64.1087 31C68.0107 31 71.1739 34.198 71.1739 38.1429V49.5714C71.1739 53.0271 68.7466 55.9096 65.5217 56.5714V68.1429H72.587C73.3674 68.1429 74 68.7825 74 69.5714C74 70.3604 73.3674 71 72.587 71H10.413C9.63264 71 9 70.3604 9 69.5714C9 68.7825 9.63264 68.1429 10.413 68.1429H11.8261L11.8261 23.7946C11.8261 21.8474 11.8261 20.2988 11.927 19.0494C12.0304 17.77 12.2467 16.679 12.7502 15.6801C13.563 14.0673 14.86 12.756 16.4553 11.9342C17.4434 11.4253 18.5225 11.2066 19.788 11.1021C21.0238 11 22.5556 11 24.4816 11ZM64.1087 53.8571C66.4499 53.8571 68.3478 51.9384 68.3478 49.5714V38.1429C68.3478 35.7759 66.4499 33.8571 64.1087 33.8571C61.7675 33.8571 59.8696 35.7759 59.8696 38.1429V49.5714C59.8696 51.9384 61.7675 53.8571 64.1087 53.8571ZM27.3696 68.1429H35.8478V54.5714C35.8478 54.1769 35.5315 53.8571 35.1413 53.8571H28.0761C27.6859 53.8571 27.3696 54.1769 27.3696 54.5714V68.1429ZM38.6739 68.1429V54.5714C38.6739 52.599 37.0923 51 35.1413 51H28.0761C26.1251 51 24.5435 52.599 24.5435 54.5714V68.1429H14.6522V23.8571C14.6522 21.8334 14.6533 20.4015 14.7437 19.2821C14.8329 18.1793 15.0016 17.5062 15.2682 16.9772C15.8101 15.902 16.6748 15.0278 17.7383 14.48C18.2616 14.2104 18.9274 14.0398 20.0181 13.9497C21.1254 13.8583 22.5417 13.8571 24.5435 13.8571H38.6739C40.6757 13.8571 42.092 13.8583 43.1993 13.9497C44.29 14.0398 44.9558 14.2104 45.4791 14.48C46.5426 15.0278 47.4073 15.902 47.9492 16.9772C48.2158 17.5062 48.3845 18.1793 48.4737 19.2821C48.5641 20.4015 48.5652 21.8334 48.5652 23.8571V68.1429H38.6739Z" fill="#9333EA"/>
</svg>
