<svg preserveAspectRatio="none" width="100%" height="100%" overflow="visible" style="display: block;" viewBox="0 0 80 80" fill="none" xmlns="http://www.w3.org/2000/svg">
<g id="buildings">
<g id="Vector 1">
<path d="M59.8617 45.3023C61.0074 45.3023 61.9362 44.3652 61.9362 43.2093C61.9362 42.0534 61.0074 41.1163 59.8617 41.1163H57.0957C55.95 41.1163 55.0213 42.0534 55.0213 43.2093C55.0213 44.3652 55.95 45.3023 57.0957 45.3023H59.8617Z" fill="var(--fill-0, #9333EA)"/>
<path d="M61.9362 51.5814C61.9362 52.7373 61.0074 53.6744 59.8617 53.6744H57.0957C55.95 53.6744 55.0213 52.7373 55.0213 51.5814C55.0213 50.4255 55.95 49.4884 57.0957 49.4884H59.8617C61.0074 49.4884 61.9362 50.4255 61.9362 51.5814Z" fill="var(--fill-0, #9333EA)"/>
<path d="M59.8617 62.0465C61.0074 62.0465 61.9362 61.1094 61.9362 59.9535C61.9362 58.7975 61.0074 57.8605 59.8617 57.8605H57.0957C55.95 57.8605 55.0213 58.7975 55.0213 59.9535C55.0213 61.1094 55.95 62.0465 57.0957 62.0465H59.8617Z" fill="var(--fill-0, #9333EA)"/>
<path fill-rule="evenodd" clip-rule="evenodd" d="M23.8174 16H37.8209C39.6835 16 41.2067 16 42.4447 16.102C43.726 16.2076 44.8833 16.4329 45.9641 16.9885C47.6555 17.8581 49.0307 19.2456 49.8926 20.9522C50.4432 22.0426 50.6666 23.2102 50.7712 24.5031C50.8338 25.2753 50.8576 26.1576 50.8667 27.1628H61.2447C66.2094 27.1628 70.234 31.2235 70.234 36.2326V71.814H70.9255C72.0712 71.814 73 72.751 73 73.907C73 75.0629 72.0712 76 70.9255 76H10.0745C8.92877 76 8 75.0629 8 73.907C8 72.751 8.92877 71.814 10.0745 71.814H10.766L10.766 29.1681C10.7659 27.2889 10.7659 25.7521 10.8671 24.5031C10.9717 23.2102 11.1951 22.0426 11.7457 20.9522C12.6076 19.2456 13.9828 17.8581 15.6742 16.9885C16.755 16.4329 17.9123 16.2076 19.1936 16.102C20.4316 16 21.9548 16 23.8174 16ZM66.0851 71.814V36.2326C66.0851 33.5354 63.918 31.3488 61.2447 31.3488H50.8723L50.8723 71.814H66.0851ZM37.734 32.7442C38.8797 32.7442 39.8085 31.8071 39.8085 30.6512C39.8085 29.4952 38.8797 28.5581 37.734 28.5581H34.9681C33.8224 28.5581 32.8936 29.4952 32.8936 30.6512C32.8936 31.8071 33.8224 32.7442 34.9681 32.7442H37.734ZM39.8085 39.0233C39.8085 40.1792 38.8797 41.1163 37.734 41.1163H34.9681C33.8224 41.1163 32.8936 40.1792 32.8936 39.0233C32.8936 37.8673 33.8224 36.9302 34.9681 36.9302H37.734C38.8797 36.9302 39.8085 37.8673 39.8085 39.0233ZM39.8085 47.3954C39.8085 48.5513 38.8797 49.4884 37.734 49.4884H34.9681C33.8224 49.4884 32.8936 48.5513 32.8936 47.3954C32.8936 46.2394 33.8224 45.3023 34.9681 45.3023H37.734C38.8797 45.3023 39.8085 46.2394 39.8085 47.3954ZM28.7447 39.0233C28.7447 40.1792 27.8159 41.1163 26.6702 41.1163H23.9043C22.7586 41.1163 21.8298 40.1792 21.8298 39.0233C21.8298 37.8673 22.7586 36.9302 23.9043 36.9302H26.6702C27.8159 36.9302 28.7447 37.8673 28.7447 39.0233ZM26.6702 32.7442C27.8159 32.7442 28.7447 31.8071 28.7447 30.6512C28.7447 29.4952 27.8159 28.5581 26.6702 28.5581H23.9043C22.7586 28.5581 21.8298 29.4952 21.8298 30.6512C21.8298 31.8071 22.7586 32.7442 23.9043 32.7442H26.6702ZM28.7447 47.3954C28.7447 48.5513 27.8159 49.4884 26.6702 49.4884H23.9043C22.7586 49.4884 21.8298 48.5513 21.8298 47.3954C21.8298 46.2394 22.7586 45.3023 23.9043 45.3023H26.6702C27.8159 45.3023 28.7447 46.2394 28.7447 47.3954ZM37.7343 58.5581V71.814H23.9043V58.5581C23.9043 57.0169 25.1426 55.7674 26.6702 55.7674H34.9683C36.4959 55.7674 37.7343 57.0169 37.7343 58.5581Z" fill="var(--fill-0, #9333EA)"/>
</g>
</g>
</svg>
