<svg preserveAspectRatio="none" width="100%" height="100%" overflow="visible" style="display: block;" viewBox="0 0 23.5 23.5" fill="none" xmlns="http://www.w3.org/2000/svg">
<path id="Vector 1" fill-rule="evenodd" clip-rule="evenodd" d="M0 11.75C0 5.26065 5.26065 0 11.75 0C18.2393 0 23.5 5.26065 23.5 11.75C23.5 18.2393 18.2393 23.5 11.75 23.5C5.26065 23.5 0 18.2393 0 11.75ZM15.2197 10.2197C15.5126 9.92678 15.9874 9.92678 16.2803 10.2197C16.5732 10.5126 16.5732 10.9874 16.2803 11.2803L12.2803 15.2803C12.1397 15.421 11.9489 15.5 11.75 15.5C11.5511 15.5 11.3603 15.421 11.2197 15.2803L7.21967 11.2803C6.92678 10.9874 6.92678 10.5126 7.21967 10.2197C7.51256 9.92678 7.98744 9.92678 8.28033 10.2197L11.75 13.6893L15.2197 10.2197Z" fill="var(--fill-0, #3C83F6)"/>
</svg>
