<svg preserveAspectRatio="none" width="100%" height="100%" overflow="visible" style="display: block;" viewBox="0 0 50.3425 55.0023" fill="none" xmlns="http://www.w3.org/2000/svg">
<g id="Vector 2" opacity="0.4">
<path d="M8.33333 0C3.73096 0 0 3.73096 0 8.33333C0 12.1181 2.52171 15.3095 5.97302 16.3272C6.5166 16.4875 7.1044 16.3606 7.53342 15.9903L16.0242 8.66189C16.4528 8.29195 16.6643 7.72971 16.5858 7.169C16.0183 3.11725 12.5412 0 8.33333 0Z" fill="var(--fill-0, #9333EA)"/>
<path fill-rule="evenodd" clip-rule="evenodd" d="M43.6759 55.0023H19.668C15.9861 55.0023 13.0013 52.0175 13.0013 48.3356V23.0453L29.4106 9.16308C30.7157 8.05892 32.6275 8.05892 33.9326 9.16308L50.3425 23.0459V48.3356C50.3425 52.0175 47.3578 55.0023 43.6759 55.0023ZM38.3333 39.1683V55.0004H25V39.1683C25 37.7876 26.1193 36.6683 27.5 36.6683H35.8333C37.214 36.6683 38.3333 37.7876 38.3333 39.1683Z" fill="var(--fill-0, #9333EA)"/>
</g>
</svg>
