<svg width="24" height="24" viewBox="0 0 24 24" fill="none" xmlns="http://www.w3.org/2000/svg">
<path opacity="0.4" d="M22.75 14C22.75 9.16751 18.8325 5.25 14 5.25C9.16751 5.25 5.25 9.16751 5.25 14C5.25 18.8325 9.16751 22.75 14 22.75C18.8325 22.75 22.75 18.8325 22.75 14Z" fill="#9333EA"/>
<path d="M5.25 14C5.25 15.3841 5.57136 16.6931 6.14352 17.8565C3.24485 16.4309 1.25 13.4484 1.25 10C1.25 5.16751 5.16751 1.25 10 1.25C13.4484 1.25 16.4309 3.24485 17.8565 6.14352C16.6931 5.57136 15.3841 5.25 14 5.25C9.16751 5.25 5.25 9.16751 5.25 14Z" fill="#9333EA"/>
<path d="M13.2501 10.3172V10C13.2501 9.5858 13.5858 9.25001 14.0001 9.25001C14.4143 9.25001 14.7501 9.5858 14.7501 10V10.3123C14.9267 10.3459 15.1003 10.3952 15.2766 10.4651C15.6748 10.623 16.0411 10.8691 16.4528 11.1809C16.783 11.431 16.848 11.9014 16.598 12.2316C16.3479 12.5618 15.8775 12.6268 15.5473 12.3768C15.159 12.0828 14.9253 11.9394 14.7235 11.8594C14.5393 11.7863 14.3407 11.75 14 11.75C13.5066 11.75 13.1758 11.8669 12.99 12.0015C12.8266 12.1199 12.75 12.2643 12.75 12.4654C12.75 12.7016 12.841 12.8313 13.0664 12.9575C13.3392 13.1102 13.7186 13.1927 14.1233 13.2602C14.5186 13.3261 15.1392 13.4385 15.6664 13.7336C16.241 14.0553 16.75 14.6262 16.75 15.5346C16.75 16.2364 16.4266 16.8247 15.89 17.2133C15.5627 17.4503 15.1726 17.6031 14.7501 17.6828V18C14.7501 18.4142 14.4143 18.75 14.0001 18.75C13.5858 18.75 13.2501 18.4142 13.2501 18V17.6877C13.0735 17.6541 12.8998 17.6048 12.7235 17.5349C12.3253 17.3769 11.959 17.1308 11.5473 16.8191C11.2171 16.569 11.1521 16.0986 11.4021 15.7684C11.6522 15.4382 12.1226 15.3732 12.4528 15.6232C12.8411 15.9172 13.0748 16.0605 13.2766 16.1406C13.4608 16.2137 13.6594 16.25 14 16.25C14.4935 16.25 14.8243 16.1331 15.0101 15.9985C15.1735 15.8801 15.25 15.7357 15.25 15.5346C15.25 15.2984 15.1591 15.1687 14.9337 15.0425C14.6609 14.8898 14.2815 14.8073 13.8767 14.7398C13.4815 14.6739 12.8609 14.5615 12.3337 14.2664C11.7591 13.9447 11.25 13.3738 11.25 12.4654C11.25 11.7636 11.5735 11.1753 12.1101 10.7867C12.4374 10.5497 12.8275 10.3969 13.2501 10.3172Z" fill="#9333EA"/>
</svg>
