<svg width="24" height="24" viewBox="0 0 24 24" fill="none" xmlns="http://www.w3.org/2000/svg">
  <g transform="translate(1.25, 7.25)">
    <path opacity="0.4" d="M17.181 3.05846e-07H4.31903C3.71531 -8.90902e-06 3.21702 -1.65142e-05 2.81113 0.0331462C2.38956 0.0675901 2.00203 0.141513 1.63803 0.326981C1.07354 0.614602 0.614602 1.07354 0.326981 1.63803C0.141513 2.00203 0.0675901 2.38956 0.0331462 2.81113C-1.65142e-05 3.21702 -8.90902e-06 3.71529 3.05846e-07 4.31901V5.18097C-8.90902e-06 5.7847 -1.65142e-05 6.28298 0.0331462 6.68887C0.0675901 7.11044 0.141513 7.49797 0.326981 7.86197C0.614602 8.42646 1.07354 8.8854 1.63803 9.17302C2.00203 9.35849 2.38956 9.43241 2.81113 9.46686C3.21702 9.50002 3.71527 9.50001 4.31897 9.5H17.181C17.7847 9.50001 18.283 9.50002 18.6889 9.46686C19.1104 9.43241 19.498 9.35849 19.862 9.17302C20.4265 8.8854 20.8854 8.42646 21.173 7.86197C21.3585 7.49797 21.4324 7.11044 21.4669 6.68887C21.5 6.28298 21.5 5.78471 21.5 5.18099V4.31901C21.5 3.71529 21.5 3.21702 21.4669 2.81113C21.4324 2.38956 21.3585 2.00203 21.173 1.63803C20.8854 1.07354 20.4265 0.614602 19.862 0.326981C19.498 0.141513 19.1104 0.0675901 18.6889 0.0331462C18.283 -1.65142e-05 17.7847 -8.90902e-06 17.181 3.05846e-07Z" fill="#9333EA"/>
  </g>
  <g transform="translate(1.25, 2.75)">
    <path d="M6.99339 5.65702e-05C6.09329 -0.000517363 5.43842 -0.000935018 4.86237 0.225625C4.35604 0.424764 3.9078 0.747834 3.55876 1.16521C3.16167 1.64006 2.95497 2.26146 2.67089 3.11554L2.54275 3.50012H0.75C0.335786 3.50012 0 3.83591 0 4.25012C0 4.66434 0.335786 5.00012 0.75 5.00012H2.04275L1.5925 6.35088C1.60766 6.34283 1.6229 6.3349 1.63821 6.3271C2.00221 6.14163 2.38974 6.0677 2.81131 6.03326C2.95786 6.02129 3.11644 6.01364 3.28768 6.00875L4.04981 3.72238C4.39788 2.67814 4.5187 2.35556 4.70944 2.12747C4.89738 1.90273 5.13874 1.72877 5.41138 1.62154C5.68808 1.51272 6.03231 1.50012 7.13303 1.50012H14.367C15.4677 1.50012 15.8119 1.51272 16.0886 1.62154C16.3612 1.72877 16.6026 1.90273 16.7905 2.12747C16.9813 2.35556 17.1021 2.67814 17.4502 3.72237L18.2123 6.00874C18.3837 6.01363 18.5424 6.02128 18.6891 6.03326C19.1106 6.0677 19.4982 6.14163 19.8622 6.3271C19.8773 6.33482 19.8924 6.34267 19.9074 6.35064L19.4572 5.00012H20.75C21.1642 5.00012 21.5 4.66434 21.5 4.25012C21.5 3.83591 21.1642 3.50012 20.75 3.50012H18.9572L18.8291 3.11554C18.545 2.26146 18.3383 1.64006 17.9412 1.16521C17.5922 0.747834 17.1439 0.424764 16.6376 0.225625C16.0616 -0.000934958 15.4067 -0.000517363 14.5066 5.65702e-05H6.99339Z" fill="#9333EA"/>
    <path d="M17.4995 15.5018C17.9626 15.5009 18.3567 15.4959 18.6889 15.4688C19.1104 15.4344 19.498 15.3604 19.862 15.175C20.0938 15.0568 20.3078 14.9098 20.4995 14.7385V17.5019C20.4995 18.0542 20.0518 18.5019 19.4995 18.5019H18.4995C17.9472 18.5019 17.4995 18.0542 17.4995 17.5019V15.5018Z" fill="#9333EA"/>
    <path d="M0.999512 14.7376C1.19143 14.9093 1.4058 15.0566 1.63803 15.175C2.00203 15.3604 2.38956 15.4344 2.81113 15.4688C3.14309 15.4959 3.53683 15.5009 3.99951 15.5018V17.5019C3.99951 18.0542 3.5518 18.5019 2.99951 18.5019H1.99951C1.44723 18.5019 0.999512 18.0542 0.999512 17.5019V14.7376Z" fill="#9333EA"/>
    <path d="M8.75 10.0001C8.33579 10.0001 8 10.3359 8 10.7501C8 11.1643 8.33579 11.5001 8.75 11.5001H12.75C13.1642 11.5001 13.5 11.1643 13.5 10.7501C13.5 10.3359 13.1642 10.0001 12.75 10.0001H8.75Z" fill="#9333EA"/>
    <path d="M3.75 10.7501C3.75 10.1978 4.19772 9.75012 4.75 9.75012C5.30228 9.75012 5.7501 10.1978 5.7501 10.7501C5.7501 11.3024 5.30238 11.7501 4.7501 11.7501C4.19782 11.7501 3.75 11.3024 3.75 10.7501Z" fill="#9333EA"/>
    <path d="M16.75 9.75012C16.1977 9.75012 15.75 10.1978 15.75 10.7501C15.75 11.3024 16.1977 11.7501 16.75 11.7501C17.3023 11.7501 17.7501 11.3024 17.7501 10.7501C17.7501 10.1978 17.3023 9.75012 16.75 9.75012Z" fill="#9333EA"/>
  </g>
</svg>
