<svg width="24" height="24" viewBox="0 0 24 24" fill="none" xmlns="http://www.w3.org/2000/svg">
  <g transform="translate(0.75, 3.0)">
    <path opacity="0.4" d="M16.9821 1.84877e-07H5.5179C4.70506 -7.01391e-06 4.04944 -1.28187e-05 3.51853 0.043364C2.9719 0.088026 2.49175 0.182386 2.04754 0.408726C1.34193 0.768251 0.768251 1.34193 0.408726 2.04754C0.182386 2.49175 0.088026 2.9719 0.043364 3.51853C-1.28187e-05 4.04944 -7.01401e-06 4.70505 1.84775e-07 5.51788V12.4821C-7.01401e-06 13.2949 -1.28187e-05 13.9506 0.043364 14.4815C0.088026 15.0281 0.182386 15.5082 0.408726 15.9525C0.768251 16.6581 1.34193 17.2317 2.04754 17.5913C2.49175 17.8176 2.9719 17.912 3.51853 17.9566C4.04944 18 4.70505 18 5.51788 18H16.9821C17.795 18 18.4506 18 18.9815 17.9566C19.5281 17.912 20.0082 17.8176 20.4525 17.5913C21.1581 17.2317 21.7317 16.6581 22.0913 15.9525C22.3176 15.5082 22.412 15.0281 22.4566 14.4815C22.5 13.9506 22.5 13.295 22.5 12.4821V5.51788C22.5 4.70505 22.5 4.04944 22.4566 3.51853C22.412 2.9719 22.3176 2.49175 22.0913 2.04754C21.7317 1.34193 21.1581 0.768251 20.4525 0.408726C20.0082 0.182386 19.5281 0.088026 18.9815 0.043364C18.4506 -1.30311e-05 17.7949 -7.01385e-06 16.9821 1.84877e-07Z" fill="#9333EA"/>
  </g>
  <g transform="translate(0.76, 5.76)">
    <path d="M16.9735 1.84877e-07H5.50928C4.69645 -7.01391e-06 4.04083 -1.28187e-05 3.50992 0.043364C2.96328 0.088026 2.48314 0.182386 2.03893 0.408726C1.33332 0.768251 0.75964 1.34193 0.400115 2.04754C0.0861709 2.66369 0.020629 3.36608 0.000205707 4.23902C-0.00541352 4.4792 0.104369 4.70754 0.295468 4.85314L8.95393 11.4502C9.54281 11.8997 10.0041 12.2519 10.5333 12.3929C10.9973 12.5166 11.4855 12.5166 11.9495 12.3929C12.4787 12.2519 12.94 11.8997 13.5288 11.4502L22.1873 4.85313C22.3784 4.70753 22.4882 4.4792 22.4826 4.23902C22.4621 3.36608 22.3966 2.66369 22.0827 2.04754C21.7231 1.34193 21.1495 0.768251 20.4439 0.408726C19.9996 0.182386 19.5195 0.088026 18.9729 0.043364C18.4419 -1.30311e-05 17.7863 -7.01385e-06 16.9735 1.84877e-07Z" fill="#9333EA"/>
  </g>
</svg>
