<svg width="24" height="24" viewBox="0 0 24 24" fill="none" xmlns="http://www.w3.org/2000/svg">
  <g transform="translate(1.25, 1.25)">
    <path opacity="0.4" fill-rule="evenodd" clip-rule="evenodd" d="M12.2032 0.532251C11.3644 -0.177417 10.1356 -0.177416 9.2968 0.532251L0.265611 8.17264C-0.0506184 8.44017 -0.0900969 8.9134 0.177433 9.22963C0.444962 9.54585 0.918192 9.58533 1.23442 9.3178L2.25002 8.45861V17.995C2.25002 19.928 3.81702 21.495 5.75002 21.495H12.8766C13.1495 21.495 13.4009 21.3467 13.5329 21.1079C14.0201 20.2269 14.7595 19.4905 15.6701 18.8353C15.833 18.7181 15.9421 18.5405 15.9731 18.3422C16.004 18.1439 15.9542 17.9414 15.8347 17.7801L15.533 17.3728C15.0407 16.7082 14.75 15.8874 14.75 14.9951C14.75 12.8568 16.4282 11.11 18.5389 11.0006C18.9374 10.9799 19.25 10.6507 19.25 10.2516V8.45861L20.2656 9.3178C20.5818 9.58533 21.0551 9.54585 21.3226 9.22963C21.5901 8.9134 21.5506 8.44017 21.2344 8.17264L12.2032 0.532251Z" fill="#9333EA"/>
  </g>
  <g transform="translate(0.38, 0.38)">
    <path d="M12.2032 0.53225C11.3644 -0.177417 10.1357 -0.177416 9.2968 0.532251L0.265611 8.17264C-0.0506184 8.44017 -0.0900969 8.9134 0.177433 9.22963C0.444962 9.54585 0.918192 9.58533 1.23442 9.3178L10.2656 1.67742C10.5452 1.44086 10.9548 1.44086 11.2344 1.67742L20.2656 9.3178C20.5818 9.58533 21.0551 9.54585 21.3226 9.22963C21.5901 8.9134 21.5506 8.44017 21.2344 8.17264L12.2032 0.53225Z" fill="#9333EA"/>
    <path d="M8.75 12.9952C8.05964 12.9952 7.5 13.5548 7.5 14.2452V21.4952H12.8765C13.1494 21.4952 13.4008 21.3469 13.5328 21.1081C13.6322 20.9285 13.7418 20.7551 13.8612 20.5872C13.9515 20.4603 14 20.3083 14 20.1526V14.2452C14 13.5548 13.4404 12.9952 12.75 12.9952H8.75Z" fill="#9333EA"/>
    <path d="M18.75 19.2452C16.671 19.2452 14.7699 20.662 14.2658 22.6205C14.2273 22.7702 14.2601 22.9293 14.3548 23.0515C14.4495 23.1737 14.5954 23.2452 14.75 23.2452H22.75C22.9046 23.2452 23.0505 23.1737 23.1452 23.0515C23.2399 22.9293 23.2728 22.7702 23.2342 22.6205C22.7301 20.662 20.8289 19.2452 18.75 19.2452Z" fill="#9333EA"/>
    <path d="M16 14.9952C16 13.4764 17.2312 12.2452 18.75 12.2452C20.2688 12.2452 21.5 13.4764 21.5 14.9952C21.5 16.514 20.2688 17.7452 18.75 17.7452C17.2312 17.7452 16 16.514 16 14.9952Z" fill="#9333EA"/>
  </g>
</svg>
