<svg width="24" height="24" viewBox="0 0 24 24" fill="none" xmlns="http://www.w3.org/2000/svg">
<path opacity="0.4" d="M18.8304 11.25H5.16957C4.63542 11.25 4.18956 11.25 3.82533 11.2797C3.44545 11.3108 3.08879 11.3779 2.75153 11.5497C2.23408 11.8134 1.81339 12.2341 1.54973 12.7515C1.37789 13.0888 1.31078 13.4454 1.27974 13.8253C1.24998 14.1896 1.24999 14.6354 1.25 15.1696V21C1.25 21.4142 1.58579 21.75 2 21.75C2.41421 21.75 2.75 21.4142 2.75 21V18.75H21.25V21C21.25 21.4142 21.5858 21.75 22 21.75C22.4142 21.75 22.75 21.4142 22.75 21V15.1695C22.75 14.6354 22.75 14.1896 22.7203 13.8253C22.6892 13.4454 22.6221 13.0888 22.4503 12.7515C22.1866 12.2341 21.7659 11.8134 21.2485 11.5497C20.9112 11.3779 20.5546 11.3108 20.1747 11.2797C19.8104 11.25 19.3646 11.25 18.8304 11.25Z" fill="#9333EA"/>
<path d="M6.96858 3.25C6.29522 3.24999 5.74449 3.24999 5.29693 3.28655C4.83367 3.3244 4.41527 3.40514 4.02453 3.60423C3.41301 3.91582 2.91582 4.41301 2.60423 5.02453C2.40514 5.41527 2.3244 5.83367 2.28655 6.29693C2.24999 6.74449 2.24999 7.29519 2.25 7.96856V11.8787C2.40383 11.7518 2.57184 11.6413 2.75153 11.5497C3.08879 11.3779 3.44545 11.3108 3.82533 11.2797C4.17828 11.2509 4.60788 11.25 5.12019 11.25H4.75V10.2C4.75 9.62757 4.75058 9.24336 4.77476 8.94748C4.79822 8.66035 4.8401 8.52307 4.88624 8.43251C5.00608 8.19731 5.19731 8.00608 5.43251 7.88624C5.52307 7.8401 5.66035 7.79822 5.94748 7.77476C6.24336 7.75058 6.62757 7.75 7.2 7.75H8.8C9.37243 7.75 9.75664 7.75058 10.0525 7.77476C10.3396 7.79822 10.4769 7.8401 10.5675 7.88624C10.8027 8.00608 10.9939 8.19731 11.1138 8.43251C11.1599 8.52307 11.2018 8.66035 11.2252 8.94748C11.2494 9.24336 11.25 9.62757 11.25 10.2V11.25H12.75V10.2C12.75 9.62757 12.7506 9.24336 12.7748 8.94748C12.7982 8.66035 12.8401 8.52307 12.8862 8.43251C13.0061 8.19731 13.1973 8.00608 13.4325 7.88624C13.5231 7.8401 13.6604 7.79822 13.9475 7.77476C14.2434 7.75058 14.6276 7.75 15.2 7.75H16.8C17.3724 7.75 17.7566 7.75058 18.0525 7.77476C18.3396 7.79822 18.4769 7.8401 18.5675 7.88624C18.8027 8.00608 18.9939 8.19731 19.1138 8.43251C19.1599 8.52307 19.2018 8.66035 19.2252 8.94748C19.2494 9.24336 19.25 9.62757 19.25 10.2V11.25H18.8798C19.3921 11.25 19.8217 11.2509 20.1747 11.2797C20.5546 11.3108 20.9112 11.3779 21.2485 11.5497C21.4282 11.6413 21.5962 11.7518 21.75 11.8787V7.96856C21.75 7.29519 21.75 6.74449 21.7134 6.29693C21.6756 5.83367 21.5949 5.41527 21.3958 5.02453C21.0842 4.41301 20.587 3.91582 19.9755 3.60423C19.5847 3.40514 19.1663 3.3244 18.7031 3.28655C18.2555 3.24999 17.7048 3.24999 17.0315 3.25H6.96858Z" fill="#9333EA"/>
</svg>
