<svg width="24" height="24" viewBox="0 0 24 24" fill="none" xmlns="http://www.w3.org/2000/svg">
  <g transform="translate(4.15, 4.15)" opacity="0.4">
    <path d="M1.66942 1.66942C-0.556473 3.89531 -0.556472 7.50419 1.66942 9.73008L2.16942 10.2301C2.46231 10.523 2.93718 10.523 3.23008 10.2301L10.2301 3.23008C10.523 2.93719 10.523 2.46231 10.2301 2.16942L9.73008 1.66942C7.50419 -0.556473 3.89531 -0.556472 1.66942 1.66942Z" fill="#9333EA"/>
    <path d="M5.19976 11.1997C5.19976 10.6475 5.64747 10.1997 6.19976 10.1997C6.75204 10.1997 7.19986 10.6475 7.19986 11.1997C7.19986 11.752 6.75214 12.1997 6.19986 12.1997C5.64757 12.1997 5.19976 11.752 5.19976 11.1997Z" fill="#9333EA"/>
    <path d="M8.69976 7.69975C8.14747 7.69975 7.69976 8.14746 7.69976 8.69975C7.69976 9.25203 8.14747 9.69975 8.69976 9.69975C9.25204 9.69975 9.69986 9.25203 9.69986 8.69975C9.69986 8.14746 9.25204 7.69975 8.69976 7.69975Z" fill="#9333EA"/>
    <path d="M10.1998 6.19975C10.1998 5.64746 10.6475 5.19975 11.1998 5.19975C11.752 5.19975 12.1999 5.64746 12.1999 6.19975C12.1999 6.75203 11.7521 7.19975 11.1999 7.19975C10.6476 7.19975 10.1998 6.75203 10.1998 6.19975Z" fill="#9333EA"/>
    <path d="M7.69976 13.6997C7.14747 13.6997 6.69976 14.1475 6.69976 14.6997C6.69976 15.252 7.14747 15.6997 7.69976 15.6997C8.25204 15.6997 8.69986 15.252 8.69986 14.6997C8.69986 14.1475 8.25204 13.6997 7.69976 13.6997Z" fill="#9333EA"/>
    <path d="M10.1998 11.1997C10.1998 10.6475 10.6475 10.1997 11.1998 10.1997C11.752 10.1997 12.1999 10.6475 12.1999 11.1997C12.1999 11.752 11.7521 12.1997 11.1999 12.1997C10.6476 12.1997 10.1998 11.752 10.1998 11.1997Z" fill="#9333EA"/>
    <path d="M14.6998 6.69975C14.1475 6.69975 13.6998 7.14746 13.6998 7.69975C13.6998 8.25203 14.1475 8.69975 14.6998 8.69975C15.252 8.69975 15.6999 8.25203 15.6999 7.69975C15.6999 7.14746 15.252 6.69975 14.6998 6.69975Z" fill="#9333EA"/>
  </g>
  <g transform="translate(3.25, 1.25)">
    <path d="M3.57843 1.5C2.43054 1.5 1.5 2.43054 1.5 3.57843V20.75C1.5 21.1642 1.16421 21.5 0.75 21.5C0.335786 21.5 0 21.1642 0 20.75V3.57843C0 1.60212 1.60212 0 3.57843 0C4.52748 0 5.43767 0.377012 6.10876 1.0481L8.28413 3.22347C8.08778 3.3742 7.89899 3.53945 7.71922 3.71922C7.53945 3.89899 7.3742 4.08778 7.22347 4.28413L5.0481 2.10876C4.65832 1.71898 4.12966 1.5 3.57843 1.5Z" fill="#9333EA"/>
    <path d="M7.21966 12.2202C6.92677 12.5131 6.92677 12.9879 7.21966 13.2808C7.51255 13.5737 7.98743 13.5737 8.28032 13.2808L17.2803 4.28082C17.5732 3.98793 17.5732 3.51305 17.2803 3.22016C16.9874 2.92726 16.5126 2.92727 16.2197 3.22016L7.21966 12.2202Z" fill="#9333EA"/>
  </g>
</svg>
