<svg width="24" height="24" viewBox="0 0 24 24" fill="none" xmlns="http://www.w3.org/2000/svg">
  <g transform="translate(1.25, 1.25)">
    <path opacity="0.4" d="M15.1826 1.42393e-07H6.31739C5.36495 -6.20721e-06 4.60439 -1.12765e-05 3.99013 0.0501759C3.36012 0.10165 2.81824 0.209634 2.32054 0.463223C1.52085 0.870685 0.870685 1.52085 0.463223 2.32054C0.209634 2.81824 0.10165 3.36012 0.0501759 3.99013C-1.12765e-05 4.60439 -6.20721e-06 5.36494 1.42393e-07 6.31738V15.1826C-6.20719e-06 16.1351 -1.13919e-05 16.8956 0.0501759 17.5099C0.10165 18.1399 0.209634 18.6818 0.463223 19.1795C0.870685 19.9791 1.52085 20.6293 2.32054 21.0368C2.81824 21.2904 3.36012 21.3983 3.99013 21.4498C4.60438 21.5 5.3649 21.5 6.3173 21.5H15.1826C16.135 21.5 16.8956 21.5 17.5099 21.4498C18.1399 21.3983 18.6818 21.2904 19.1795 21.0368C19.9791 20.6293 20.6293 19.9791 21.0368 19.1795C21.2904 18.6818 21.3983 18.1399 21.4498 17.5099C21.5 16.8956 21.5 16.1351 21.5 15.1827V6.31737C21.5 5.36496 21.5 4.60438 21.4498 3.99013C21.3983 3.36012 21.2904 2.81824 21.0368 2.32054C20.6293 1.52085 19.9791 0.870685 19.1795 0.463223C18.6818 0.209634 18.1399 0.10165 17.5099 0.0501759C16.8956 -1.13919e-05 16.1351 -6.20719e-06 15.1826 1.42393e-07Z" fill="#9333EA"/>
  </g>
  <g transform="translate(1.25, 2.88)">
    <path d="M6.75 0C7.16422 0 7.5 0.335786 7.5 0.75V2H14V0.75C14 0.335786 14.3358 0 14.75 0C15.1642 0 15.5 0.335786 15.5 0.75V2.00007C16.306 2.00064 16.9654 2.00569 17.5098 2.05018C18.1399 2.10165 18.6817 2.20963 19.1794 2.46322C19.9791 2.87069 20.6293 3.52085 21.0368 4.32054C21.2903 4.81824 21.3983 5.36012 21.4498 5.99013C21.4959 6.55469 21.4997 7.24283 21.5 8.08994C21.5 8.14597 21.5 8.17398 21.4891 8.19538C21.4795 8.2142 21.4642 8.22951 21.4454 8.2391C21.424 8.25 21.396 8.25 21.34 8.25H0.159983C0.103973 8.25 0.0759688 8.25 0.0545738 8.2391C0.0357583 8.22951 0.0204533 8.2142 0.0108704 8.19538C-2.53245e-05 8.17398 -1.64183e-05 8.14597 1.39805e-06 8.08995C0.000299507 7.24284 0.00402736 6.5547 0.0501538 5.99013C0.101628 5.36012 0.209612 4.81824 0.463201 4.32054C0.870663 3.52085 1.52083 2.87069 2.32052 2.46322C2.81822 2.20963 3.3601 2.10165 3.99011 2.05018C4.53456 2.00569 5.19394 2.00064 6 2.00007V0.75C6 0.335786 6.33579 0 6.75 0Z" fill="#9333EA"/>
    <path d="M5.25 13.25C5.25 12.6977 5.69772 12.25 6.25 12.25C6.80229 12.25 7.2501 12.6977 7.2501 13.25C7.2501 13.8023 6.80239 14.25 6.2501 14.25C5.69782 14.25 5.25 13.8023 5.25 13.25Z" fill="#9333EA"/>
    <path d="M10.75 12.25C10.1977 12.25 9.75 12.6977 9.75 13.25C9.75 13.8023 10.1977 14.25 10.75 14.25C11.3023 14.25 11.7501 13.8023 11.7501 13.25C11.7501 12.6977 11.3023 12.25 10.75 12.25Z" fill="#9333EA"/>
    <path d="M14.25 13.25C14.25 12.6977 14.6977 12.25 15.25 12.25C15.8023 12.25 16.2501 12.6977 16.2501 13.25C16.2501 13.8023 15.8024 14.25 15.2501 14.25C14.6978 14.25 14.25 13.8023 14.25 13.25Z" fill="#9333EA"/>
    <path d="M6.25 16.25C5.69772 16.25 5.25 16.6977 5.25 17.25C5.25 17.8023 5.69772 18.25 6.25 18.25C6.80229 18.25 7.2501 17.8023 7.2501 17.25C7.2501 16.6977 6.80229 16.25 6.25 16.25Z" fill="#9333EA"/>
    <path d="M9.75 17.25C9.75 16.6977 10.1977 16.25 10.75 16.25C11.3023 16.25 11.7501 16.6977 11.7501 17.25C11.7501 17.8023 11.3024 18.25 10.7501 18.25C10.1978 18.25 9.75 17.8023 9.75 17.25Z" fill="#9333EA"/>
    <path d="M15.25 16.25C14.6977 16.25 14.25 16.6977 14.25 17.25C14.25 17.8023 14.6977 18.25 15.25 18.25C15.8023 18.25 16.2501 17.8023 16.2501 17.25C16.2501 16.6977 15.8023 16.25 15.25 16.25Z" fill="#9333EA"/>
  </g>
</svg>
