<svg width="24" height="24" viewBox="0 0 24 24" fill="none" xmlns="http://www.w3.org/2000/svg">
  <g transform="translate(3.25, 1.25)">
    <path opacity="0.4" d="M12.3818 2.17854e-07H5.11821C4.37513 -7.60143e-06 3.77197 -1.39512e-05 3.28273 0.039958C2.77778 0.081214 2.32851 0.168761 1.91103 0.381478C1.25247 0.717035 0.717035 1.25247 0.381478 1.91103C0.168761 2.32851 0.081214 2.77778 0.039958 3.28273C-1.39475e-05 3.77197 -7.60135e-06 4.37512 2.17936e-07 5.1182V16.3818C-7.6013e-06 17.1249 -1.40965e-05 17.728 0.039958 18.2173C0.081214 18.7222 0.168762 19.1715 0.381478 19.589C0.717034 20.2475 1.25247 20.783 1.91103 21.1185C2.32851 21.3312 2.77778 21.4188 3.28273 21.46C3.77195 21.5 4.37507 21.5 5.11811 21.5L12.465 21.5C13.5586 21.5002 14.3759 21.5004 15.0133 21.3344C15.2687 21.2679 15.4704 21.0721 15.5443 20.8187C15.6183 20.5653 15.5536 20.2918 15.374 20.0983C14.0604 18.6832 13 16.9049 13 14.752C13 12.1956 14.6694 10.0244 16.9807 9.27731C17.2902 9.17725 17.5 8.88901 17.5 8.56366V5.11819C17.5 4.37515 17.5 3.77195 17.46 3.28273C17.4188 2.77778 17.3312 2.32851 17.1185 1.91103C16.783 1.25247 16.2475 0.717035 15.589 0.381478C15.1715 0.168761 14.7222 0.081214 14.2173 0.039958C13.728 -1.39512e-05 13.1249 -7.60143e-06 12.3818 2.17854e-07Z" fill="#9333EA"/>
  </g>
  <g transform="translate(2.88, 3.5)">
    <path d="M6.75 1.5C7.16421 1.5 7.5 1.16421 7.5 0.75C7.5 0.335786 7.16421 0 6.75 0H5.75C5.33579 0 5 0.335786 5 0.75C5 1.16421 5.33579 1.5 5.75 1.5H6.75Z" fill="#9333EA"/>
    <path d="M7.5 3.75C7.5 4.16421 7.16421 4.5 6.75 4.5H5.75C5.33579 4.5 5 4.16421 5 3.75C5 3.33579 5.33579 3 5.75 3H6.75C7.16421 3 7.5 3.33579 7.5 3.75Z" fill="#9333EA"/>
    <path d="M5.75 6C5.33579 6 5 6.33579 5 6.75C5 7.16421 5.33579 7.5 5.75 7.5H6.75C7.16421 7.5 7.5 7.16421 7.5 6.75C7.5 6.33579 7.16421 6 6.75 6H5.75Z" fill="#9333EA"/>
    <path d="M2 10C1.30964 10 0.75 10.5596 0.75 11.25V16.25C0.75 16.6642 1.08579 17 1.5 17H6C6.41421 17 6.75 16.6642 6.75 16.25V11.25C6.75 10.5596 6.19036 10 5.5 10H2Z" fill="#9333EA"/>
    <path d="M2.5 3.75C2.5 4.16421 2.16421 4.5 1.75 4.5H0.75C0.335786 4.5 0 4.16421 0 3.75C0 3.33579 0.335786 3 0.75 3H1.75C2.16421 3 2.5 3.33579 2.5 3.75Z" fill="#9333EA"/>
    <path d="M1.75 1.5C2.16421 1.5 2.5 1.16421 2.5 0.75C2.5 0.335786 2.16421 0 1.75 0H0.75C0.335786 0 0 0.335786 0 0.75C0 1.16421 0.335786 1.5 0.75 1.5H1.75Z" fill="#9333EA"/>
    <path d="M2.5 6.75C2.5 7.16421 2.16421 7.5 1.75 7.5H0.75C0.335786 7.5 0 7.16421 0 6.75C0 6.33579 0.335786 6 0.75 6H1.75C2.16421 6 2.5 6.33579 2.5 6.75Z" fill="#9333EA"/>
    <path fill-rule="evenodd" clip-rule="evenodd" d="M13.7501 5.75C11.2644 5.75 9.25 7.76704 9.25 10.252C9.25 13.0167 11.4501 15.1501 13.45 16.65C13.6278 16.7833 13.8722 16.7833 14.05 16.65C16.05 15.15 18.25 13.0167 18.25 10.25C18.25 7.76469 16.2354 5.75 13.7501 5.75ZM15.25 10.2501C15.25 11.0785 14.5785 11.7501 13.75 11.7501C12.9216 11.7501 12.25 11.0785 12.25 10.2501C12.25 9.42164 12.9216 8.75006 13.75 8.75006C14.5785 8.75006 15.25 9.42164 15.25 10.2501Z" fill="#9333EA"/>
  </g>
</svg>
