<svg width="24" height="24" viewBox="0 0 24 24" fill="none" xmlns="http://www.w3.org/2000/svg">
  <g transform="translate(1.25, 0.25)">
    <path opacity="0.4" d="M14.383 1.04418e-07H7.117C6.02486 -5.2816e-06 5.15935 -9.54792e-06 4.46173 0.0569881C3.74834 0.115274 3.14472 0.236882 2.59355 0.51772C1.69978 0.973118 0.973118 1.69978 0.51772 2.59355C0.236882 3.14472 0.115274 3.74835 0.0569881 4.46173C-9.55164e-06 5.15935 -5.2816e-06 6.02486 1.04418e-07 7.117V13.383C-5.28159e-06 14.4752 -9.6336e-06 15.3406 0.0569881 16.0383C0.115274 16.7517 0.236882 17.3553 0.51772 17.9065C0.973118 18.8002 1.69978 19.5269 2.59355 19.9823C3.14472 20.2631 3.74835 20.3847 4.46173 20.443C5.15935 20.5 6.02484 20.5 7.11698 20.5L7.84392 20.5L8.79995 21.9646C9.00805 22.2835 9.19144 22.5645 9.35993 22.7775C9.53375 22.9973 9.75646 23.2315 10.0734 23.3644C10.5062 23.5459 10.9938 23.5459 11.4266 23.3644C11.7435 23.2315 11.9662 22.9973 12.1401 22.7775C12.3085 22.5645 12.492 22.2834 12.7001 21.9646L13.6561 20.5L14.383 20.5C15.4752 20.5 16.3406 20.5 17.0383 20.443C17.7517 20.3847 18.3553 20.2631 18.9065 19.9823C19.8002 19.5269 20.5269 18.8002 20.9823 17.9065C21.2631 17.3553 21.3847 16.7517 21.443 16.0383C21.5 15.3406 21.5 14.4752 21.5 13.383V7.11698C21.5 6.02484 21.5 5.15935 21.443 4.46173C21.3847 3.74834 21.2631 3.14472 20.9823 2.59355C20.5269 1.69978 19.8002 0.973118 18.9065 0.51772C18.3553 0.236882 17.7517 0.115274 17.0383 0.0569881C16.3406 -9.6336e-06 15.4751 -5.28159e-06 14.383 1.04418e-07Z" fill="#9333EA"/>
  </g>
  <g transform="translate(6.25, 6.38)">
    <path d="M5.74942 0C4.09277 0 2.75 1.34326 2.75 3C2.75 4.65674 4.09277 6 5.74942 6C7.40606 6 8.74883 4.65674 8.74883 3C8.74883 1.34326 7.40606 0 5.74942 0Z" fill="#9333EA"/>
    <path d="M5.75 7.25C3.59734 7.25 1.42201 8.24572 0.137083 10.0678C-0.024359 10.2967 -0.0447668 10.5965 0.0841649 10.8452C0.213097 11.0939 0.469875 11.25 0.750002 11.25H10.75C11.0301 11.25 11.2869 11.0939 11.4158 10.8452C11.5448 10.5965 11.5244 10.2967 11.3629 10.0678C10.078 8.24572 7.90266 7.25 5.75 7.25Z" fill="#9333EA"/>
  </g>
</svg>
