<svg width="24" height="24" viewBox="0 0 24 24" fill="none" xmlns="http://www.w3.org/2000/svg">
  <g transform="translate(0.25, 0.25)">
    <path opacity="0.4" d="M11.75 0C5.26065 0 0 5.26065 0 11.75C0 18.2393 5.26065 23.5 11.75 23.5C18.2393 23.5 23.5 18.2393 23.5 11.75C23.5 5.26065 18.2393 0 11.75 0Z" fill="#9333EA"/>
  </g>
  <g transform="translate(6.0, 6.0)">
    <path d="M4.59432 3.08897L2.58971 0.398226C2.4821 0.253775 2.42829 0.18155 2.37021 0.134354C2.18608 -0.0152484 1.93111 -0.0423279 1.71967 0.065265C1.65297 0.0992081 1.58519 0.15852 1.44964 0.277145L1.06026 0.617889C1.02582 0.648029 1.00857 0.663125 0.992809 0.677314C0.162132 1.42524 -0.183894 2.57294 0.0949357 3.65539C0.100226 3.67592 0.107877 3.70398 0.123162 3.76002L0.130208 3.78585C0.401296 4.77745 0.829878 5.71909 1.39958 6.57478L1.41814 6.60261C2.46997 8.1778 3.8222 9.53003 5.39739 10.5819L5.42523 10.6004C6.28091 11.1701 7.22254 11.5987 8.21415 11.8698L8.23998 11.8768C8.29604 11.8921 8.32407 11.8998 8.34461 11.9051C9.42706 12.1839 10.5748 11.8379 11.3227 11.0072C11.3369 10.9914 11.352 10.9742 11.3821 10.9397L11.7244 10.5486C11.8431 10.4129 11.9025 10.3451 11.9365 10.2783C12.0435 10.0677 12.017 9.81389 11.8688 9.62993C11.8218 9.57153 11.7497 9.51741 11.6055 9.40917L8.84434 7.33603C8.72609 7.24724 8.66696 7.20285 8.60307 7.18891C8.54677 7.17663 8.48812 7.18082 8.43414 7.20098C8.37288 7.22386 8.32066 7.27621 8.21624 7.38091L7.02249 8.57775C5.40235 7.79768 4.20224 6.59757 3.42217 4.97743L4.56735 3.69559C4.6604 3.59143 4.70693 3.53936 4.72649 3.47998C4.74374 3.42763 4.74624 3.37153 4.7337 3.31784C4.71948 3.25697 4.67776 3.20097 4.59432 3.08897Z" fill="#9333EA"/>
  </g>
</svg>
