<svg width="24" height="24" viewBox="0 0 24 24" fill="none" xmlns="http://www.w3.org/2000/svg">
<path opacity="0.4" d="M9.5 1.25C7.70507 1.25 6.25 2.70507 6.25 4.5V5.25H4.5C2.70507 5.25 1.25 6.70507 1.25 8.5V22C1.25 22.4142 1.58579 22.75 2 22.75H17C17.4142 22.75 17.75 22.4142 17.75 22V4.5C17.75 2.70507 16.2949 1.25 14.5 1.25H9.5Z" fill="#9333EA"/>
<path d="M13.75 6.5C13.75 6.91421 13.4142 7.25 13 7.25H11C10.5858 7.25 10.25 6.91421 10.25 6.5C10.25 6.08579 10.5858 5.75 11 5.75H13C13.4142 5.75 13.75 6.08579 13.75 6.5Z" fill="#9333EA"/>
<path d="M17.75 7.25H19.5C21.2949 7.25 22.75 8.70507 22.75 10.5V21.25H23C23.4142 21.25 23.75 21.5858 23.75 22C23.75 22.4142 23.4142 22.75 23 22.75H1C0.585787 22.75 0.25 22.4142 0.25 22C0.25 21.5858 0.585787 21.25 1 21.25H17.75V7.25Z" fill="#9333EA"/>
<path d="M13.75 9.5C13.75 9.91421 13.4142 10.25 13 10.25H11C10.5858 10.25 10.25 9.91421 10.25 9.5C10.25 9.08579 10.5858 8.75 11 8.75H13C13.4142 8.75 13.75 9.08579 13.75 9.5Z" fill="#9333EA"/>
<path d="M13 16.25C13.4142 16.25 13.75 15.9142 13.75 15.5C13.75 15.0858 13.4142 14.75 13 14.75H11C10.5858 14.75 10.25 15.0858 10.25 15.5C10.25 15.9142 10.5858 16.25 11 16.25H13Z" fill="#9333EA"/>
<path d="M13 13.25C13.4142 13.25 13.75 12.9142 13.75 12.5C13.75 12.0858 13.4142 11.75 13 11.75H11C10.5858 11.75 10.25 12.0858 10.25 12.5C10.25 12.9142 10.5858 13.25 11 13.25H13Z" fill="#9333EA"/>
<path d="M13.75 18.5C13.75 18.9142 13.4142 19.25 13 19.25H11C10.5858 19.25 10.25 18.9142 10.25 18.5C10.25 18.0858 10.5858 17.75 11 17.75H13C13.4142 17.75 13.75 18.0858 13.75 18.5Z" fill="#9333EA"/>
<path d="M4.75 14.5C4.75 14.9142 5.08579 15.25 5.5 15.25C5.91421 15.25 6.25 14.9142 6.25 14.5V13.5C6.25 13.0858 5.91421 12.75 5.5 12.75C5.08579 12.75 4.75 13.0858 4.75 13.5V14.5Z" fill="#9333EA"/>
<path d="M5.5 11.25C5.08579 11.25 4.75 10.9142 4.75 10.5V9.5C4.75 9.08579 5.08579 8.75 5.5 8.75C5.91421 8.75 6.25 9.08579 6.25 9.5V10.5C6.25 10.9142 5.91421 11.25 5.5 11.25Z" fill="#9333EA"/>
<path d="M4.75 18.5C4.75 18.9142 5.08579 19.25 5.5 19.25C5.91421 19.25 6.25 18.9142 6.25 18.5V17.5C6.25 17.0858 5.91421 16.75 5.5 16.75C5.08579 16.75 4.75 17.0858 4.75 17.5V18.5Z" fill="#9333EA"/>
</svg>
