<svg preserveAspectRatio="none" width="100%" height="100%" overflow="visible" style="display: block;" viewBox="0 0 23.3333 28.6663" fill="none" xmlns="http://www.w3.org/2000/svg">
<g id="Vector">
<path d="M22.3333 11.6667C22.3333 18.324 14.948 25.2573 12.468 27.3987C12.237 27.5724 11.9557 27.6663 11.6667 27.6663C11.3776 27.6663 11.0964 27.5724 10.8653 27.3987C8.38533 25.2573 1 18.324 1 11.6667C1 8.83769 2.12381 6.12458 4.12419 4.12419C6.12458 2.12381 8.83769 1 11.6667 1C14.4956 1 17.2088 2.12381 19.2091 4.12419C21.2095 6.12458 22.3333 8.83769 22.3333 11.6667Z" stroke="var(--stroke-0, #7B9191)" stroke-width="2" stroke-linecap="round" stroke-linejoin="round"/>
<path d="M22.3333 11.6667C22.3333 18.324 14.948 25.2573 12.468 27.3987C12.237 27.5724 11.9557 27.6663 11.6667 27.6663C11.3776 27.6663 11.0964 27.5724 10.8653 27.3987C8.38533 25.2573 1 18.324 1 11.6667C1 8.83769 2.12381 6.12458 4.12419 4.12419C6.12458 2.12381 8.83769 1 11.6667 1C14.4956 1 17.2088 2.12381 19.2091 4.12419C21.2095 6.12458 22.3333 8.83769 22.3333 11.6667Z" stroke="var(--stroke-1, black)" stroke-opacity="0.2" stroke-width="2" stroke-linecap="round" stroke-linejoin="round"/>
<path d="M11.6667 15.6667C13.8758 15.6667 15.6667 13.8758 15.6667 11.6667C15.6667 9.45753 13.8758 7.66667 11.6667 7.66667C9.45753 7.66667 7.66667 9.45753 7.66667 11.6667C7.66667 13.8758 9.45753 15.6667 11.6667 15.6667Z" stroke="var(--stroke-0, #7B9191)" stroke-width="2" stroke-linecap="round" stroke-linejoin="round"/>
<path d="M11.6667 15.6667C13.8758 15.6667 15.6667 13.8758 15.6667 11.6667C15.6667 9.45753 13.8758 7.66667 11.6667 7.66667C9.45753 7.66667 7.66667 9.45753 7.66667 11.6667C7.66667 13.8758 9.45753 15.6667 11.6667 15.6667Z" stroke="var(--stroke-1, black)" stroke-opacity="0.2" stroke-width="2" stroke-linecap="round" stroke-linejoin="round"/>
</g>
</svg>
