<svg preserveAspectRatio="none" width="100%" height="100%" overflow="visible" style="display: block;" viewBox="0 0 24 24" fill="none" xmlns="http://www.w3.org/2000/svg">
<g id="Frame 2147258865">
<path id="Vector" d="M1 21.8438H22.4688M2.78125 5.7375H20.6875M17.1063 5.7375V10.2094M2.79062 17.4844L7.31875 12.9469L16.2062 21.8438M11.7344 18.2625L15.3156 14.6813L20.6875 20.0531M2.78125 2.15625H20.6781V21.8438H2.78125V2.15625ZM16.2156 11.1094C16.2156 11.3456 16.3095 11.5721 16.4765 11.7391C16.6435 11.9062 16.87 12 17.1063 12C17.3425 12 17.569 11.9062 17.736 11.7391C17.903 11.5721 17.9969 11.3456 17.9969 11.1094C17.9969 10.8732 17.903 10.6466 17.736 10.4796C17.569 10.3126 17.3425 10.2188 17.1063 10.2188C16.87 10.2188 16.6435 10.3126 16.4765 10.4796C16.3095 10.6466 16.2156 10.8732 16.2156 11.1094Z" stroke="var(--stroke-0, #404040)" stroke-width="1.5" stroke-miterlimit="10"/>
</g>
</svg>
