<svg preserveAspectRatio="none" width="100%" height="100%" overflow="visible" style="display: block;" viewBox="0 0 23.7214 23.589" fill="none" xmlns="http://www.w3.org/2000/svg">
<g id="justice-hammer--hammer-work-mallet-office-company-gavel-justice-judge-arbitration-court">
<path id="Union" fill-rule="evenodd" clip-rule="evenodd" d="M6.50721 10.5355C5.50301 9.53127 5.50301 7.90313 6.50721 6.89891L12.653 0.753154C13.6572 -0.251051 15.2853 -0.251051 16.2895 0.753154L19.0047 3.46844C20.009 4.47265 20.009 6.10079 19.0047 7.10499L16.85 9.25978L23.3448 15.7545C23.8469 16.2566 23.8469 17.0706 23.3448 17.5727C22.8427 18.0748 22.0286 18.0748 21.5265 17.5727L15.0318 11.0781L12.859 13.2508C11.8549 14.255 10.2267 14.255 9.2225 13.2508L6.50721 10.5355ZM2.14286 21.0175H1.28571C0.575634 21.0175 0 21.5932 0 22.3032C0 23.0133 0.575634 23.589 1.28571 23.589H14.1429C14.8529 23.589 15.4286 23.0133 15.4286 22.3032C15.4286 21.5932 14.8529 21.0175 14.1429 21.0175H13.2857V18.0175C13.2857 17.5442 12.902 17.1604 12.4286 17.1604H3C2.52662 17.1604 2.14286 17.5442 2.14286 18.0175V21.0175Z" fill="var(--fill-0, #121212)"/>
</g>
</svg>
