<svg preserveAspectRatio="none" width="100%" height="100%" overflow="visible" style="display: block;" viewBox="0 0 14 15.1667" fill="none" xmlns="http://www.w3.org/2000/svg">
<g id="coffee-mug--coffee-cook-cup-drink-mug-cooking-nutrition-cafe-caffeine-food">
<path id="Union" fill-rule="evenodd" clip-rule="evenodd" d="M7.16667 0C6.79847 0 6.5 0.298477 6.5 0.666667V3C6.5 3.3682 6.79847 3.66667 7.16667 3.66667C7.53487 3.66667 7.83333 3.3682 7.83333 3V0.666667C7.83333 0.298477 7.53487 0 7.16667 0ZM3.10653 15.0902C3.74767 15.1362 4.53613 15.1667 5.5 15.1667C6.46387 15.1667 7.25233 15.1362 7.89347 15.0902C9.4671 14.9774 10.5735 13.9291 10.886 12.5H11.3774C12.6456 12.5 13.8761 11.6159 13.9714 10.1926C13.989 9.93017 14 9.6423 14 9.33333C14 9.02437 13.989 8.7365 13.9714 8.47403C13.8761 7.05073 12.6456 6.16667 11.3774 6.16667H10.8315C10.703 5.5901 10.2517 5.1468 9.6389 5.056C8.9306 4.95107 7.6567 4.83333 5.5 4.83333C3.3433 4.83333 2.06939 4.95107 1.36109 5.056C0.686587 5.15593 0.20783 5.6829 0.139703 6.34457C0.0726267 6.9961 0 8.132 0 10C0 10.6971 0.0101133 11.2876 0.0262733 11.7863C0.0840433 13.5693 1.28088 14.9594 3.10653 15.0902ZM10.9603 7.83333C10.9841 8.4122 11 9.12597 11 10C11 10.2967 10.9982 10.5741 10.9948 10.8333H11.3774C11.931 10.8333 12.282 10.4758 12.3084 10.0813C12.3237 9.85333 12.3333 9.60267 12.3333 9.33333C12.3333 9.064 12.3237 8.81333 12.3084 8.58533C12.282 8.19083 11.931 7.83333 11.3774 7.83333H10.9603ZM3.83333 1.33333C3.83333 0.965143 4.1318 0.666667 4.5 0.666667C4.8682 0.666667 5.16667 0.965143 5.16667 1.33333V3.66667C5.16667 4.03487 4.8682 4.33333 4.5 4.33333C4.1318 4.33333 3.83333 4.03487 3.83333 3.66667V1.33333Z" fill="var(--fill-0, white)"/>
</g>
</svg>
