<svg preserveAspectRatio="none" width="100%" height="100%" overflow="visible" style="display: block;" viewBox="0 0 24 24" fill="none" xmlns="http://www.w3.org/2000/svg">
<g id="Frame 2147258868">
<path id="Union" d="M12 5C13.6569 5 15 6.34315 15 8C15 9.30574 14.1645 10.413 13 10.8252V11.4111L20.9717 15.8398C21.6065 16.1926 22 16.8626 22 17.5889V18C22 19.1046 21.1046 20 20 20H4C2.89543 20 2 19.1046 2 18V17.5889C2 16.8626 2.39351 16.1926 3.02832 15.8398L11 11.4111V10C11 9.48233 11.3933 9.05622 11.8975 9.00488L12.1025 8.99512C12.6067 8.94379 13 8.51768 13 8C13 7.44772 12.5523 7 12 7C11.6311 7.00001 11.3072 7.19947 11.1328 7.50098C10.8562 7.97877 10.2445 8.14171 9.7666 7.86523C9.28881 7.5886 9.12587 6.97697 9.40234 6.49902C9.9196 5.60513 10.8885 5 12 5ZM4 17.5889V18H20V17.5889L12 13.1436L4 17.5889Z" fill="var(--fill-0, #404040)"/>
</g>
</svg>
