<svg preserveAspectRatio="none" width="100%" height="100%" overflow="visible" style="display: block;" viewBox="0 0 21 22.75" fill="none" xmlns="http://www.w3.org/2000/svg">
<g id="coffee-mug--coffee-cook-cup-drink-mug-cooking-nutrition-cafe-caffeine-food">
<path id="Union" fill-rule="evenodd" clip-rule="evenodd" d="M10.75 0C10.1977 0 9.75 0.447715 9.75 1V4.5C9.75 5.0523 10.1977 5.5 10.75 5.5C11.3023 5.5 11.75 5.0523 11.75 4.5V1C11.75 0.447715 11.3023 0 10.75 0ZM4.6598 22.6353C5.6215 22.7042 6.8042 22.75 8.25 22.75C9.6958 22.75 10.8785 22.7042 11.8402 22.6353C14.2007 22.4661 15.8603 20.8937 16.3291 18.75H17.066C18.9684 18.75 20.8142 17.4239 20.9571 15.2889C20.9834 14.8952 21 14.4635 21 14C21 13.5365 20.9834 13.1048 20.9571 12.7111C20.8142 10.5761 18.9684 9.25 17.066 9.25H16.2472C16.0545 8.38515 15.3776 7.7202 14.4583 7.584C13.3959 7.4266 11.485 7.25 8.25 7.25C5.01495 7.25 3.10409 7.4266 2.04164 7.584C1.02988 7.7339 0.311745 8.52435 0.209555 9.51685C0.10894 10.4942 0 12.198 0 15C0 16.0457 0.01517 16.9315 0.03941 17.6795C0.126065 20.354 1.92132 22.4391 4.6598 22.6353ZM16.4405 11.75C16.4762 12.6183 16.5 13.6889 16.5 15C16.5 15.4451 16.4973 15.8611 16.4923 16.25H17.066C17.8964 16.25 18.4231 15.7137 18.4627 15.122C18.4856 14.78 18.5 14.404 18.5 14C18.5 13.596 18.4856 13.22 18.4627 12.878C18.4231 12.2863 17.8964 11.75 17.066 11.75H16.4405ZM5.75 2C5.75 1.44771 6.1977 1 6.75 1C7.3023 1 7.75 1.44771 7.75 2V5.5C7.75 6.0523 7.3023 6.5 6.75 6.5C6.1977 6.5 5.75 6.0523 5.75 5.5V2Z" fill="var(--fill-0, #121212)"/>
</g>
</svg>
