<svg preserveAspectRatio="none" width="100%" height="100%" overflow="visible" style="display: block;" viewBox="0 0 18.5 21.5" fill="none" xmlns="http://www.w3.org/2000/svg">
<path id="Vector 2" opacity="0.4" d="M12.1826 1.42393e-07H6.31739C5.36495 -6.20721e-06 4.60439 -1.12765e-05 3.99013 0.0501759C3.36012 0.10165 2.81824 0.209634 2.32054 0.463223C1.52085 0.870685 0.870685 1.52085 0.463223 2.32054C0.209634 2.81824 0.10165 3.36012 0.0501759 3.99013C-1.12802e-05 4.60439 -6.20721e-06 5.36494 1.42393e-07 6.31738V15.1826C-6.20719e-06 16.1351 -1.13919e-05 16.8956 0.0501759 17.5099C0.10165 18.1399 0.209634 18.6818 0.463223 19.1795C0.870685 19.9791 1.52085 20.6293 2.32054 21.0368C2.81824 21.2904 3.36012 21.3983 3.99013 21.4498C4.60438 21.5 5.3649 21.5 6.3173 21.5H12.1595C12.7929 21.5 13.3382 21.5 13.8067 21.4863C14.1472 21.4764 14.4382 21.2383 14.5153 20.9065C14.5925 20.5747 14.4363 20.2326 14.1351 20.0735C12.2691 19.0877 11 17.1289 11 14.875C11 11.6303 13.6303 9 16.875 9C17.1387 9 17.398 9.01733 17.6519 9.05083C17.8661 9.07908 18.082 9.01363 18.2444 8.87122C18.4069 8.72882 18.5 8.52329 18.5 8.30727V6.31737C18.5 5.36496 18.5 4.60438 18.4498 3.99013C18.3983 3.36012 18.2904 2.81824 18.0368 2.32054C17.6293 1.52085 16.9791 0.870685 16.1795 0.463223C15.6818 0.209634 15.1399 0.10165 14.5099 0.0501759C13.8956 -1.13919e-05 13.1351 -6.20719e-06 12.1826 1.42393e-07Z" fill="var(--fill-0, #7E22CE)"/>
</svg>
