<svg preserveAspectRatio="none" width="100%" height="100%" overflow="visible" style="display: block;" viewBox="0 0 17.9167 17.9184" fill="none" xmlns="http://www.w3.org/2000/svg">
<g id="Vector 1">
<path d="M8.59785 1.14364e-07H12.6522C13.4459 -5.04931e-06 14.0797 -9.17353e-06 14.5916 0.0418134C15.1166 0.0847085 15.5682 0.174695 15.9829 0.386019C16.6493 0.725571 17.1911 1.26738 17.5307 1.93378C17.742 2.34853 17.832 2.8001 17.8749 3.32511C17.9167 3.83698 17.9167 4.47075 17.9167 5.26442L17.9167 8.06571C17.917 8.98533 17.9172 9.58945 17.7601 10.1C17.6748 10.3771 17.5569 10.6395 17.4107 10.8827C17.2329 11.1785 16.8489 11.2742 16.5531 11.0964C16.2572 10.9186 16.1615 10.5346 16.3393 10.2388C16.4338 10.0815 16.5101 9.91183 16.5653 9.73233C16.6597 9.4256 16.6667 9.02732 16.6667 7.94973V5.29167C16.6667 4.46461 16.6662 3.88191 16.629 3.4269C16.5925 2.97919 16.5235 2.71043 16.4169 2.50127C16.1972 2.07007 15.8466 1.71949 15.4154 1.49978C15.2063 1.3932 14.9375 1.32424 14.4898 1.28766C14.0348 1.25049 13.4521 1.25 12.625 1.25H8.62503C7.79798 1.25 7.21527 1.25049 6.76027 1.28766C6.31255 1.32424 6.0438 1.3932 5.83464 1.49978C5.78696 1.52407 5.74027 1.54996 5.69463 1.57738C5.39876 1.75518 5.01479 1.65945 4.837 1.36359C4.65921 1.06772 4.75493 0.68374 5.0508 0.505949C5.12132 0.463568 5.19348 0.423556 5.26715 0.386019C5.68189 0.174695 6.13346 0.0847085 6.65847 0.0418134C7.17036 -9.17353e-06 7.80416 -5.04931e-06 8.59785 1.14364e-07Z" fill="var(--fill-0, white)"/>
<path d="M7.29172 8.95833C6.83148 8.95833 6.45838 9.33143 6.45838 9.79167C6.45838 10.2519 6.83148 10.625 7.29172 10.625C7.75195 10.625 8.12513 10.2519 8.12513 9.79167C8.12513 9.33143 7.75195 8.95833 7.29172 8.95833Z" fill="var(--fill-0, white)"/>
<path d="M3.54172 9.79167C3.54172 9.33143 3.91481 8.95833 4.37505 8.95833C4.83529 8.95833 5.20847 9.33143 5.20847 9.79167C5.20847 10.2519 4.83537 10.625 4.37513 10.625C3.9149 10.625 3.54172 10.2519 3.54172 9.79167Z" fill="var(--fill-0, white)"/>
<path d="M10.2084 8.95833C9.74815 8.95833 9.37505 9.33143 9.37505 9.79167C9.37505 10.2519 9.74815 10.625 10.2084 10.625C10.6686 10.625 11.0418 10.2519 11.0418 9.79167C11.0418 9.33143 10.6686 8.95833 10.2084 8.95833Z" fill="var(--fill-0, white)"/>
<path fill-rule="evenodd" clip-rule="evenodd" d="M5.26453 3.33333H9.31889C10.1126 3.33333 10.7464 3.33332 11.2583 3.37515C11.7833 3.41804 12.2348 3.50803 12.6496 3.71935C13.316 4.0589 13.8578 4.60071 14.1974 5.26712C14.4087 5.68186 14.4987 6.13343 14.5416 6.65844C14.5834 7.17032 14.5834 7.80408 14.5834 8.59775L14.5834 11.399C14.5837 12.3186 14.5838 12.9228 14.4267 13.4333C14.0818 14.5543 13.2043 15.4318 12.0833 15.7767C11.5728 15.9338 10.9687 15.9336 10.0491 15.9334L9.93311 15.9333C9.64673 15.9333 9.58912 15.9362 9.54325 15.9452C9.41183 15.9713 9.29224 16.0388 9.20213 16.138C9.17068 16.1726 9.13854 16.2205 8.99077 16.4658L8.91734 16.5877C8.75739 16.8532 8.61761 17.0853 8.48978 17.2622C8.3597 17.4423 8.19167 17.6394 7.94866 17.762C7.5355 17.9705 7.04792 17.9705 6.63476 17.762C6.39175 17.6394 6.22372 17.4423 6.09364 17.2622C5.96581 17.0853 5.82604 16.8532 5.66609 16.5877L5.59265 16.4658C5.44488 16.2205 5.41274 16.1726 5.38129 16.138C5.29118 16.0388 5.17159 15.9713 5.04017 15.9452C4.9943 15.9362 4.93669 15.9333 4.65031 15.9333L4.53433 15.9334C3.61472 15.9336 3.0106 15.9338 2.50007 15.7767C1.37912 15.4318 0.501624 14.5543 0.156685 13.4333C-0.000414004 12.9228 -0.000241542 12.3187 2.10167e-05 11.399L4.2822e-05 8.59782C3.7408e-05 7.80412 3.30868e-05 7.17033 0.0418558 6.65844C0.0847509 6.13343 0.174737 5.68186 0.386062 5.26712C0.725613 4.60071 1.26742 4.0589 1.93383 3.71935C2.34857 3.50803 2.80014 3.41804 3.32515 3.37515C3.83704 3.33332 4.47083 3.33333 5.26453 3.33333ZM3.42694 4.621C2.97923 4.65757 2.71048 4.72654 2.50131 4.83311C2.07011 5.05282 1.71953 5.4034 1.49982 5.83461C1.39325 6.04377 1.32428 6.31252 1.2877 6.76023C1.25053 7.21524 1.25004 7.79794 1.25004 8.625V11.2831C1.25004 12.3607 1.25701 12.7589 1.3514 13.0657C1.5746 13.791 2.14239 14.3588 2.86771 14.582C3.17444 14.6764 3.57272 14.6833 4.65031 14.6833L4.69532 14.6833C4.91142 14.6831 5.1009 14.683 5.28297 14.719C5.67725 14.7971 6.036 14.9998 6.30633 15.2973C6.43116 15.4346 6.52881 15.597 6.64017 15.7822L6.72373 15.9209C6.90062 16.2146 7.01346 16.4009 7.10693 16.5303C7.16558 16.6115 7.19741 16.642 7.20636 16.6501C7.26064 16.6745 7.32278 16.6745 7.37706 16.6501C7.38601 16.642 7.41785 16.6115 7.47649 16.5303C7.56996 16.4009 7.6828 16.2146 7.85969 15.9209L7.94324 15.7822C8.05461 15.597 8.15226 15.4346 8.27709 15.2973C8.54742 14.9998 8.90617 14.7971 9.30045 14.719C9.48252 14.683 9.672 14.6831 9.8881 14.6833L9.93311 14.6833C11.0107 14.6833 11.409 14.6764 11.7157 14.582C12.441 14.3588 13.0088 13.791 13.232 13.0657C13.3264 12.7589 13.3334 12.3607 13.3334 11.2831V8.625C13.3334 7.79795 13.3329 7.21524 13.2957 6.76023C13.2591 6.31252 13.1902 6.04377 13.0836 5.83461C12.8639 5.4034 12.5133 5.05282 12.0821 4.83311C11.8729 4.72654 11.6042 4.65757 11.1565 4.621C10.7015 4.58382 10.1188 4.58333 9.29171 4.58333H5.29171C4.46465 4.58333 3.88195 4.58382 3.42694 4.621Z" fill="var(--fill-0, white)"/>
</g>
</svg>
