<svg preserveAspectRatio="none" width="100%" height="100%" overflow="visible" style="display: block;" viewBox="0 0 26.6667 22.6667" fill="none" xmlns="http://www.w3.org/2000/svg">
<path id="Vector" opacity="0.4" fill-rule="evenodd" clip-rule="evenodd" d="M26.6667 8.42139V16.2667C26.6667 18.5069 26.6667 19.627 26.2307 20.4826C25.8472 21.2353 25.2353 21.8472 24.4826 22.2307C23.627 22.6667 22.5069 22.6667 20.2667 22.6667H6.4C4.15979 22.6667 3.03968 22.6667 2.18404 22.2307C1.43139 21.8472 0.819467 21.2353 0.435974 20.4826C0 19.627 0 18.5069 0 16.2667V8.42139C0 8.25756 0 8.17564 0.00253364 8.10449C0.0712211 6.17557 1.50754 4.57082 3.41708 4.28954C3.48751 4.27917 3.56893 4.27012 3.73176 4.25203L3.91914 4.23121C5.2166 4.08704 6.3525 3.29499 6.93631 2.12737C7.58821 0.823578 8.92079 0 10.3785 0H16.2882C17.7459 0 19.0785 0.823578 19.7304 2.12737C20.3142 3.29499 21.4501 4.08704 22.7475 4.23121L22.9349 4.25203C23.0977 4.27012 23.1792 4.27917 23.2496 4.28954C25.1591 4.57082 26.5954 6.17557 26.6641 8.10449C26.6667 8.17564 26.6667 8.25756 26.6667 8.42139Z" fill="var(--fill-0, #6B21A8)"/>
</svg>
