<svg preserveAspectRatio="none" width="100%" height="100%" overflow="visible" style="display: block;" viewBox="0 0 28.6666 24.3333" fill="none" xmlns="http://www.w3.org/2000/svg">
<g id="Vector 1">
<path d="M9 0C9.55229 0 10 0.447715 10 1V2.66667H18.6667V1C18.6667 0.447715 19.1144 0 19.6667 0C20.219 0 20.6667 0.447715 20.6667 1V2.66676C21.7414 2.66752 22.6205 2.67426 23.3465 2.73357C24.1865 2.8022 24.909 2.94618 25.5726 3.2843C26.6388 3.82758 27.5057 4.69447 28.049 5.76072C28.3871 6.42432 28.5311 7.14683 28.5997 7.98685C28.6612 8.73959 28.6662 9.6571 28.6666 10.7866C28.6666 10.8613 28.6666 10.8986 28.6521 10.9272C28.6393 10.9523 28.6189 10.9727 28.5938 10.9855C28.5653 11 28.528 11 28.4533 11H0.21331C0.138631 11 0.101292 11 0.072765 10.9855C0.0476777 10.9727 0.027271 10.9523 0.0144939 10.9272C-3.3766e-05 10.8986 -2.18911e-05 10.8613 1.86407e-06 10.7866C0.000399343 9.65712 0.00536981 8.73959 0.0668718 7.98685C0.135504 7.14683 0.279482 6.42432 0.617601 5.76072C1.16088 4.69447 2.02777 3.82758 3.09403 3.2843C3.75762 2.94618 4.48013 2.8022 5.32015 2.73357C6.04609 2.67426 6.92525 2.66752 8 2.66676V1C8 0.447715 8.44772 0 9 0Z" fill="var(--fill-0, #9333EA)"/>
<path d="M7 17.6667C7 16.9303 7.59696 16.3333 8.33334 16.3333C9.06972 16.3333 9.6668 16.9303 9.6668 17.6667C9.6668 18.403 9.06985 19 8.33347 19C7.59709 19 7 18.403 7 17.6667Z" fill="var(--fill-0, #9333EA)"/>
<path d="M14.3333 16.3333C13.597 16.3333 13 16.9303 13 17.6667C13 18.403 13.597 19 14.3333 19C15.0697 19 15.6668 18.403 15.6668 17.6667C15.6668 16.9303 15.0697 16.3333 14.3333 16.3333Z" fill="var(--fill-0, #9333EA)"/>
<path d="M19 17.6667C19 16.9303 19.597 16.3333 20.3333 16.3333C21.0697 16.3333 21.6668 16.9303 21.6668 17.6667C21.6668 18.403 21.0698 19 20.3335 19C19.5971 19 19 18.403 19 17.6667Z" fill="var(--fill-0, #9333EA)"/>
<path d="M8.33334 21.6667C7.59696 21.6667 7 22.2636 7 23C7 23.7364 7.59696 24.3333 8.33334 24.3333C9.06972 24.3333 9.6668 23.7364 9.6668 23C9.6668 22.2636 9.06972 21.6667 8.33334 21.6667Z" fill="var(--fill-0, #9333EA)"/>
<path d="M13 23C13 22.2636 13.597 21.6667 14.3333 21.6667C15.0697 21.6667 15.6668 22.2636 15.6668 23C15.6668 23.7364 15.0698 24.3333 14.3335 24.3333C13.5971 24.3333 13 23.7364 13 23Z" fill="var(--fill-0, #9333EA)"/>
<path d="M20.3333 21.6667C19.597 21.6667 19 22.2636 19 23C19 23.7364 19.597 24.3333 20.3333 24.3333C21.0697 24.3333 21.6668 23.7364 21.6668 23C21.6668 22.2636 21.0697 21.6667 20.3333 21.6667Z" fill="var(--fill-0, #9333EA)"/>
</g>
</svg>
