<svg preserveAspectRatio="none" width="100%" height="100%" overflow="visible" style="display: block;" viewBox="0 0 22 20.0037" fill="none" xmlns="http://www.w3.org/2000/svg">
<path id="Vector" d="M9 2.00366L7 4.00366M16 17.0037V19.0037M1 10.0037H21M6 17.0037V19.0037M8 3.00371L6.621 1.62471C6.33181 1.33418 5.96463 1.13367 5.56388 1.04745C5.16313 0.961228 4.74598 0.992983 4.36289 1.13887C3.97981 1.28477 3.64721 1.53854 3.40533 1.8695C3.16346 2.20045 3.02267 2.59441 3 3.00371V15.0037C3 15.5341 3.21071 16.0428 3.58579 16.4179C3.96086 16.793 4.46957 17.0037 5 17.0037H17C17.5304 17.0037 18.0391 16.793 18.4142 16.4179C18.7893 16.0428 19 15.5341 19 15.0037V10.0037" stroke="var(--stroke-0, #404040)" stroke-width="2" stroke-linecap="round" stroke-linejoin="round"/>
</svg>
