<svg preserveAspectRatio="none" width="100%" height="100%" overflow="visible" style="display: block;" viewBox="0 0 16 16" fill="none" xmlns="http://www.w3.org/2000/svg">
<g id="Lock--Streamline-Font-Awesome" opacity="0.2">
<path id="Vector" d="M5.55 4.57V6.04H10.45V4.57C10.45 3.21638 9.35363 2.12 8 2.12C6.64638 2.12 5.55 3.21638 5.55 4.57ZM3.59 6.04V4.57C3.59 2.13531 5.56531 0.16 8 0.16C10.4347 0.16 12.41 2.13531 12.41 4.57V6.04H12.9C13.9811 6.04 14.86 6.91894 14.86 8V13.88C14.86 14.9611 13.9811 15.84 12.9 15.84H3.1C2.01894 15.84 1.14 14.9611 1.14 13.88V8C1.14 6.91894 2.01894 6.04 3.1 6.04H3.59Z" fill="var(--fill-0, black)"/>
</g>
</svg>
