<svg preserveAspectRatio="none" width="100%" height="100%" overflow="visible" style="display: block;" viewBox="0 0 24 24" fill="none" xmlns="http://www.w3.org/2000/svg">
<g id="Frame 2147258864">
<path id="Vector" d="M4.5 12.5C4.5 14.9915 4.52755 16.6644 4.55096 17.6364C4.56688 18.297 4.94054 18.8882 5.59695 18.9642C5.7858 18.9861 6.00295 19 6.25 19C6.49705 19 6.7142 18.9861 6.90305 18.9642C7.55945 18.8882 7.9331 18.297 7.94905 17.6364C7.97245 16.6644 8 14.9915 8 12.5C8 10.0085 7.97245 8.3356 7.94905 7.3636C7.9331 6.703 7.55945 6.1118 6.90305 6.03575C6.7142 6.0139 6.49705 6 6.25 6C6.00295 6 5.7858 6.0139 5.59695 6.03575C4.94054 6.1118 4.56688 6.703 4.55096 7.3636C4.52754 8.3356 4.5 10.0085 4.5 12.5ZM4.5 12.5C4.5 11.3697 4.48716 10.5131 4.47237 9.90135C4.45436 9.15625 3.98064 8.52735 3.23571 8.50365C3.16096 8.5013 3.08242 8.5 3 8.5C2.91758 8.5 2.83903 8.5013 2.76429 8.50365C2.01935 8.52735 1.54563 9.15625 1.52762 9.90135C1.51283 10.5131 1.5 11.3697 1.5 12.5C1.5 13.6303 1.51283 14.4869 1.52762 15.0986C1.54563 15.8437 2.01935 16.4727 2.76429 16.4964C2.83903 16.4987 2.91758 16.5 3 16.5C3.08242 16.5 3.16097 16.4987 3.23571 16.4964C3.98065 16.4727 4.45437 15.8437 4.47238 15.0986C4.48717 14.4869 4.5 13.6303 4.5 12.5ZM19.5 12.5C19.5 14.9915 19.4725 16.6644 19.4491 17.6364C19.4331 18.297 19.0594 18.8882 18.403 18.9642C18.2142 18.9861 17.9971 19 17.75 19C17.5029 19 17.2858 18.9861 17.0969 18.9642C16.4405 18.8882 16.0669 18.297 16.0509 17.6364C16.0275 16.6644 16 14.9915 16 12.5C16 10.0085 16.0275 8.3356 16.0509 7.3636C16.0669 6.703 16.4405 6.1118 17.0969 6.03575C17.2858 6.0139 17.5029 6 17.75 6C17.9971 6 18.2142 6.0139 18.403 6.03575C19.0594 6.1118 19.4331 6.703 19.4491 7.3636C19.4725 8.3356 19.5 10.0085 19.5 12.5ZM19.5 12.5C19.5 11.3697 19.5128 10.5131 19.5276 9.90135C19.5456 9.15625 20.0193 8.52735 20.7643 8.50365C20.839 8.5013 20.9175 8.5 21 8.5C21.0825 8.5 21.161 8.5013 21.2357 8.50365C21.9807 8.52735 22.4544 9.15625 22.4724 9.90135C22.4872 10.5131 22.5 11.3697 22.5 12.5C22.5 13.6303 22.4872 14.4869 22.4724 15.0986C22.4544 15.8437 21.9807 16.4727 21.2357 16.4964C21.161 16.4987 21.0824 16.5 21 16.5C20.9175 16.5 20.839 16.4987 20.7643 16.4964C20.0193 16.4727 19.5456 15.8437 19.5276 15.0986C19.5128 14.4869 19.5 13.6303 19.5 12.5ZM7.99609 13.9908C9.00069 13.9963 10.1653 13.9998 11.4996 13.9998C13.3026 13.9998 14.796 13.9934 16.003 13.9844M16.003 11.0154C14.796 11.0064 13.3026 11 11.4996 11C10.1654 11 9.00065 11.0036 7.9961 11.0091" stroke="var(--stroke-0, #404040)" stroke-width="1.5" stroke-linecap="round" stroke-linejoin="round"/>
</g>
</svg>
