<svg preserveAspectRatio="none" width="100%" height="100%" overflow="visible" style="display: block;" viewBox="0 0 20 20" fill="none" xmlns="http://www.w3.org/2000/svg">
<g id="ri:home-line">
<path id="Vector" d="M17.5 16.6667C17.5 16.8877 17.4122 17.0996 17.2559 17.2559C17.0996 17.4122 16.8877 17.5 16.6667 17.5H3.33333C3.11232 17.5 2.90036 17.4122 2.74408 17.2559C2.5878 17.0996 2.5 16.8877 2.5 16.6667V7.90833C2.49991 7.78134 2.52885 7.65601 2.5846 7.54192C2.64035 7.42782 2.72143 7.32797 2.82167 7.25L9.48833 2.065C9.63462 1.9512 9.81466 1.88942 10 1.88942C10.1853 1.88942 10.3654 1.9512 10.5117 2.065L17.1783 7.25C17.2786 7.32797 17.3597 7.42782 17.4154 7.54192C17.4712 7.65601 17.5001 7.78134 17.5 7.90833V16.6667ZM15.8333 15.8333V8.315L10 3.77833L4.16667 8.315V15.8333H15.8333Z" fill="var(--fill-0, #858C93)"/>
</g>
</svg>
