<svg preserveAspectRatio="none" width="100%" height="100%" overflow="visible" style="display: block;" viewBox="0 0 20 20" fill="none" xmlns="http://www.w3.org/2000/svg">
<g id="Car--Streamline-Unicons">
<path id="Vector" d="M4.72758 11.0339C4.606 11.0779 4.4955 11.1482 4.40408 11.2396C4.31267 11.3311 4.24242 11.4415 4.19842 11.5631C4.12708 11.7412 4.10967 11.9363 4.14825 12.1242C4.18675 12.3122 4.27958 12.4846 4.41525 12.6202C4.55092 12.7558 4.72342 12.8487 4.91133 12.8872C5.09925 12.9258 5.29433 12.9083 5.47242 12.8371C5.59117 12.7875 5.70058 12.7178 5.79583 12.6313C5.88233 12.5361 5.952 12.4267 6.00158 12.3079C6.0565 12.1916 6.08333 12.0641 6.08 11.9355C6.07642 11.676 5.97492 11.4275 5.79583 11.2398C5.658 11.1037 5.483 11.0116 5.29292 10.975C5.10275 10.9383 4.90608 10.9588 4.72758 11.0339ZM17.6048 7.11392L16.272 3.1645C16.0688 2.5895 15.6916 2.09192 15.1929 1.74075C14.6943 1.38958 14.0988 1.20217 13.4888 1.2045H6.51117C5.90125 1.20217 5.30575 1.38958 4.80708 1.74075C4.30842 2.09192 3.93133 2.5895 3.728 3.1645L2.39517 7.14333C1.76833 7.3075 1.21325 7.67417 0.81625 8.18633C0.41925 8.6985 0.202667 9.3275 0.2 9.9755V13.8955C0.20175 14.502 0.391 15.0932 0.741917 15.5881C1.09275 16.0827 1.58817 16.4569 2.16 16.6591V17.8155C2.16 18.0754 2.26325 18.3247 2.447 18.5085C2.63083 18.6922 2.88008 18.7955 3.14 18.7955C3.39992 18.7955 3.64917 18.6922 3.833 18.5085C4.01675 18.3247 4.12 18.0754 4.12 17.8155V16.8355H15.88V17.8155C15.88 18.0754 15.9833 18.3247 16.1671 18.5085C16.3508 18.6922 16.6001 18.7955 16.86 18.7955C17.1199 18.7955 17.3693 18.6922 17.553 18.5085C17.7368 18.3247 17.84 18.0754 17.84 17.8155V16.6591C18.4118 16.4569 18.9073 16.0827 19.2582 15.5881C19.609 15.0932 19.7983 14.502 19.8 13.8955V9.9755C19.7973 9.3275 19.5808 8.6985 19.1838 8.18633C18.7868 7.67417 18.2318 7.3075 17.6048 7.14333V7.11392ZM5.58017 3.78192C5.64592 3.58725 5.77117 3.41817 5.93825 3.29858C6.10533 3.179 6.30575 3.115 6.51117 3.1155H13.4888C13.7026 3.10433 13.914 3.16342 14.0909 3.28375C14.2679 3.40408 14.4006 3.57908 14.4688 3.78192L15.4978 7.0355H4.50217L5.58017 3.78192ZM17.84 13.8955C17.84 14.1554 17.7368 14.4048 17.553 14.5885C17.3693 14.7723 17.1199 14.8755 16.86 14.8755H3.14C2.88008 14.8755 2.63083 14.7723 2.447 14.5885C2.26325 14.4048 2.16 14.1554 2.16 13.8955V9.9755C2.16 9.71558 2.26325 9.46633 2.447 9.28258C2.63083 9.09883 2.88008 8.9955 3.14 8.9955H16.86C17.1199 8.9955 17.3692 9.09883 17.553 9.28258C17.7368 9.46633 17.84 9.71558 17.84 9.9755V13.8955ZM14.5276 11.0339C14.406 11.0779 14.2955 11.1482 14.2041 11.2396C14.1127 11.3311 14.0424 11.4415 13.9984 11.5631C13.9272 11.7412 13.9097 11.9363 13.9482 12.1242C13.9867 12.3122 14.0797 12.4846 14.2153 12.6202C14.3509 12.7558 14.5234 12.8487 14.7113 12.8872C14.8993 12.9258 15.0943 12.9083 15.2724 12.8371C15.394 12.7931 15.5045 12.7228 15.5959 12.6314C15.6873 12.54 15.7576 12.4295 15.8016 12.3079C15.8565 12.1916 15.8833 12.0641 15.88 11.9355C15.8764 11.676 15.7748 11.4275 15.5958 11.2398C15.458 11.1037 15.283 11.0116 15.0928 10.975C14.9027 10.9383 14.7061 10.9588 14.5276 11.0339ZM10.98 10.9555H9.02C8.76008 10.9555 8.51083 11.0588 8.32708 11.2426C8.14333 11.4263 8.04 11.6756 8.04 11.9355C8.04 12.1954 8.14333 12.4448 8.32708 12.6285C8.51083 12.8123 8.76008 12.9155 9.02 12.9155H10.98C11.2399 12.9155 11.4893 12.8123 11.673 12.6285C11.8568 12.4448 11.96 12.1954 11.96 11.9355C11.96 11.6756 11.8568 11.4263 11.673 11.2426C11.4893 11.0588 11.2399 10.9555 10.98 10.9555Z" fill="var(--fill-0, #404040)"/>
</g>
</svg>
