<svg preserveAspectRatio="none" width="100%" height="100%" overflow="visible" style="display: block;" viewBox="0 0 10 6" fill="none" xmlns="http://www.w3.org/2000/svg">
<path id="Vector" fill-rule="evenodd" clip-rule="evenodd" d="M0.218945 0.248308C0.359317 0.102209 0.549597 0.0201469 0.74799 0.0201469C0.946383 0.0201469 1.13666 0.102209 1.27704 0.248308L4.99033 4.1179L8.70363 0.248308C8.77217 0.171658 8.85482 0.110178 8.94665 0.0675379C9.03849 0.0248975 9.13762 0.00196965 9.23814 0.000121416C9.33867 -0.00172682 9.43851 0.0175425 9.53173 0.0567804C9.62495 0.0960183 9.70964 0.154421 9.78073 0.228504C9.85182 0.302587 9.90786 0.390831 9.94551 0.487975C9.98317 0.585118 10.0017 0.68917 9.99988 0.793922C9.99811 0.898675 9.97611 1.00198 9.93519 1.09768C9.89427 1.19338 9.83528 1.27951 9.76172 1.35093L5.51938 5.77184C5.37901 5.91794 5.18873 6 4.99033 6C4.79194 6 4.60166 5.91794 4.46129 5.77184L0.218945 1.35093C0.0787473 1.20465 0 1.00636 0 0.79962C0 0.592877 0.0787473 0.394588 0.218945 0.248308Z" fill="var(--fill-0, #171717)"/>
</svg>
