<svg preserveAspectRatio="none" width="100%" height="100%" overflow="visible" style="display: block;" viewBox="0 0 24 24" fill="none" xmlns="http://www.w3.org/2000/svg">
<g id="Home-Work-Fill--Streamline-Rounded-Fill-Material" opacity="0.2">
<path id="Vector" d="M1 12.025C1 11.7916 1.05416 11.5625 1.1625 11.3375C1.27083 11.1125 1.425 10.9334 1.625 10.8L6.9 7.025C7.039 6.92715 7.18125 6.8569 7.32675 6.81425C7.4721 6.7714 7.62065 6.75 7.7725 6.75C7.92415 6.75 8.07325 6.7714 8.21975 6.81425C8.3664 6.8569 8.50985 6.92715 8.65 7.025L13.9 10.8C14.1 10.9334 14.2542 11.1125 14.3625 11.3375C14.4709 11.5625 14.525 11.7916 14.525 12.025V19.5C14.525 19.9125 14.3782 20.2656 14.0845 20.5592C13.7907 20.8531 13.4375 21 13.025 21H11.275C10.8625 21 10.5094 20.8531 10.2157 20.5592C9.9219 20.2656 9.775 19.9125 9.775 19.5V16.225C9.775 16.0167 9.7021 15.8396 9.55625 15.6938C9.4104 15.5479 9.23335 15.475 9.025 15.475H6.525C6.31665 15.475 6.1396 15.5479 5.99375 15.6938C5.8479 15.8396 5.775 16.0167 5.775 16.225V19.5C5.775 19.9125 5.62815 20.2656 5.3345 20.5592C5.04065 20.8531 4.6875 21 4.275 21H2.5C2.0875 21 1.73441 20.8531 1.44075 20.5592C1.14691 20.2656 1 19.9125 1 19.5V12.025ZM23 4.5V19.5C23 19.9125 22.8531 20.2656 22.5595 20.5592C22.2656 20.8531 21.9125 21 21.5 21H16.775C16.5625 21 16.3844 20.9281 16.2407 20.7843C16.0969 20.6406 16.025 20.4625 16.025 20.25V11.15C16.025 10.8968 15.9667 10.6628 15.85 10.4478C15.7334 10.2326 15.575 10.0584 15.375 9.925L10.725 6.675C10.5417 6.54165 10.4 6.375 10.3 6.175C10.2 5.975 10.15 5.75835 10.15 5.525V4.525C10.15 4.10834 10.2916 3.75 10.575 3.45C10.8583 3.15 11.2083 3 11.625 3H21.5C21.9125 3 22.2656 3.14684 22.5595 3.4405C22.8531 3.73434 23 4.0875 23 4.5ZM17.8 8.425H18.55C18.65 8.425 18.7375 8.3875 18.8125 8.3125C18.8875 8.2375 18.925 8.15 18.925 8.05V7.3C18.925 7.2 18.8875 7.1125 18.8125 7.0375C18.7375 6.9625 18.65 6.925 18.55 6.925H17.8C17.7 6.925 17.6125 6.9625 17.5375 7.0375C17.4625 7.1125 17.425 7.2 17.425 7.3V8.05C17.425 8.15 17.4625 8.2375 17.5375 8.3125C17.6125 8.3875 17.7 8.425 17.8 8.425ZM17.8 12.7H18.55C18.65 12.7 18.7375 12.6625 18.8125 12.5875C18.8875 12.5125 18.925 12.425 18.925 12.325V11.575C18.925 11.475 18.8875 11.3875 18.8125 11.3125C18.7375 11.2375 18.65 11.2 18.55 11.2H17.8C17.7 11.2 17.6125 11.2375 17.5375 11.3125C17.4625 11.3875 17.425 11.475 17.425 11.575V12.325C17.425 12.425 17.4625 12.5125 17.5375 12.5875C17.6125 12.6625 17.7 12.7 17.8 12.7ZM17.8 16.95H18.55C18.65 16.95 18.7375 16.9125 18.8125 16.8375C18.8875 16.7625 18.925 16.675 18.925 16.575V15.825C18.925 15.725 18.8875 15.6375 18.8125 15.5625C18.7375 15.4875 18.65 15.45 18.55 15.45H17.8C17.7 15.45 17.6125 15.4875 17.5375 15.5625C17.4625 15.6375 17.425 15.725 17.425 15.825V16.575C17.425 16.675 17.4625 16.7625 17.5375 16.8375C17.6125 16.9125 17.7 16.95 17.8 16.95Z" fill="var(--fill-0, #121212)"/>
</g>
</svg>
